<svg width="32" height="32" viewBox="0 0 32 32" fill="none" xmlns="http://www.w3.org/2000/svg">
<path d="M14.6105 6.66672V5.43163C14.6105 4.46321 15.3964 3.67725 16.3649 3.67725C17.3333 3.67725 18.1192 4.46321 18.1192 5.43163V6.66672" fill="white"/>
<path d="M26.0631 26.3509H6.65962C6.23155 26.3509 5.8877 26.0071 5.8877 25.579V24.365C5.8877 24.1615 5.97191 23.965 6.11226 23.8176C7.89471 22.0351 8.91927 19.8036 8.91927 17.6913V13.4457C8.91927 9.34041 12.2596 6.00708 16.3579 6.00708C20.4561 6.00708 23.7965 9.34743 23.7965 13.4457V17.6913C23.7965 19.7966 24.821 22.0351 26.6035 23.8176C26.7509 23.965 26.828 24.1615 26.828 24.365V25.579C26.828 26.0071 26.4842 26.3509 26.0561 26.3509H26.0631ZM7.43155 24.8071H25.2912V24.6808C23.3614 22.6457 22.2596 20.1194 22.2596 17.6983V13.4527C22.2596 10.2036 19.614 7.55796 16.3649 7.55796C13.1158 7.55796 10.4702 10.2036 10.4702 13.4527V17.6983C10.4702 20.1194 9.3684 22.6457 7.43857 24.6808V24.8071H7.43155Z" fill="white"/>
<path d="M26.4 14.9545C26.2947 14.9545 26.1824 14.9265 26.0772 14.8773C25.7333 14.7019 25.5929 14.2809 25.7754 13.93C26.2105 13.0879 26.428 12.1686 26.428 11.2142C26.428 8.96156 25.1789 6.92647 23.1789 5.90191C22.835 5.72647 22.6947 5.30542 22.8771 4.95454C23.0526 4.61068 23.4736 4.47033 23.8245 4.65278C26.3017 5.92296 27.8386 8.43524 27.8386 11.2142C27.8386 12.3791 27.5579 13.537 27.0315 14.5686C26.9052 14.8142 26.6596 14.9475 26.407 14.9475L26.4 14.9545Z" fill="white"/>
<path d="M6.32281 14.9544C6.07018 14.9544 5.82457 14.8141 5.69825 14.5755C5.17194 13.5439 4.89124 12.386 4.89124 11.2211C4.89124 8.44216 6.42808 5.92286 8.90527 4.6597C9.24913 4.48426 9.67018 4.6176 9.85264 4.96146C10.0281 5.30532 9.89474 5.72637 9.55088 5.90882C7.54387 6.93339 6.30176 8.97549 6.30176 11.2211C6.30176 12.1755 6.51931 13.0948 6.95439 13.9369C7.12983 14.2808 6.9965 14.7018 6.65264 14.8843C6.54738 14.9404 6.44211 14.9615 6.32983 14.9615L6.32281 14.9544Z" fill="white"/>
<path d="M16.3579 29.8317C15.6562 29.8317 15.0597 29.5861 14.5684 29.0878C14.0702 28.5896 13.8246 27.9931 13.8246 27.2983H18.8983C18.8983 28.0001 18.6527 28.5966 18.1544 29.0948C17.6562 29.5931 17.0597 29.8387 16.3579 29.8387V29.8317Z" fill="white"/>
</svg>
