<svg width="32" height="32" viewBox="0 0 32 32" fill="none" xmlns="http://www.w3.org/2000/svg">
<path d="M5.33325 12.0001L4.62614 12.7072L3.91904 12.0001L4.62614 11.293L5.33325 12.0001ZM11.9999 27.6667C11.4476 27.6667 10.9999 27.219 10.9999 26.6667C10.9999 26.1145 11.4476 25.6667 11.9999 25.6667L11.9999 27.6667ZM11.2928 19.3739L4.62614 12.7072L6.04036 11.293L12.707 17.9596L11.2928 19.3739ZM4.62614 11.293L11.2928 4.62631L12.707 6.04052L6.04036 12.7072L4.62614 11.293ZM5.33325 11.0001L19.3332 11.0001L19.3332 13.0001L5.33325 13.0001L5.33325 11.0001ZM19.3333 27.6667L11.9999 27.6667L11.9999 25.6667L19.3333 25.6667L19.3333 27.6667ZM27.6666 19.3334C27.6666 23.9358 23.9356 27.6667 19.3333 27.6667L19.3333 25.6667C22.8311 25.6667 25.6666 22.8312 25.6666 19.3334L27.6666 19.3334ZM19.3332 11.0001C23.9356 11.0001 27.6666 14.731 27.6666 19.3334L25.6666 19.3334C25.6666 15.8356 22.831 13.0001 19.3332 13.0001L19.3332 11.0001Z" fill="white"/>
</svg>
