<svg width="18" height="18" viewBox="0 0 18 18" fill="none" xmlns="http://www.w3.org/2000/svg">
<path d="M5.02102 15.5368C4.71313 15.5368 4.44471 15.4263 4.21971 15.2013C3.99471 14.9763 3.88418 14.7079 3.88418 14.4V3.65922H3.52892C3.4026 3.65922 3.29602 3.61579 3.20918 3.52895C3.12234 3.44211 3.07892 3.33553 3.07892 3.20527C3.07892 3.07501 3.12234 2.97237 3.20918 2.88553C3.29602 2.80264 3.4026 2.75922 3.52892 2.75922H6.45787C6.45787 2.60527 6.51313 2.47106 6.61971 2.36448C6.72629 2.2579 6.8605 2.20264 7.0105 2.20264H10.9894C11.1434 2.20264 11.2737 2.2579 11.3802 2.36448C11.4868 2.47106 11.5421 2.60527 11.5421 2.75527H14.471C14.5973 2.75527 14.7039 2.79869 14.7908 2.88553C14.8776 2.97237 14.921 3.07895 14.921 3.20922C14.921 3.33948 14.8776 3.44211 14.7908 3.52895C14.7039 3.61185 14.5973 3.65527 14.471 3.65527H14.1158V14.3961C14.1158 14.704 14.0052 14.9724 13.7802 15.1974C13.5552 15.4224 13.2868 15.5329 12.9789 15.5329H5.02102V15.5368ZM13.2237 3.65922H4.77629V14.4C4.77629 14.4711 4.79997 14.5303 4.84734 14.5737C4.89471 14.6211 4.95392 14.6408 5.01708 14.6408H12.9789C13.046 14.6408 13.1013 14.6171 13.1487 14.5737C13.196 14.5263 13.2197 14.4711 13.2197 14.4V3.65922H13.2237ZM7.50392 12.975C7.63023 12.975 7.73681 12.9316 7.82366 12.8447C7.90655 12.7579 7.94997 12.6513 7.94997 12.525V5.75527C7.94997 5.6329 7.90655 5.52632 7.81971 5.43948C7.73287 5.35264 7.62629 5.30527 7.49602 5.30527C7.36576 5.30527 7.26313 5.34869 7.17629 5.43948C7.09339 5.52632 7.04997 5.6329 7.04997 5.75527V12.529C7.04997 12.6553 7.09339 12.7618 7.18023 12.8487C7.26708 12.9355 7.37366 12.979 7.50392 12.979V12.975ZM10.5079 12.975C10.6342 12.975 10.7408 12.9316 10.8276 12.8447C10.9105 12.7579 10.9539 12.6513 10.9539 12.525V5.75527C10.9539 5.6329 10.9105 5.52632 10.8237 5.43948C10.7368 5.35264 10.6302 5.30527 10.5 5.30527C10.3697 5.30527 10.2671 5.34869 10.1802 5.43948C10.0973 5.52632 10.0539 5.6329 10.0539 5.75527V12.529C10.0539 12.6553 10.0973 12.7618 10.1842 12.8487C10.271 12.9355 10.3776 12.979 10.5079 12.979V12.975Z" fill="white"/>
</svg>
