<svg width="22" height="22" viewBox="0 0 22 22" fill="none" xmlns="http://www.w3.org/2000/svg">
<path d="M2.99992 21.6666C2.26659 21.6666 1.63881 21.4055 1.11659 20.8833C0.594363 20.361 0.333252 19.7333 0.333252 18.9999C0.333252 18.2666 0.594363 17.6388 1.11659 17.1166C1.63881 16.5944 2.26659 16.3333 2.99992 16.3333C3.73325 16.3333 4.36103 16.5944 4.88325 17.1166C5.40547 17.6388 5.66659 18.2666 5.66659 18.9999C5.66659 19.7333 5.40547 20.361 4.88325 20.8833C4.36103 21.4055 3.73325 21.6666 2.99992 21.6666ZM10.9999 21.6666C10.2666 21.6666 9.63881 21.4055 9.11659 20.8833C8.59436 20.361 8.33325 19.7333 8.33325 18.9999C8.33325 18.2666 8.59436 17.6388 9.11659 17.1166C9.63881 16.5944 10.2666 16.3333 10.9999 16.3333C11.7333 16.3333 12.361 16.5944 12.8833 17.1166C13.4055 17.6388 13.6666 18.2666 13.6666 18.9999C13.6666 19.7333 13.4055 20.361 12.8833 20.8833C12.361 21.4055 11.7333 21.6666 10.9999 21.6666ZM18.9999 21.6666C18.2666 21.6666 17.6388 21.4055 17.1166 20.8833C16.5944 20.361 16.3333 19.7333 16.3333 18.9999C16.3333 18.2666 16.5944 17.6388 17.1166 17.1166C17.6388 16.5944 18.2666 16.3333 18.9999 16.3333C19.7333 16.3333 20.361 16.5944 20.8833 17.1166C21.4055 17.6388 21.6666 18.2666 21.6666 18.9999C21.6666 19.7333 21.4055 20.361 20.8833 20.8833C20.361 21.4055 19.7333 21.6666 18.9999 21.6666ZM2.99992 13.6666C2.26659 13.6666 1.63881 13.4055 1.11659 12.8833C0.594363 12.361 0.333252 11.7333 0.333252 10.9999C0.333252 10.2666 0.594363 9.63881 1.11659 9.11659C1.63881 8.59436 2.26659 8.33325 2.99992 8.33325C3.73325 8.33325 4.36103 8.59436 4.88325 9.11659C5.40547 9.63881 5.66659 10.2666 5.66659 10.9999C5.66659 11.7333 5.40547 12.361 4.88325 12.8833C4.36103 13.4055 3.73325 13.6666 2.99992 13.6666ZM10.9999 13.6666C10.2666 13.6666 9.63881 13.4055 9.11659 12.8833C8.59436 12.361 8.33325 11.7333 8.33325 10.9999C8.33325 10.2666 8.59436 9.63881 9.11659 9.11659C9.63881 8.59436 10.2666 8.33325 10.9999 8.33325C11.7333 8.33325 12.361 8.59436 12.8833 9.11659C13.4055 9.63881 13.6666 10.2666 13.6666 10.9999C13.6666 11.7333 13.4055 12.361 12.8833 12.8833C12.361 13.4055 11.7333 13.6666 10.9999 13.6666ZM18.9999 13.6666C18.2666 13.6666 17.6388 13.4055 17.1166 12.8833C16.5944 12.361 16.3333 11.7333 16.3333 10.9999C16.3333 10.2666 16.5944 9.63881 17.1166 9.11659C17.6388 8.59436 18.2666 8.33325 18.9999 8.33325C19.7333 8.33325 20.361 8.59436 20.8833 9.11659C21.4055 9.63881 21.6666 10.2666 21.6666 10.9999C21.6666 11.7333 21.4055 12.361 20.8833 12.8833C20.361 13.4055 19.7333 13.6666 18.9999 13.6666ZM2.99992 5.66659C2.26659 5.66659 1.63881 5.40547 1.11659 4.88325C0.594363 4.36103 0.333252 3.73325 0.333252 2.99992C0.333252 2.26659 0.594363 1.63881 1.11659 1.11659C1.63881 0.594363 2.26659 0.333252 2.99992 0.333252C3.73325 0.333252 4.36103 0.594363 4.88325 1.11659C5.40547 1.63881 5.66659 2.26659 5.66659 2.99992C5.66659 3.73325 5.40547 4.36103 4.88325 4.88325C4.36103 5.40547 3.73325 5.66659 2.99992 5.66659ZM10.9999 5.66659C10.2666 5.66659 9.63881 5.40547 9.11659 4.88325C8.59436 4.36103 8.33325 3.73325 8.33325 2.99992C8.33325 2.26659 8.59436 1.63881 9.11659 1.11659C9.63881 0.594363 10.2666 0.333252 10.9999 0.333252C11.7333 0.333252 12.361 0.594363 12.8833 1.11659C13.4055 1.63881 13.6666 2.26659 13.6666 2.99992C13.6666 3.73325 13.4055 4.36103 12.8833 4.88325C12.361 5.40547 11.7333 5.66659 10.9999 5.66659ZM18.9999 5.66659C18.2666 5.66659 17.6388 5.40547 17.1166 4.88325C16.5944 4.36103 16.3333 3.73325 16.3333 2.99992C16.3333 2.26659 16.5944 1.63881 17.1166 1.11659C17.6388 0.594363 18.2666 0.333252 18.9999 0.333252C19.7333 0.333252 20.361 0.594363 20.8833 1.11659C21.4055 1.63881 21.6666 2.26659 21.6666 2.99992C21.6666 3.73325 21.4055 4.36103 20.8833 4.88325C20.361 5.40547 19.7333 5.66659 18.9999 5.66659Z" fill="white"/>
</svg>
