<svg width="32" height="32" viewBox="0 0 32 32" fill="none" xmlns="http://www.w3.org/2000/svg">
<path d="M10.765 10.0912C9.71942 10.0912 8.86328 9.23509 8.86328 8.18947V5.61403C8.86328 4.56842 9.71942 3.71228 10.765 3.71228C11.8106 3.71228 12.6668 4.56842 12.6668 5.61403V8.18947C12.6668 9.23509 11.8106 10.0912 10.765 10.0912ZM10.765 5.07368C10.4633 5.07368 10.2247 5.3193 10.2247 5.62105V8.19649C10.2247 8.49825 10.4703 8.74386 10.765 8.74386C11.0598 8.74386 11.3054 8.49825 11.3054 8.19649V5.62105C11.3054 5.3193 11.0598 5.07368 10.765 5.07368Z" fill="white"/>
<path d="M21.4668 10.0912C20.4212 10.0912 19.5651 9.23509 19.5651 8.18947V5.61403C19.5651 4.56842 20.4212 3.71228 21.4668 3.71228C22.5124 3.71228 23.3686 4.56842 23.3686 5.61403V8.18947C23.3686 9.23509 22.5124 10.0912 21.4668 10.0912ZM21.4668 5.07368C21.1651 5.07368 20.9265 5.3193 20.9265 5.62105V8.19649C20.9265 8.49825 21.1721 8.74386 21.4668 8.74386C21.7616 8.74386 22.0072 8.49825 22.0072 8.19649V5.62105C22.0072 5.3193 21.7616 5.07368 21.4668 5.07368Z" fill="white"/>
<path fill-rule="evenodd" clip-rule="evenodd" d="M23.3685 7.0386H26.0212C26.1264 7.0386 26.2247 7.08071 26.3159 7.17194C26.4071 7.26316 26.4492 7.36141 26.4492 7.46667V11.979H5.78256V7.46667C5.78256 7.36141 5.82466 7.26316 5.91589 7.17194C6.00712 7.08071 6.10536 7.0386 6.21063 7.0386H8.86326V5.61404C8.86326 5.5597 8.86557 5.50586 8.87011 5.45264H6.21063C5.66326 5.45264 5.18607 5.64913 4.78607 6.04913C4.38607 6.44913 4.18958 6.92632 4.18958 7.47369V27.0947C4.18958 27.6421 4.38607 28.1193 4.78607 28.5193C5.18607 28.9193 5.66326 29.1158 6.21063 29.1158H26.0212C26.5685 29.1158 27.0457 28.9193 27.4457 28.5193C27.8457 28.1193 28.0422 27.6421 28.0422 27.0947V7.47369C28.0422 6.92632 27.8457 6.44913 27.4457 6.04913C27.0457 5.64913 26.5685 5.45264 26.0212 5.45264H23.3617C23.3662 5.50586 23.3685 5.5597 23.3685 5.61404V7.0386ZM19.5719 5.45264H12.6599C12.6645 5.50586 12.6668 5.5597 12.6668 5.61404V7.0386H19.565V5.61404C19.565 5.5597 19.5673 5.50586 19.5719 5.45264ZM6.21063 27.5228H26.0212C26.1264 27.5228 26.2247 27.4807 26.3159 27.3895C26.4071 27.2983 26.4492 27.2 26.4492 27.0947V13.5719H5.78256V27.0947C5.78256 27.2 5.82466 27.2983 5.91589 27.3895C6.00712 27.4807 6.10536 27.5228 6.21063 27.5228ZM16.1124 19.1158C15.7685 19.1158 15.4738 18.9965 15.2352 18.7509C14.9966 18.5053 14.8703 18.2176 14.8703 17.8737C14.8703 17.5298 14.9896 17.2351 15.2352 16.9965C15.4738 16.7579 15.7685 16.6316 16.1124 16.6316C16.4562 16.6316 16.751 16.7509 16.9896 16.9965C17.2282 17.2421 17.3545 17.5298 17.3545 17.8737C17.3545 18.2176 17.2352 18.5123 16.9896 18.7509C16.744 18.9895 16.4562 19.1158 16.1124 19.1158ZM10.4983 19.1158C10.1545 19.1158 9.85975 18.9965 9.62115 18.7509C9.38256 18.5053 9.25624 18.2176 9.25624 17.8737C9.25624 17.5298 9.37554 17.2351 9.62115 16.9965C9.86677 16.7579 10.1545 16.6316 10.4983 16.6316C10.8422 16.6316 11.1369 16.7509 11.3755 16.9965C11.6141 17.2421 11.7405 17.5298 11.7405 17.8737C11.7405 18.2176 11.6212 18.5123 11.3755 18.7509C11.1299 18.9895 10.8422 19.1158 10.4983 19.1158ZM21.7264 19.1158C21.3826 19.1158 21.0878 18.9965 20.8492 18.7509C20.6106 18.5053 20.4843 18.2176 20.4843 17.8737C20.4843 17.5298 20.6036 17.2351 20.8492 16.9965C21.0948 16.7579 21.3826 16.6316 21.7264 16.6316C22.0703 16.6316 22.365 16.7509 22.6036 16.9965C22.8422 17.2421 22.9685 17.5298 22.9685 17.8737C22.9685 18.2176 22.8492 18.5123 22.6036 18.7509C22.358 18.9895 22.0703 19.1158 21.7264 19.1158ZM16.1124 24.0632C15.7685 24.0632 15.4738 23.9439 15.2352 23.6983C14.9966 23.4526 14.8703 23.1649 14.8703 22.8211C14.8703 22.4772 14.9896 22.1825 15.2352 21.9439C15.4738 21.7053 15.7685 21.579 16.1124 21.579C16.4562 21.579 16.751 21.6983 16.9896 21.9439C17.2282 22.1825 17.3545 22.4772 17.3545 22.8211C17.3545 23.1649 17.2352 23.4597 16.9896 23.6983C16.744 23.9368 16.4562 24.0632 16.1124 24.0632ZM10.4983 24.0632C10.1545 24.0632 9.85975 23.9439 9.62115 23.6983C9.38256 23.4526 9.25624 23.1649 9.25624 22.8211C9.25624 22.4772 9.37554 22.1825 9.62115 21.9439C9.85975 21.7053 10.1545 21.579 10.4983 21.579C10.8422 21.579 11.1369 21.6983 11.3755 21.9439C11.6141 22.1825 11.7405 22.4772 11.7405 22.8211C11.7405 23.1649 11.6212 23.4597 11.3755 23.6983C11.1299 23.9368 10.8422 24.0632 10.4983 24.0632ZM21.7264 24.0632C21.3826 24.0632 21.0878 23.9439 20.8492 23.6983C20.6106 23.4526 20.4843 23.1649 20.4843 22.8211C20.4843 22.4772 20.6036 22.1825 20.8492 21.9439C21.0878 21.7053 21.3826 21.579 21.7264 21.579C22.0703 21.579 22.365 21.6983 22.6036 21.9439C22.8422 22.1825 22.9685 22.4772 22.9685 22.8211C22.9685 23.1649 22.8492 23.4597 22.6036 23.6983C22.358 23.9368 22.0703 24.0632 21.7264 24.0632Z" fill="white"/>
</svg>
