<svg width="18" height="18" viewBox="0 0 18 18" fill="none" xmlns="http://www.w3.org/2000/svg">
<path d="M8.31316 9.48944V12.2881C8.31316 12.4144 8.35658 12.521 8.44342 12.6079C8.53026 12.6947 8.63684 12.7381 8.76711 12.7381C8.89737 12.7381 9 12.6947 9.08684 12.6079C9.16974 12.521 9.21316 12.4144 9.21316 12.2881V9.48944H12.0237C12.15 9.48944 12.2566 9.44601 12.3434 9.35917C12.4303 9.27233 12.4737 9.16575 12.4737 9.03549C12.4737 8.90522 12.4303 8.80259 12.3434 8.71575C12.2566 8.63286 12.15 8.58944 12.0237 8.58944H9.21316V5.68022C9.21316 5.55391 9.16974 5.44733 9.08289 5.36049C8.99605 5.27365 8.88947 5.23022 8.75921 5.23022C8.62895 5.23022 8.52632 5.27365 8.43947 5.36049C8.35658 5.44733 8.31316 5.55391 8.31316 5.68022V8.58944H5.41579C5.28947 8.58944 5.18289 8.63286 5.09605 8.7197C5.00921 8.80654 4.96579 8.91312 4.96579 9.04338C4.96579 9.17365 5.00921 9.27628 5.09605 9.36312C5.18289 9.44601 5.28947 9.48944 5.41579 9.48944H8.31316ZM8.72368 16.4842C7.68553 16.4842 6.71053 16.2868 5.80263 15.8921C4.89474 15.4973 4.10132 14.9605 3.41842 14.2776C2.73947 13.5947 2.19868 12.8013 1.8079 11.8934C1.41316 10.9855 1.21579 10.0144 1.21579 8.97628C1.21579 7.93812 1.41316 6.96312 1.8079 6.05522C2.20263 5.14338 2.73947 4.34996 3.42237 3.67496C4.10526 2.99996 4.89868 2.46707 5.80658 2.07233C6.71447 1.67759 7.68553 1.48022 8.72368 1.48022C9.76184 1.48022 10.7368 1.67759 11.6447 2.07233C12.5566 2.46707 13.35 2.99996 14.025 3.67496C14.7 4.34996 15.2329 5.14338 15.6276 6.05522C16.0224 6.96707 16.2197 7.94207 16.2197 8.97628C16.2197 10.0105 16.0224 10.9894 15.6276 11.8973C15.2329 12.8052 14.7 13.5986 14.025 14.2776C13.35 14.9565 12.5566 15.4934 11.6447 15.8881C10.7329 16.2829 9.75789 16.4842 8.72368 16.4842ZM8.72368 15.5881C10.5592 15.5881 12.1145 14.9447 13.3974 13.6579C14.6803 12.371 15.3197 10.8118 15.3197 8.97628C15.3197 7.14075 14.6803 5.58549 13.4013 4.30259C12.1224 3.0197 10.5592 2.38022 8.71579 2.38022C6.87237 2.38022 5.32895 3.0197 4.04211 4.29865C2.75526 5.57759 2.11184 7.14075 2.11184 8.98417C2.11184 10.8276 2.75526 12.371 4.04211 13.6579C5.32895 14.9447 6.88816 15.5881 8.72368 15.5881Z" fill="white"/>
</svg>
