<svg width="18" height="18" viewBox="0 0 18 18" fill="none" xmlns="http://www.w3.org/2000/svg">
<path d="M15.1382 15.9751H10.4092C10.2355 15.9751 10.0855 15.9158 9.96711 15.7974C9.84869 15.679 9.78947 15.533 9.78947 15.3593V9.52901C9.78947 9.35532 9.84869 9.20927 9.96711 9.09085C10.0855 8.97243 10.2355 8.91322 10.4092 8.91322H15.1382C15.3118 8.91322 15.4618 8.97243 15.5803 9.09085C15.6987 9.20927 15.7579 9.35532 15.7579 9.52901V15.3593C15.7579 15.533 15.6987 15.679 15.5803 15.7974C15.4618 15.9158 15.3118 15.9751 15.1382 15.9751ZM7.58684 15.9751H2.8579C2.68421 15.9751 2.53421 15.9158 2.41579 15.7974C2.29737 15.679 2.23816 15.529 2.23816 15.3514V11.7237C2.23816 11.5461 2.29737 11.3961 2.41579 11.2777C2.53421 11.1593 2.68421 11.1001 2.8579 11.1001H7.58684C7.76053 11.1001 7.91053 11.1593 8.02895 11.2777C8.14737 11.3961 8.20658 11.5461 8.20658 11.7237V15.3514C8.20658 15.529 8.14737 15.679 8.02895 15.7974C7.91053 15.9158 7.76053 15.9751 7.58684 15.9751ZM10.7882 14.9803H14.7671V9.90795H10.7882V14.9803ZM3.23684 14.9803H7.21579V12.0948H3.23684V14.9803ZM7.58684 9.51322H2.8579C2.68421 9.51322 2.53421 9.45401 2.41579 9.33559C2.29737 9.21716 2.23816 9.07111 2.23816 8.89743V3.07111C2.23816 2.89743 2.29737 2.75138 2.41579 2.63295C2.53421 2.51453 2.68421 2.45532 2.8579 2.45532H7.58684C7.76053 2.45532 7.91053 2.51453 8.02895 2.63295C8.14737 2.75138 8.20658 2.89743 8.20658 3.07111V8.90138C8.20658 9.07506 8.14737 9.22111 8.02895 9.33953C7.91053 9.45795 7.76053 9.51717 7.58684 9.51717V9.51322ZM3.23684 8.51848H7.21579V3.45006H3.23684V8.52243V8.51848ZM15.1421 7.32638H10.4132C10.2395 7.32638 10.0895 7.26717 9.97105 7.14874C9.85263 7.03032 9.79342 6.88032 9.79342 6.70269V3.07901C9.79342 2.90138 9.85263 2.75138 9.97105 2.63295C10.0895 2.51453 10.2395 2.45532 10.4132 2.45532H15.1421C15.3158 2.45532 15.4658 2.51453 15.5842 2.63295C15.7026 2.75138 15.7618 2.90138 15.7618 3.07901V6.70664C15.7618 6.88427 15.7026 7.03427 15.5842 7.15269C15.4658 7.27111 15.3158 7.33032 15.1421 7.33032V7.32638ZM10.7921 6.33164H14.7711V3.44611H10.7921V6.33164Z" fill="white"/>
</svg>
