<svg width="12" height="12" viewBox="0 0 12 12" fill="none" xmlns="http://www.w3.org/2000/svg">
<path d="M2.34738 10.65C2.12896 10.65 1.94212 10.5711 1.78685 10.4158C1.63159 10.2606 1.55264 10.0737 1.55264 9.85529V2.80792C1.55264 2.5895 1.63159 2.40266 1.78685 2.24739C1.94212 2.09213 2.12896 2.01318 2.34738 2.01318H4.49212C4.58422 2.01318 4.66054 2.04213 4.72106 2.10266C4.78159 2.16318 4.81054 2.2395 4.81054 2.3316C4.81054 2.42371 4.78159 2.50003 4.72106 2.56055C4.66054 2.62108 4.58422 2.65003 4.49212 2.65003H2.34738C2.30791 2.65003 2.2737 2.66582 2.23948 2.70003C2.20791 2.7316 2.18948 2.76845 2.18948 2.80792V9.85792C2.18948 9.89739 2.20527 9.9316 2.23948 9.96581C2.27106 9.99739 2.30791 10.0158 2.34738 10.0158H9.39738C9.43685 10.0158 9.47106 10 9.50527 9.96581C9.53685 9.93424 9.55527 9.89739 9.55527 9.85792V7.41581C9.55527 7.32371 9.58422 7.24739 9.64475 7.18687C9.70527 7.12634 9.78159 7.09739 9.8737 7.09739C9.9658 7.09739 10.0421 7.12634 10.1026 7.18687C10.1632 7.24739 10.1921 7.32371 10.1921 7.41581V9.85792C10.1921 10.0763 10.1132 10.2632 9.95791 10.4184C9.80264 10.5737 9.6158 10.6527 9.39738 10.6527H2.34738V10.65Z" fill="white"/>
<path d="M7.38949 4.9237C6.84212 4.9237 6.38423 4.73686 6.00791 4.36054C5.63423 3.98686 5.44739 3.5237 5.44739 2.97633C5.44739 2.42896 5.63423 1.96843 6.01055 1.59212C6.38686 1.2158 6.84739 1.02896 7.39212 1.02896C7.93686 1.02896 8.40002 1.2158 8.7737 1.59212C9.15002 1.96843 9.33686 2.42896 9.33686 2.97633C9.33686 3.19475 9.30528 3.40265 9.23949 3.60001C9.1737 3.79738 9.08423 3.98422 8.97107 4.15791L10.3553 5.54475C10.4158 5.60528 10.4474 5.67896 10.45 5.7658C10.45 5.85265 10.4211 5.92896 10.3553 5.99212C10.2895 6.05528 10.2158 6.08686 10.129 6.08686C10.0421 6.08686 9.96581 6.05528 9.90265 5.98949L8.48686 4.58159C8.31318 4.70265 8.14476 4.78949 7.9737 4.84212C7.80528 4.89475 7.61055 4.92107 7.39212 4.92107L7.38949 4.9237ZM7.39212 4.28422C7.76581 4.28422 8.07633 4.15791 8.32633 3.90791C8.57633 3.65791 8.70002 3.34738 8.70002 2.9737C8.70002 2.60001 8.57633 2.28949 8.32633 2.03949C8.07633 1.78949 7.76581 1.6658 7.39212 1.6658C7.02107 1.6658 6.71055 1.78949 6.46055 2.03949C6.21055 2.28949 6.08686 2.60001 6.08686 2.9737C6.08686 3.34738 6.21055 3.65528 6.46055 3.90791C6.71055 4.15791 7.02107 4.28422 7.39476 4.28422H7.39212Z" fill="white"/>
<path d="M8.02895 9.26581C7.9579 9.19476 7.92105 9.10528 7.92105 9.00265V7.77634C7.92105 7.67371 7.9579 7.58686 8.02895 7.51318C8.1 7.44213 8.18948 7.40528 8.29211 7.40528C8.39474 7.40528 8.48158 7.44213 8.55526 7.51318C8.62632 7.58423 8.66316 7.67371 8.66316 7.77634V9.00265C8.66316 9.10528 8.62632 9.19213 8.55526 9.26581C8.48421 9.33949 8.39474 9.3737 8.29211 9.3737C8.18948 9.3737 8.10263 9.33686 8.02895 9.26581ZM6.41842 9.26581C6.34737 9.19476 6.31053 9.10528 6.31053 9.00265V6.13423C6.31053 6.0316 6.34737 5.94476 6.41842 5.87107C6.48948 5.80002 6.57895 5.76318 6.68158 5.76318C6.78421 5.76318 6.87105 5.80002 6.94474 5.87107C7.01579 5.94213 7.05263 6.0316 7.05263 6.13423V9.00265C7.05263 9.10528 7.01579 9.19213 6.94474 9.26581C6.87369 9.33949 6.78421 9.3737 6.68158 9.3737C6.57895 9.3737 6.49211 9.33686 6.41842 9.26581ZM4.80263 9.26581C4.73158 9.19476 4.69474 9.10528 4.69474 9.00265V7.11844C4.69474 7.01581 4.73158 6.92897 4.80263 6.85528C4.87369 6.78423 4.96316 6.74739 5.06579 6.74739C5.16842 6.74739 5.25526 6.78423 5.32895 6.85528C5.4 6.92634 5.43684 7.01581 5.43684 7.11844V9.00265C5.43684 9.10528 5.4 9.19213 5.32895 9.26581C5.2579 9.33949 5.16842 9.3737 5.06579 9.3737C4.96316 9.3737 4.87632 9.33686 4.80263 9.26581ZM3.18684 9.26581C3.11579 9.19476 3.07895 9.10528 3.07895 9.00265V5.14739C3.07895 5.04476 3.11579 4.95792 3.18684 4.88423C3.2579 4.81318 3.34737 4.77634 3.45 4.77634C3.55263 4.77634 3.63948 4.81318 3.71316 4.88423C3.78421 4.95528 3.82105 5.04476 3.82105 5.14739V9.00265C3.82105 9.10528 3.78421 9.19213 3.71316 9.26581C3.64211 9.33686 3.55263 9.3737 3.45 9.3737C3.34737 9.3737 3.26053 9.33686 3.18684 9.26581Z" fill="white"/>
</svg>
