<svg width="18" height="18" viewBox="0 0 18 18" fill="none" xmlns="http://www.w3.org/2000/svg">
<path d="M3.52105 15.975C3.19342 15.975 2.91316 15.8566 2.68026 15.6237C2.44737 15.3908 2.32895 15.1106 2.32895 14.7829V4.21188C2.32895 3.88425 2.44737 3.60399 2.68026 3.37109C2.91316 3.1382 3.19342 3.01978 3.52105 3.01978H6.73816C6.87632 3.01978 6.99079 3.0632 7.08158 3.15399C7.17237 3.24478 7.21579 3.35925 7.21579 3.49741C7.21579 3.63556 7.17237 3.75004 7.08158 3.84083C6.99079 3.93162 6.87632 3.97504 6.73816 3.97504H3.52105C3.46184 3.97504 3.41053 3.99872 3.35921 4.05004C3.31184 4.09741 3.28421 4.15267 3.28421 4.21188V14.7869C3.28421 14.8461 3.3079 14.8974 3.35921 14.9487C3.40658 14.9961 3.46184 15.0237 3.52105 15.0237H14.0961C14.1553 15.0237 14.2066 15 14.2579 14.9487C14.3053 14.9014 14.3329 14.8461 14.3329 14.7869V11.1237C14.3329 10.9856 14.3763 10.8711 14.4671 10.7803C14.5579 10.6895 14.6724 10.6461 14.8105 10.6461C14.9487 10.6461 15.0632 10.6895 15.1539 10.7803C15.2447 10.8711 15.2882 10.9856 15.2882 11.1237V14.7869C15.2882 15.1145 15.1697 15.3948 14.9368 15.6277C14.7039 15.8606 14.4237 15.979 14.0961 15.979H3.52105V15.975Z" fill="white"/>
<path d="M11.0842 7.38556C10.2632 7.38556 9.57634 7.1053 9.01187 6.54083C8.45134 5.9803 8.17108 5.28556 8.17108 4.46451C8.17108 3.64346 8.45134 2.95267 9.01582 2.38819C9.58029 1.82372 10.2711 1.54346 11.0882 1.54346C11.9053 1.54346 12.6 1.82372 13.1606 2.38819C13.725 2.95267 14.0053 3.64346 14.0053 4.46451C14.0053 4.79214 13.9579 5.10398 13.8592 5.40004C13.7606 5.69609 13.6263 5.97635 13.4566 6.23688L15.5329 8.31714C15.6237 8.40793 15.6711 8.51846 15.675 8.64872C15.675 8.77898 15.6316 8.89346 15.5329 8.98819C15.4342 9.08293 15.3237 9.1303 15.1935 9.1303C15.0632 9.1303 14.9487 9.08293 14.854 8.98425L12.7303 6.87241C12.4698 7.05398 12.2171 7.18425 11.9606 7.26319C11.7079 7.34214 11.4158 7.38162 11.0882 7.38162L11.0842 7.38556ZM11.0882 6.42635C11.6487 6.42635 12.1145 6.23688 12.4895 5.86188C12.8645 5.48688 13.05 5.02109 13.05 4.46056C13.05 3.90004 12.8645 3.43425 12.4895 3.05925C12.1145 2.68425 11.6487 2.49872 11.0882 2.49872C10.5316 2.49872 10.0658 2.68425 9.69082 3.05925C9.31582 3.43425 9.13029 3.90004 9.13029 4.46056C9.13029 5.02109 9.31582 5.48293 9.69082 5.86188C10.0658 6.23688 10.5316 6.42635 11.0921 6.42635H11.0882Z" fill="white"/>
<path d="M12.0434 13.8988C11.9368 13.7922 11.8816 13.658 11.8816 13.504V11.6646C11.8816 11.5106 11.9368 11.3803 12.0434 11.2698C12.15 11.1632 12.2842 11.108 12.4381 11.108C12.5921 11.108 12.7224 11.1632 12.8329 11.2698C12.9395 11.3764 12.9947 11.5106 12.9947 11.6646V13.504C12.9947 13.658 12.9395 13.7882 12.8329 13.8988C12.7263 14.0093 12.5921 14.0606 12.4381 14.0606C12.2842 14.0606 12.1539 14.0053 12.0434 13.8988ZM9.62762 13.8988C9.52104 13.7922 9.46578 13.658 9.46578 13.504V9.20139C9.46578 9.04745 9.52104 8.91718 9.62762 8.80666C9.7342 8.70008 9.86841 8.64481 10.0224 8.64481C10.1763 8.64481 10.3066 8.70008 10.4171 8.80666C10.5237 8.91323 10.5789 9.04745 10.5789 9.20139V13.504C10.5789 13.658 10.5237 13.7882 10.4171 13.8988C10.3105 14.0093 10.1763 14.0606 10.0224 14.0606C9.86841 14.0606 9.73814 14.0053 9.62762 13.8988ZM7.20393 13.8988C7.09736 13.7922 7.04209 13.658 7.04209 13.504V10.6777C7.04209 10.5238 7.09736 10.3935 7.20393 10.283C7.31051 10.1764 7.44472 10.1211 7.59867 10.1211C7.75262 10.1211 7.88288 10.1764 7.99341 10.283C8.09999 10.3896 8.15525 10.5238 8.15525 10.6777V13.504C8.15525 13.658 8.09999 13.7882 7.99341 13.8988C7.88683 14.0093 7.75262 14.0606 7.59867 14.0606C7.44472 14.0606 7.31446 14.0053 7.20393 13.8988ZM4.78025 13.8988C4.67367 13.7922 4.61841 13.658 4.61841 13.504V7.72113C4.61841 7.56718 4.67367 7.43692 4.78025 7.32639C4.88683 7.21981 5.02104 7.16455 5.17499 7.16455C5.32893 7.16455 5.4592 7.21981 5.56972 7.32639C5.6763 7.43297 5.73157 7.56718 5.73157 7.72113V13.504C5.73157 13.658 5.6763 13.7882 5.56972 13.8988C5.46315 14.0053 5.32893 14.0606 5.17499 14.0606C5.02104 14.0606 4.89078 14.0053 4.78025 13.8988Z" fill="white"/>
</svg>
