<svg width="32" height="32" viewBox="0 0 32 32" fill="none" xmlns="http://www.w3.org/2000/svg">
<path d="M13.3123 21.3825C13.186 21.3825 13.0737 21.3544 12.9614 21.2912C12.8562 21.2281 12.7649 21.1439 12.7018 21.0316L10.8211 17.7965C10.7579 17.6842 10.7299 17.5649 10.7299 17.4456C10.7299 17.3263 10.7579 17.207 10.8211 17.0948L12.7018 13.8597C12.7649 13.7474 12.8562 13.6632 12.9614 13.6C13.0667 13.5369 13.186 13.5088 13.3123 13.5088H17.0456C17.172 13.5088 17.2842 13.5369 17.3965 13.6C17.5018 13.6632 17.593 13.7474 17.6562 13.8597L19.5369 17.0948C19.6 17.207 19.6281 17.3263 19.6281 17.4456C19.6281 17.5649 19.6 17.6842 19.5369 17.7965L17.6562 21.0316C17.593 21.1439 17.5018 21.2281 17.3965 21.2912C17.2913 21.3544 17.172 21.3825 17.0456 21.3825H13.3123ZM13.2983 20.8141H17.0527C17.0527 20.8141 17.0948 20.8141 17.1228 20.8C17.1439 20.786 17.1649 20.7719 17.179 20.7509L19.0386 17.5158C19.0386 17.5158 19.0597 17.4667 19.0597 17.4456C19.0597 17.4246 19.0597 17.3965 19.0386 17.3755L17.179 14.1404C17.179 14.1404 17.1439 14.0983 17.1228 14.0912C17.1018 14.0772 17.0807 14.0772 17.0527 14.0772H13.2983C13.2983 14.0772 13.2562 14.0772 13.2351 14.0912C13.2141 14.1053 13.2 14.1193 13.186 14.1404L11.3123 17.3755C11.3123 17.3755 11.2913 17.4246 11.2913 17.4456C11.2913 17.4667 11.2913 17.4948 11.3123 17.5158L13.186 20.7509C13.186 20.7509 13.2211 20.793 13.2351 20.8C13.2562 20.8141 13.2772 20.8141 13.2983 20.8141Z" fill="white"/>
<path d="M17.0457 21.8737H13.3123C13.1018 21.8737 12.9053 21.8175 12.7229 21.7193C12.5334 21.614 12.386 21.4666 12.2808 21.2772L10.4001 18.0421C10.2948 17.8526 10.2386 17.6491 10.2386 17.4456C10.2386 17.2421 10.2948 17.0386 10.4001 16.8491L12.2808 13.607C12.386 13.4175 12.5404 13.2701 12.7229 13.1649C12.9053 13.0596 13.1018 13.0105 13.3123 13.0105H17.0457C17.2562 13.0105 17.4527 13.0666 17.6351 13.1649C17.8246 13.2701 17.972 13.4175 18.0772 13.607L19.9579 16.8421C20.0632 17.0316 20.1193 17.2351 20.1193 17.4456C20.1193 17.6561 20.0632 17.8526 19.9579 18.0421L18.0772 21.2842C17.972 21.4737 17.8176 21.621 17.6351 21.7263C17.4527 21.8316 17.2562 21.8807 17.0457 21.8807V21.8737ZM13.5088 20.3228H16.8492L18.5053 17.4386L16.8492 14.5544H13.5088L11.8457 17.4386L13.5158 20.3228H13.5088Z" fill="white"/>
<path d="M15.179 25.4526C10.7579 25.4526 7.16492 21.8596 7.16492 17.4386C7.16492 13.0175 10.7579 9.42456 15.179 9.42456C19.6 9.42456 23.193 13.0175 23.193 17.4386C23.193 21.8596 19.6 25.4526 15.179 25.4526ZM15.179 10.9684C11.614 10.9684 8.70878 13.8737 8.70878 17.4386C8.70878 21.0035 11.614 23.9088 15.179 23.9088C18.7439 23.9088 21.6491 21.0035 21.6491 17.4386C21.6491 13.8737 18.7439 10.9684 15.179 10.9684Z" fill="white"/>
<path d="M15.179 10.9684C14.751 10.9684 14.4071 10.6245 14.4071 10.1964V7.08065C14.4071 6.65258 14.751 6.30872 15.179 6.30872C15.6071 6.30872 15.951 6.65258 15.951 7.08065V10.1964C15.951 10.6245 15.6071 10.9684 15.179 10.9684Z" fill="white"/>
<path d="M15.1791 7.3614C13.6984 7.3614 12.4913 6.15438 12.4913 4.67368C12.4913 3.19298 13.6984 1.98596 15.1791 1.98596C16.6598 1.98596 17.8668 3.19298 17.8668 4.67368C17.8668 6.15438 16.6598 7.3614 15.1791 7.3614ZM15.1791 3.5228C14.5475 3.5228 14.0352 4.03508 14.0352 4.66666C14.0352 5.29824 14.5475 5.81052 15.1791 5.81052C15.8106 5.81052 16.3229 5.29824 16.3229 4.66666C16.3229 4.03508 15.8106 3.5228 15.1791 3.5228Z" fill="white"/>
<path d="M22.1544 25.2491C21.958 25.2491 21.7615 25.1719 21.6071 25.0246L19.7194 23.1368C19.4176 22.8351 19.4176 22.3439 19.7194 22.0421C20.0211 21.7404 20.5123 21.7404 20.8141 22.0421L22.7018 23.9298C23.0036 24.2316 23.0036 24.7228 22.7018 25.0246C22.5544 25.1719 22.3509 25.2491 22.1544 25.2491Z" fill="white"/>
<path d="M23.8597 28.8772C23.1439 28.8772 22.4632 28.5965 21.958 28.0912C21.4527 27.5859 21.172 26.9052 21.172 26.1894C21.172 25.4737 21.4527 24.793 21.958 24.2877C22.9755 23.2702 24.7439 23.2702 25.7615 24.2877C26.2667 24.793 26.5474 25.4737 26.5474 26.1894C26.5474 26.9052 26.2667 27.5859 25.7615 28.0912C25.2562 28.5965 24.5755 28.8772 23.8597 28.8772ZM23.8597 25.0386C23.5509 25.0386 23.2632 25.1579 23.0527 25.3754C22.8352 25.593 22.7159 25.8807 22.7159 26.1894C22.7159 26.4982 22.8352 26.7859 23.0527 27.0035C23.4878 27.4386 24.2387 27.4386 24.6738 27.0035C24.8913 26.7859 25.0106 26.4982 25.0106 26.1894C25.0106 25.8807 24.8913 25.593 24.6738 25.3754C24.4562 25.1579 24.1685 25.0386 23.8597 25.0386Z" fill="white"/>
<path d="M25.8035 18.2105H22.4421C22.014 18.2105 21.6702 17.8666 21.6702 17.4386C21.6702 17.0105 22.014 16.6666 22.4421 16.6666H25.8035C26.2316 16.6666 26.5754 17.0105 26.5754 17.4386C26.5754 17.8666 26.2316 18.2105 25.8035 18.2105Z" fill="white"/>
<path d="M28.2386 20.428C26.5895 20.428 25.2491 19.0877 25.2491 17.4386C25.2491 15.7894 26.5895 14.4491 28.2386 14.4491C29.8877 14.4491 31.2281 15.7894 31.2281 17.4386C31.2281 19.0877 29.8877 20.428 28.2386 20.428ZM28.2386 15.9859C27.4386 15.9859 26.793 16.6386 26.793 17.4316C26.793 18.2245 27.4456 18.8772 28.2386 18.8772C29.0316 18.8772 29.6842 18.2245 29.6842 17.4316C29.6842 16.6386 29.0316 15.9859 28.2386 15.9859Z" fill="white"/>
<path d="M8.66666 14.8281C8.51227 14.8281 8.35789 14.786 8.22455 14.6878L5.2842 12.6246C4.93332 12.379 4.84911 11.8948 5.09473 11.5509C5.34034 11.2 5.82455 11.1158 6.16841 11.3615L9.10876 13.4246C9.45964 13.6702 9.54385 14.1544 9.29824 14.4983C9.15087 14.7088 8.90525 14.8281 8.66666 14.8281Z" fill="white"/>
<path d="M3.72637 13.579C3.11584 13.579 2.51935 13.3895 2.01408 13.0316C0.666716 12.0843 0.336891 10.2106 1.28426 8.86321C1.74742 8.21058 2.42812 7.77549 3.2211 7.63514C4.00707 7.50181 4.80005 7.67725 5.45268 8.13339C6.10531 8.59655 6.5404 9.27725 6.68075 10.0702C6.8211 10.8562 6.63865 11.6492 6.18251 12.3018C5.72637 12.9544 5.03865 13.3895 4.25268 13.5299C4.07724 13.558 3.9018 13.572 3.73338 13.572L3.72637 13.579ZM3.73338 9.1369C3.64917 9.1369 3.56496 9.14392 3.48075 9.15795C3.1018 9.22111 2.76496 9.43865 2.54742 9.75444C2.09128 10.4071 2.24566 11.3123 2.8983 11.7685C3.21408 11.993 3.60005 12.0772 3.979 12.0071C4.35794 11.9439 4.69479 11.7264 4.91233 11.4106C5.13689 11.0948 5.2211 10.7088 5.15794 10.3299C5.09479 9.95093 4.87724 9.61409 4.56145 9.39655C4.31584 9.22111 4.02812 9.12988 3.73338 9.12988V9.1369Z" fill="white"/>
<path d="M7.55091 25.7544C7.35442 25.7544 7.15792 25.6772 7.00354 25.5298C6.70178 25.2281 6.70178 24.7369 7.00354 24.4351L9.05266 22.386C9.35441 22.0842 9.84564 22.0842 10.1474 22.386C10.4492 22.6877 10.4492 23.179 10.1474 23.4807L8.09827 25.5298C7.95091 25.6772 7.7474 25.7544 7.55091 25.7544Z" fill="white"/>
<path d="M5.83167 29.6912C5.06676 29.6912 4.30184 29.3965 3.71939 28.814C2.55448 27.6491 2.55448 25.7473 3.71939 24.5824C4.8843 23.4175 6.78605 23.4175 7.95097 24.5824C9.11588 25.7473 9.11588 27.6491 7.95097 28.814C7.36851 29.3965 6.6036 29.6912 5.83869 29.6912H5.83167ZM5.83167 25.2561C5.45974 25.2561 5.08781 25.3965 4.80711 25.6772C4.2457 26.2386 4.2457 27.1579 4.80711 27.7263C5.36851 28.2877 6.28781 28.2947 6.85623 27.7263C7.41763 27.1649 7.41763 26.2456 6.85623 25.6772C6.57553 25.3965 6.2036 25.2561 5.83167 25.2561Z" fill="white"/>
</svg>
