<svg width="32" height="32" viewBox="0 0 32 32" fill="none" xmlns="http://www.w3.org/2000/svg">
<path d="M16.1123 24.779C15.9158 24.779 15.7474 24.7088 15.6141 24.5755C15.4807 24.4422 15.4105 24.2738 15.4105 24.0773V19.558C14.7088 19.5439 14.0351 19.4036 13.4035 19.1369C12.7439 18.8562 12.1544 18.4562 11.6421 17.9439C11.1369 17.4246 10.7439 16.8211 10.4772 16.1545C10.2176 15.4808 10.0842 14.772 10.0842 14.0422C10.0842 13.7334 10.1123 13.186 10.3018 12.9685C10.5614 12.6667 11.2141 12.7088 11.4035 12.7229H11.4105C12.0983 12.7229 12.793 12.8632 13.4526 13.1439C14.1123 13.4246 14.7088 13.8246 15.2211 14.3439C15.6211 14.7439 15.9439 15.2071 16.1965 15.7053C16.3509 16.0211 16.4842 16.3509 16.5755 16.6878C16.6948 16.5334 16.8281 16.386 16.9684 16.2387C17.4877 15.7194 18.0772 15.3194 18.7439 15.0387C19.4035 14.758 20.1123 14.6176 20.8421 14.6176C21.1509 14.6036 21.7123 14.6316 21.9228 14.8632C22.0912 15.0527 22.1334 15.5509 22.1404 15.9299C22.1404 16.6667 22 17.3755 21.7263 18.0492C21.4527 18.7229 21.0526 19.3264 20.5404 19.8387C20.0211 20.358 19.4246 20.758 18.7719 21.0246C18.1474 21.2843 17.4877 21.4176 16.807 21.4316V24.0702C16.807 24.2667 16.7369 24.4352 16.6035 24.5685C16.4702 24.7018 16.2948 24.772 16.1053 24.772L16.1123 24.779ZM20.7369 16.0281C20.2386 16.0562 19.7684 16.1615 19.3334 16.3439C18.8141 16.5545 18.3649 16.8562 17.993 17.2352C17.5719 17.6632 17.2702 18.1334 17.0948 18.6387C16.9404 19.0667 16.8491 19.5369 16.8281 20.0281C17.3193 20.0001 17.7895 19.9018 18.2246 19.7264C18.7369 19.5229 19.186 19.2281 19.5579 18.8422C19.9369 18.4632 20.2316 18.0001 20.4351 17.4808C20.6105 17.0316 20.7088 16.5474 20.7369 16.0352V16.0281ZM11.5018 14.1334C11.5298 14.6457 11.6281 15.1299 11.7965 15.579C11.993 16.1053 12.2877 16.5615 12.6597 16.9474C13.0737 17.3825 13.5298 17.6913 14.0281 17.8667C14.4562 18.0211 14.9263 18.1123 15.4176 18.1334C15.3895 17.6352 15.2842 17.158 15.1088 16.7159C14.8983 16.1966 14.6035 15.7334 14.2246 15.3545C13.8526 14.9685 13.3965 14.6667 12.8842 14.4562C12.4491 14.2738 11.986 14.1685 11.4948 14.1404L11.5018 14.1334Z" fill="white"/>
<path d="M26.2668 27.1158C24.6527 27.1158 23.3405 25.8035 23.3405 24.1895C23.3405 22.5755 24.6527 21.2632 26.2668 21.2632C27.8808 21.2632 29.1931 22.5755 29.1931 24.1895C29.1931 25.8035 27.8808 27.1158 26.2668 27.1158ZM26.2668 22.807C25.5019 22.807 24.8843 23.4246 24.8843 24.1895C24.8843 24.9544 25.5019 25.572 26.2668 25.572C27.0317 25.572 27.6492 24.9544 27.6492 24.1895C27.6492 23.4246 27.0317 22.807 26.2668 22.807Z" fill="white"/>
<path fill-rule="evenodd" clip-rule="evenodd" d="M15.9229 30.0422C8.24568 30.0422 2.00708 23.7965 2.00708 16.1264C2.00708 8.45619 8.24568 2.21057 15.9229 2.21057C23.6001 2.21057 29.8387 8.45619 29.8387 16.1264C29.8387 18.3106 29.3322 20.3793 28.4306 22.2211C28.0787 21.8347 27.625 21.5425 27.1122 21.3876C27.866 19.7901 28.2878 18.0065 28.2878 16.1264C28.2878 9.30531 22.7439 3.75443 15.9229 3.75443V3.74741C9.0948 3.75443 3.54392 9.30531 3.54392 16.1264C3.54392 22.9474 9.0948 28.4983 15.9159 28.4983C18.8882 28.4983 21.6194 27.4442 23.7551 25.6904C24.0261 26.1422 24.4155 26.5152 24.8801 26.7662C22.4575 28.8092 19.3308 30.0422 15.9229 30.0422Z" fill="white"/>
<path d="M10.2035 25.1088C8.70879 25.1088 7.49475 23.8948 7.49475 22.4001C7.49475 20.9053 8.70879 19.6913 10.2035 19.6913C11.6983 19.6913 12.9123 20.9053 12.9123 22.4001C12.9123 23.8948 11.6983 25.1088 10.2035 25.1088ZM10.2035 21.2281C9.55791 21.2281 9.03861 21.7544 9.03861 22.393C9.03861 23.0316 9.56493 23.5579 10.2035 23.5579C10.8421 23.5579 11.3684 23.0316 11.3684 22.393C11.3684 21.7544 10.8421 21.2281 10.2035 21.2281Z" fill="white"/>
<path d="M18.7228 11.7825C17.0035 11.7825 15.6071 10.386 15.6071 8.66669C15.6071 6.94739 17.0035 5.5509 18.7228 5.5509C20.4421 5.5509 21.8386 6.94739 21.8386 8.66669C21.8386 10.386 20.4421 11.7825 18.7228 11.7825ZM18.7228 7.08775C17.8527 7.08775 17.1509 7.79652 17.1509 8.65968C17.1509 9.52283 17.8597 10.2316 18.7228 10.2316C19.586 10.2316 20.2948 9.52283 20.2948 8.65968C20.2948 7.79652 19.586 7.08775 18.7228 7.08775Z" fill="white"/>
<path fill-rule="evenodd" clip-rule="evenodd" d="M21.354 10.3352C22.8996 11.7856 23.8668 13.8456 23.8668 16.1264C23.8668 20.5053 20.3018 24.0703 15.9229 24.0703C14.7852 24.0703 13.7024 23.8296 12.7228 23.3966C12.5221 23.9028 12.1732 24.3344 11.7297 24.6377C12.9945 25.2627 14.4181 25.6141 15.9229 25.6141C21.158 25.6141 25.4106 21.3545 25.4106 16.1264C25.4106 13.1326 24.0139 10.4564 21.8383 8.71578C21.8291 9.31074 21.6527 9.86553 21.354 10.3352ZM16.3503 6.6482C16.2086 6.64187 16.0661 6.63867 15.9229 6.63867C10.6948 6.63867 6.43518 10.8913 6.43518 16.1264C6.43518 17.9433 6.94744 19.6419 7.83525 21.0855C8.09797 20.6136 8.4976 20.2282 8.98024 19.9832C8.34264 18.8403 7.97904 17.5249 7.97904 16.1264C7.97904 11.8408 11.3935 8.33497 15.6439 8.18737C15.7339 7.60573 15.9851 7.07695 16.3503 6.6482Z" fill="white"/>
</svg>
