<svg width="18" height="18" viewBox="0 0 18 18" fill="none" xmlns="http://www.w3.org/2000/svg">
<path d="M15.407 2.61547C15.1634 2.37182 14.8729 2.25 14.5261 2.25H3.49636C3.14963 2.25 2.85912 2.37182 2.61547 2.61547C2.37182 2.85912 2.25 3.14963 2.25 3.49636V14.5261C2.25 14.8635 2.37182 15.1634 2.61547 15.407C2.85912 15.6507 3.14963 15.7725 3.49636 15.7725H7.94763C8.0882 15.7725 8.21002 15.7256 8.30373 15.6319C8.39744 15.5382 8.4443 15.4164 8.4443 15.2758C8.4443 15.1353 8.39744 15.0134 8.30373 14.9197C8.21002 14.826 8.0882 14.7792 7.94763 14.7792H3.49636C3.43076 14.7792 3.37453 14.751 3.32768 14.7042C3.28082 14.6573 3.25271 14.6011 3.25271 14.5355V3.49636C3.25271 3.43076 3.28082 3.37453 3.32768 3.32768C3.37453 3.28082 3.43076 3.25271 3.49636 3.25271H14.5261C14.5917 3.25271 14.648 3.28082 14.6948 3.32768C14.7417 3.37453 14.7698 3.43076 14.7698 3.49636V14.5261C14.7698 14.5917 14.7417 14.6386 14.6948 14.6948C14.648 14.751 14.5917 14.7698 14.5261 14.7698H13.2282H11.9303C11.7898 14.7698 11.668 14.8166 11.5742 14.9104C11.4805 15.0041 11.4337 15.1259 11.4337 15.2665C11.4337 15.407 11.4805 15.5289 11.5742 15.6226C11.668 15.7163 11.7898 15.7631 11.9303 15.7631H14.5261C14.8635 15.7631 15.1634 15.6413 15.407 15.3977C15.6507 15.154 15.7725 14.8635 15.7725 14.5168V3.49636C15.7725 3.159 15.6507 2.85912 15.407 2.61547Z" fill="white"/>
<path d="M8.71595 9.53137H3.13077C2.84027 9.53137 2.60599 9.2971 2.60599 9.00659C2.60599 8.71609 2.84027 8.48181 3.13077 8.48181H8.71595C9.00645 8.48181 9.24073 8.71609 9.24073 9.00659C9.24073 9.2971 9.00645 9.53137 8.71595 9.53137Z" fill="white"/>
<path d="M15.2009 9.37207H11.9585C11.668 9.37207 11.4337 9.1378 11.4337 8.84729C11.4337 8.55679 11.668 8.32251 11.9585 8.32251H15.2009C15.4914 8.32251 15.7257 8.55679 15.7257 8.84729C15.7257 9.1378 15.4914 9.37207 15.2009 9.37207Z" fill="white"/>
<path d="M9.00647 5.36118C8.71597 5.36118 8.48169 5.1269 8.48169 4.8364V3.00903C8.48169 2.71853 8.71597 2.48425 9.00647 2.48425C9.29698 2.48425 9.53125 2.71853 9.53125 3.00903V4.8364C9.53125 5.1269 9.29698 5.36118 9.00647 5.36118Z" fill="white"/>
<path d="M9.00647 11.1712C8.71597 11.1712 8.48169 10.9369 8.48169 10.6464V7.37586C8.48169 7.08535 8.71597 6.85107 9.00647 6.85107C9.29698 6.85107 9.53125 7.08535 9.53125 7.37586V10.6464C9.53125 10.9369 9.29698 11.1712 9.00647 11.1712Z" fill="white"/>
<path d="M8.06011 15.6976C7.92891 15.6976 7.78834 15.6507 7.68526 15.5476C7.4791 15.3415 7.4791 15.0135 7.68526 14.8073L10.4123 12.0897C10.6184 11.8835 10.9464 11.8835 11.1526 12.0897C11.3587 12.2958 11.3587 12.6238 11.1526 12.83L8.42558 15.5476C8.3225 15.6507 8.1913 15.6976 8.05074 15.6976H8.06011Z" fill="white"/>
</svg>
