<svg width="32" height="32" viewBox="0 0 32 32" fill="none" xmlns="http://www.w3.org/2000/svg">
<path d="M18.9685 26.6806H6.18254C3.15096 26.6806 0.680786 24.2105 0.680786 21.1789C0.680786 18.3087 2.91938 15.8947 5.78254 15.6912L5.88079 17.0947C3.74745 17.2491 2.08429 19.0455 2.08429 21.1789C2.08429 23.4385 3.92289 25.2771 6.18254 25.2771H18.9685V26.6806Z" fill="white"/>
<path d="M25.6703 26.6806H17.3124V25.2771H25.6703C27.9299 25.2771 29.7685 23.4385 29.7685 21.1789C29.7685 19.0385 28.0983 17.242 25.972 17.0947L26.0703 15.6912C28.9334 15.8947 31.172 18.3087 31.172 21.1789C31.172 24.2105 28.7019 26.6806 25.6703 26.6806Z" fill="white"/>
<path d="M14.3861 15.6771H9.81067V17.0806H14.3861V15.6771Z" fill="white"/>
<path d="M22.4913 15.6771H17.8597V17.0806H22.4913V15.6771Z" fill="white"/>
<path d="M7.7194 23.6632C6.56853 23.6632 5.62817 22.7298 5.62817 21.5719C5.62817 20.6105 6.89835 19.0105 7.28431 18.5474C7.38256 18.4281 7.54396 18.3579 7.71238 18.3579C7.88782 18.3579 8.04221 18.4281 8.14045 18.5474C8.52642 19.0105 9.7966 20.6105 9.7966 21.5719C9.7966 22.1263 9.57905 22.6526 9.18607 23.0456C8.79309 23.4386 8.26677 23.6562 7.71238 23.6562L7.7194 23.6632ZM7.7194 19.8176C7.12993 20.6105 6.75098 21.2983 6.75098 21.579C6.75098 22.1123 7.18607 22.5474 7.7194 22.5474C8.25274 22.5474 8.68782 22.1123 8.68782 21.579C8.68782 21.2983 8.30888 20.6105 7.7194 19.8176Z" fill="white"/>
<path d="M9.45262 18.2666C9.10174 18.2666 8.81402 17.9789 8.81402 17.628V15.214H6.63858V17.628C6.63858 17.9789 6.35086 18.2666 5.99297 18.2666C5.63507 18.2666 5.35437 17.9789 5.35437 17.628V14.5754C5.35437 14.2245 5.64209 13.9368 5.99297 13.9368H9.45262C9.80349 13.9368 10.0982 14.2245 10.0982 14.5754V17.628C10.0982 17.9789 9.81051 18.2666 9.45262 18.2666Z" fill="white"/>
<path d="M7.81759 14.7649C7.6632 14.7649 7.53689 14.7158 7.43162 14.6175C7.32636 14.5122 7.27724 14.3859 7.27022 14.2386L7.24215 12.1193C6.77899 12.1193 6.30882 12.028 5.84566 11.8386C5.36846 11.6491 4.93338 11.3614 4.54741 10.9894C4.17548 10.6175 3.88075 10.1894 3.67022 9.69821C3.45969 9.214 3.35443 8.6947 3.34741 8.16137C3.34741 7.92979 3.36846 7.52277 3.5018 7.36839C3.64215 7.20698 3.98601 7.1719 4.25268 7.1719H4.35092C4.8632 7.1719 5.36145 7.27014 5.82461 7.45962C6.30882 7.65611 6.7439 7.94383 7.12285 8.31576C7.21408 8.40699 7.29829 8.49821 7.37548 8.59646C7.43864 8.3719 7.52285 8.14734 7.62811 7.92979C7.80355 7.56488 8.04215 7.22804 8.32285 6.9333C8.69478 6.55435 9.12285 6.25962 9.60004 6.04909C10.0772 5.83856 10.5755 5.72628 11.0878 5.71927C11.2632 5.69821 11.7123 5.68418 11.9018 5.8947C12.0492 6.05611 12.0772 6.45611 12.0772 6.68769C12.0772 7.22102 11.993 7.74032 11.8106 8.22453C11.6211 8.71576 11.3474 9.15786 10.9825 9.53681C10.6176 9.91576 10.1895 10.2105 9.71934 10.421C9.27022 10.6175 8.79303 10.7228 8.29478 10.7438L8.33689 14.2175C8.33689 14.3649 8.28776 14.4912 8.18952 14.5965C8.09127 14.7017 7.95794 14.7579 7.81057 14.7579L7.81759 14.7649ZM4.65969 9.24909C4.80706 9.62102 5.0246 9.94383 5.29829 10.2175C5.57197 10.4912 5.89478 10.7017 6.25969 10.8421C6.56145 10.9614 6.89127 11.0245 7.22811 11.0456C7.20706 10.7017 7.13689 10.3789 7.02461 10.0842C6.89127 9.7333 6.67373 9.39646 6.37197 9.0947C6.10531 8.82804 5.77548 8.61751 5.40355 8.47014C5.1018 8.35084 4.77197 8.28067 4.42811 8.25962C4.45618 8.61049 4.53338 8.94734 4.65268 9.25611L4.65969 9.24909ZM10.0562 7.03155C9.69127 7.18593 9.37548 7.41049 9.10882 7.68418C8.84215 7.96488 8.63162 8.2947 8.49127 8.66663C8.37197 8.97541 8.3018 9.30523 8.28776 9.64909C8.63162 9.62804 8.95443 9.55786 9.24917 9.44558C9.60004 9.31225 9.92285 9.08769 10.2176 8.77892C10.4843 8.50523 10.6878 8.16839 10.8211 7.79646C10.9334 7.48067 11.0036 7.14383 11.0176 6.79295C10.6807 6.82102 10.3579 6.89821 10.0632 7.02453L10.0562 7.03155Z" fill="white"/>
<path d="M16.0562 23.6632C14.9053 23.6632 13.965 22.7298 13.965 21.5719C13.965 20.6105 15.2351 19.0105 15.6211 18.5474C15.7194 18.4281 15.8808 18.3579 16.0492 18.3579C16.2246 18.3579 16.379 18.4281 16.4772 18.5474C16.8632 19.0105 18.1334 20.6105 18.1334 21.5719C18.1334 22.1263 17.9158 22.6526 17.5229 23.0456C17.1299 23.4386 16.6036 23.6562 16.0492 23.6562L16.0562 23.6632ZM16.0562 19.8176C15.4667 20.6105 15.0878 21.2983 15.0878 21.579C15.0878 22.1123 15.5229 22.5474 16.0562 22.5474C16.5895 22.5474 17.0246 22.1123 17.0246 21.579C17.0246 21.2983 16.6457 20.6105 16.0562 19.8176Z" fill="white"/>
<path d="M17.7824 18.2666C17.4316 18.2666 17.1439 17.9789 17.1439 17.628V15.214H14.9684V17.628C14.9684 17.9789 14.6807 18.2666 14.3228 18.2666C13.9649 18.2666 13.6842 17.9789 13.6842 17.628V14.5754C13.6842 14.2245 13.9719 13.9368 14.3228 13.9368H17.7824C18.1333 13.9368 18.4281 14.2245 18.4281 14.5754V17.628C18.4281 17.9789 18.1403 18.2666 17.7824 18.2666Z" fill="white"/>
<path d="M16.1474 14.7649C15.993 14.7649 15.8667 14.7158 15.7615 14.6175C15.6562 14.5122 15.6071 14.3859 15.6001 14.2386L15.572 12.1193C15.1088 12.1193 14.6386 12.028 14.1755 11.8386C13.6983 11.6491 13.2632 11.3614 12.8772 10.9894C12.5053 10.6175 12.2106 10.1894 12.0001 9.69821C11.7895 9.214 11.6843 8.6947 11.6772 8.16137C11.6772 7.92979 11.6983 7.52277 11.8316 7.36839C11.972 7.20698 12.3158 7.1719 12.5825 7.1719H12.6808C13.193 7.1719 13.6913 7.27014 14.1544 7.45962C14.6386 7.65611 15.0737 7.94383 15.4527 8.31576C15.5439 8.40699 15.6281 8.49821 15.7053 8.59646C15.7685 8.3719 15.8527 8.14734 15.9579 7.92979C16.1334 7.56488 16.372 7.22804 16.6527 6.9333C17.0246 6.55435 17.4527 6.25962 17.9299 6.04909C18.4071 5.83856 18.9053 5.72628 19.4176 5.71927C19.593 5.69821 20.0422 5.68418 20.2316 5.8947C20.379 6.05611 20.4071 6.45611 20.4071 6.68769C20.4071 7.22102 20.3229 7.74032 20.1404 8.22453C19.9509 8.71576 19.6772 9.15786 19.3123 9.53681C18.9474 9.91576 18.5194 10.2105 18.0492 10.421C17.6001 10.6175 17.1229 10.7228 16.6246 10.7438L16.6667 14.2175C16.6667 14.3649 16.6176 14.4912 16.5194 14.5965C16.4211 14.7017 16.2878 14.7579 16.1404 14.7579L16.1474 14.7649ZM12.9895 9.24909C13.1369 9.62102 13.3544 9.94383 13.6281 10.2175C13.9018 10.4912 14.2246 10.7017 14.5895 10.8421C14.8913 10.9614 15.2211 11.0245 15.5579 11.0456C15.5369 10.7017 15.4667 10.3789 15.3544 10.0842C15.2211 9.7333 15.0036 9.39646 14.7018 9.0947C14.4351 8.82804 14.1053 8.61751 13.7334 8.47014C13.4316 8.35084 13.1018 8.28067 12.7579 8.25962C12.786 8.61049 12.8632 8.94734 12.9825 9.25611L12.9895 9.24909ZM18.386 7.03155C18.0211 7.18593 17.7053 7.41049 17.4386 7.68418C17.172 7.96488 16.9615 8.2947 16.8211 8.66663C16.7018 8.97541 16.6316 9.30523 16.6176 9.64909C16.9615 9.62804 17.2843 9.55786 17.579 9.44558C17.9299 9.31225 18.2527 9.08769 18.5474 8.77892C18.8141 8.50523 19.0176 8.16839 19.1509 7.79646C19.2632 7.48067 19.3334 7.14383 19.3474 6.79295C19.0106 6.82102 18.6878 6.89821 18.393 7.02453L18.386 7.03155Z" fill="white"/>
<path d="M24.386 23.6632C23.2352 23.6632 22.2948 22.7298 22.2948 21.5719C22.2948 20.6105 23.565 19.0105 23.9509 18.5474C24.0492 18.4281 24.2106 18.3579 24.379 18.3579C24.5544 18.3579 24.7088 18.4281 24.8071 18.5474C25.193 19.0105 26.4632 20.6105 26.4632 21.5719C26.4632 22.1263 26.2457 22.6526 25.8527 23.0456C25.4597 23.4386 24.9334 23.6562 24.379 23.6562L24.386 23.6632ZM24.386 19.8176C23.7966 20.6105 23.4176 21.2983 23.4176 21.579C23.4176 22.1123 23.8527 22.5474 24.386 22.5474C24.9194 22.5474 25.3544 22.1123 25.3544 21.579C25.3544 21.2983 24.9755 20.6105 24.386 19.8176Z" fill="white"/>
<path d="M26.1123 18.2666C25.7614 18.2666 25.4737 17.9789 25.4737 17.628V15.214H23.2982V17.628C23.2982 17.9789 23.0105 18.2666 22.6526 18.2666C22.2947 18.2666 22.014 17.9789 22.014 17.628V14.5754C22.014 14.2245 22.3018 13.9368 22.6526 13.9368H26.1123C26.4632 13.9368 26.7579 14.2245 26.7579 14.5754V17.628C26.7579 17.9789 26.4702 18.2666 26.1123 18.2666Z" fill="white"/>
<path d="M24.4773 14.7649C24.3229 14.7649 24.1966 14.7158 24.0913 14.6175C23.986 14.5122 23.9369 14.3859 23.9299 14.2386L23.9018 12.1193C23.4387 12.1193 22.9685 12.028 22.5053 11.8386C22.0281 11.6491 21.593 11.3614 21.2071 10.9894C20.8352 10.6175 20.5404 10.1894 20.3299 9.69821C20.1194 9.214 20.0141 8.6947 20.0071 8.16137C20.0071 7.92979 20.0281 7.52277 20.1615 7.36839C20.3018 7.20698 20.6457 7.1719 20.9123 7.1719H21.0106C21.5229 7.1719 22.0211 7.27014 22.4843 7.45962C22.9685 7.65611 23.4036 7.94383 23.7825 8.31576C23.8737 8.40699 23.958 8.49821 24.0352 8.59646C24.0983 8.3719 24.1825 8.14734 24.2878 7.92979C24.4632 7.56488 24.7018 7.22804 24.9825 6.9333C25.3544 6.55435 25.7825 6.25962 26.2597 6.04909C26.7369 5.83856 27.2351 5.72628 27.7474 5.71927C27.9229 5.69821 28.372 5.68418 28.5615 5.8947C28.7088 6.05611 28.7369 6.45611 28.7369 6.68769C28.7369 7.22102 28.6527 7.74032 28.4702 8.22453C28.2808 8.71576 28.0071 9.15786 27.6422 9.53681C27.2773 9.91576 26.8492 10.2105 26.379 10.421C25.9299 10.6175 25.4527 10.7228 24.9544 10.7438L24.9966 14.2175C24.9966 14.3649 24.9474 14.4912 24.8492 14.5965C24.7509 14.7017 24.6176 14.7579 24.4702 14.7579L24.4773 14.7649ZM21.3194 9.24909C21.4667 9.62102 21.6843 9.94383 21.958 10.2175C22.2316 10.4912 22.5544 10.7017 22.9194 10.8421C23.2211 10.9614 23.5509 11.0245 23.8878 11.0456C23.8667 10.7017 23.7966 10.3789 23.6843 10.0842C23.5509 9.7333 23.3334 9.39646 23.0316 9.0947C22.765 8.82804 22.4352 8.61751 22.0632 8.47014C21.7615 8.35084 21.4316 8.28067 21.0878 8.25962C21.1159 8.61049 21.193 8.94734 21.3123 9.25611L21.3194 9.24909ZM26.7159 7.03155C26.3509 7.18593 26.0352 7.41049 25.7685 7.68418C25.5018 7.96488 25.2913 8.2947 25.1509 8.66663C25.0316 8.97541 24.9615 9.30523 24.9474 9.64909C25.2913 9.62804 25.6141 9.55786 25.9088 9.44558C26.2597 9.31225 26.5825 9.08769 26.8773 8.77892C27.1439 8.50523 27.3474 8.16839 27.4808 7.79646C27.593 7.48067 27.6632 7.14383 27.6773 6.79295C27.3404 6.82102 27.0176 6.89821 26.7229 7.02453L26.7159 7.03155Z" fill="white"/>
</svg>
