<svg width="459" height="101" viewBox="0 0 459 101" fill="none" xmlns="http://www.w3.org/2000/svg">
<path d="M76.2186 33.9442L43.7264 57.2066L11.2483 33.9442V65.2985C11.2483 66.7685 11.8265 68.1671 12.856 69.2089C13.8855 70.2507 15.2676 70.8359 16.7201 70.8359V45.2043L43.7405 64.4565L70.7468 45.2186L76.2327 41.294V33.9442H76.2186Z" fill="black"/>
<path d="M76.2186 44.6906L70.7468 48.601V54.5379H67.3904C65.9379 54.5379 64.5558 55.123 63.5263 56.1648C62.4968 57.2066 61.9186 58.6052 61.9186 60.0752H70.7468V70.8359C72.1994 70.8359 73.5814 70.2507 74.6109 69.2089C75.6404 68.1671 76.2045 66.7685 76.2186 65.2985V60.0752H81.6339L81.6198 72.2773L43.6982 94.398L5.80478 72.2202L5.81888 39.7241C4.36632 39.7241 2.98428 40.3092 1.9548 41.3368C0.939415 42.3786 0.361213 43.7772 0.361213 45.2472L0.333008 75.417L43.6841 100.777L87.0775 75.4741L87.1057 54.5236H76.2186V44.6906Z" fill="black"/>
<path d="M0.333008 26.0378C0.68557 26.6657 1.16506 27.2223 1.74326 27.6647C2.30736 28.1072 2.95607 28.4354 3.6612 28.6209C4.35222 28.8065 5.07145 28.8635 5.79068 28.7636C6.4958 28.6637 7.18682 28.4354 7.80733 28.0643L43.7546 7.17095L81.6339 29.3488L81.6198 48.0015C83.0724 48.0015 84.4544 47.4164 85.4839 46.3889C86.5134 45.3471 87.0916 43.9485 87.0916 42.4785L87.1057 26.1662L43.7687 0.777344L0.333008 26.0378Z" fill="black"/>
<path d="M43.7264 51.3553L46.4482 49.4002V31.4752H65.4161C66.8686 31.4752 68.2507 30.8901 69.2802 29.8483C70.3096 28.8065 70.8878 27.4079 70.8878 25.9379H16.6073C16.6073 27.4079 17.1855 28.8207 18.215 29.8483C19.2445 30.8901 20.6265 31.4752 22.0791 31.4752H41.0046V49.4002L43.7264 51.3553Z" fill="black"/>
<path d="M46.4623 85.25V68.5096L43.7264 70.4363L40.9905 68.5096V85.25L43.7123 86.6201L46.4623 85.25Z" fill="black"/>
<path d="M81.6339 60.0752L81.6198 72.2915L43.6982 94.398L5.80478 72.2202L5.81888 39.7241C4.36632 39.7241 2.98428 40.3092 1.9548 41.3511C0.939415 42.3786 0.361213 43.7772 0.361213 45.2472L0.333008 75.417L43.6841 100.777L87.0775 75.4741L87.1057 54.5236L81.6339 60.0752Z" fill="black"/>
<path d="M43.6982 94.398L5.80478 72.2202L5.81888 39.7241C4.36632 39.7241 2.98428 40.3092 1.9548 41.3368C0.939415 42.3786 0.361213 43.7772 0.361213 45.2472L0.333008 75.417L43.6841 100.777L43.6982 94.398Z" fill="black"/>
<path d="M70.7468 71.0071C72.1994 71.0071 73.5814 70.422 74.6109 69.3802C75.6404 68.3384 76.2186 66.9398 76.2186 65.4698V44.8476L70.7468 48.7722V71.0071Z" fill="black"/>
<path d="M129.798 36.4698H116.03C116.03 35.0659 116.3 33.6813 116.84 32.3928C117.38 31.1044 118.171 29.9121 119.154 28.9313C120.157 27.9313 121.333 27.1621 122.625 26.6236C123.917 26.0851 125.325 25.8159 126.713 25.8159H154.634V36.489H140.867V73.8736H129.779V36.4698H129.798Z" fill="black"/>
<path d="M155.425 38.758H163.099L164.642 42.5657C165.278 41.7773 166.03 41.0849 166.86 40.508C168.634 39.1042 170.812 38.3542 173.069 38.3734C173.821 38.3926 174.553 38.4696 175.286 38.6042L176.115 38.758V49.4311L175.055 49.0465C174.168 48.7773 173.242 48.6426 172.297 48.6619C168.402 48.6619 165.799 51.3349 165.799 55.9119V73.8349H155.425V38.758Z" fill="black"/>
<path d="M197.886 47.5272C193.605 47.5272 190.231 50.8926 190.231 56.2965C190.231 61.7195 193.586 65.0657 197.886 65.0657C202.186 65.0657 205.541 61.7195 205.541 56.2965C205.541 50.8734 202.148 47.5272 197.886 47.5272ZM197.886 37.9888C207.817 37.9888 215.858 45.9888 215.858 56.2965C215.858 66.5849 207.817 74.6042 197.886 74.6042C187.936 74.6042 179.876 66.5849 179.876 56.2965C179.876 45.9888 187.936 37.9888 197.886 37.9888Z" fill="black"/>
<path d="M232.287 25.7773V73.835H221.951V36.085C221.951 33.3543 223.031 30.7389 224.979 28.7966C226.926 26.8735 229.549 25.7773 232.287 25.7773Z" fill="black"/>
<path d="M240.694 25.7773H250.625L266.302 59.7196L281.979 25.7773H291.909V62.7581C291.909 65.7004 290.733 68.5081 288.67 70.585C286.587 72.662 283.772 73.835 280.822 73.835V49.8158L269.734 73.835H262.85L251.762 49.8158V73.835C248.812 73.835 245.997 72.662 243.914 70.585C241.832 68.5081 240.675 65.7004 240.675 62.7581V25.7773H240.694Z" fill="#CF2125"/>
<path d="M319.85 58.5656C310.98 58.5656 309.148 60.4694 309.148 63.1425C309.148 65.0464 310.671 66.5656 313.352 66.5656C317.247 66.5656 319.85 63.9694 319.85 60.0848V58.5656ZM321.007 70.3925C320.101 71.1233 319.137 71.7771 318.095 72.2963C315.82 73.5463 313.275 74.2002 310.671 74.2002C303.016 74.2002 298.812 70.0848 298.812 64.2963C298.812 57.354 303.787 52.4694 319.85 52.4694C319.85 49.0464 317.941 47.1233 315.261 47.1233C314.547 47.104 313.834 47.2579 313.197 47.5656C312.561 47.8733 311.983 48.3156 311.539 48.8733C311.153 49.3733 310.864 49.9502 310.71 50.5464L300.374 49.7771C301.628 42.8348 306.41 37.9502 315.666 37.9502C324.073 37.9502 330.205 44.0464 330.205 52.4502V73.8156H322.55L321.007 70.3925Z" fill="black"/>
<path d="M345.862 62.3926C346.248 64.758 347.771 66.2195 350.451 66.2195C353.132 66.2195 354.655 64.6811 354.655 63.1618C354.655 59.4503 336.683 61.258 336.683 48.6618C336.683 42.9503 341.736 37.9888 350.066 37.9888C359.244 37.9888 363.834 42.5657 364.971 48.6618L355.041 49.4311C354.79 48.5272 354.25 47.7195 353.479 47.1811C352.707 46.6234 351.782 46.3542 350.837 46.3926C348.465 46.3926 347.385 47.5272 347.385 49.0657C347.385 52.8734 365.357 50.9695 365.357 63.5657C365.357 69.2772 360.093 74.6234 351.203 74.6234C341.639 74.6234 337.05 70.1234 335.912 63.1811L345.862 62.3926Z" fill="black"/>
<path d="M374.535 48.2966H369.175V39.5274H371.836C374.67 39.5274 376.039 38.1428 376.039 35.3351V30.3735H384.871V38.7582H392.141V48.2966H384.871V59.7389C384.871 62.7966 386.78 64.7005 389.46 64.7005C390.097 64.7005 390.733 64.6428 391.369 64.5466L392.141 64.3158V73.4697C391.697 73.662 391.234 73.7774 390.772 73.8543C389.595 74.1235 388.38 74.2389 387.185 74.2389C379.144 74.2389 374.574 69.7389 374.574 61.2774L374.535 48.2966Z" fill="black"/>
<path d="M422.338 53.2388C421.489 50.1811 418.963 47.508 415.068 47.508C411.173 47.508 408.647 50.1811 407.799 53.2388H422.338ZM431.131 63.5465C429.299 69.258 423.784 74.6042 414.683 74.6042C405.195 74.6042 397.097 66.5849 397.097 56.2965C397.097 46.008 405.138 37.9888 415.068 37.9888C424.633 37.9888 432.269 45.2388 432.269 56.2965C432.23 57.0657 432.153 57.8349 432.037 58.5849L431.883 59.7195H407.799C408.281 61.2772 409.245 62.6234 410.556 63.5849C411.867 64.5465 413.449 65.0657 415.088 65.0657C416.553 65.1234 417.999 64.7195 419.214 63.9311C419.715 63.6619 420.14 63.258 420.448 62.7772L431.131 63.5465Z" fill="black"/>
<path d="M438.015 38.758H445.67L447.193 42.5657C447.83 41.7773 448.582 41.0849 449.411 40.508C451.166 39.1042 453.364 38.3542 455.62 38.3734C456.372 38.3926 457.105 38.4696 457.837 38.6042L458.667 38.758V49.4311L457.606 49.0465C456.719 48.7773 455.793 48.6426 454.849 48.6619C450.953 48.6619 448.35 51.3349 448.35 55.9119V73.8349H438.015V38.758Z" fill="black"/>
</svg>
