<svg width="28" height="25" viewBox="0 0 28 25" fill="none" xmlns="http://www.w3.org/2000/svg">
<path d="M19.635 12.0142C19.1578 12.0142 18.7719 12.4002 18.7719 12.8703C18.7719 13.3405 19.1578 13.7335 19.635 13.7335H24.7017L23.2069 15.2282C23.0455 15.3896 22.9543 15.6072 22.9543 15.8388C22.9543 16.0703 23.0455 16.2809 23.2069 16.4493C23.3683 16.6177 23.5859 16.7019 23.8175 16.7019C24.049 16.7019 24.2596 16.6107 24.428 16.4493L27.3894 13.4879C27.3894 13.4879 27.3964 13.4738 27.4034 13.4598C27.4806 13.3756 27.5368 13.2984 27.5718 13.2142L27.5859 13.1791C27.614 13.0949 27.635 13.0107 27.635 12.9124C27.635 12.8914 27.635 12.8703 27.635 12.8493V12.8212C27.635 12.744 27.614 12.6739 27.5929 12.6107V12.5896C27.5929 12.5896 27.5719 12.5475 27.5648 12.5265C27.5157 12.4212 27.4596 12.337 27.3964 12.2739L24.435 9.31245C24.0982 8.9756 23.5578 8.9756 23.221 9.31245C23.0596 9.47385 22.9683 9.69139 22.9683 9.92297C22.9683 10.1546 23.0596 10.3651 23.221 10.5335L24.7157 12.0282H19.649L19.635 12.0142Z" fill="white"/>
<path d="M11.6983 11.2632C10.807 11.2632 10.0842 11.986 10.0842 12.8772C10.0842 13.7684 10.807 14.4842 11.6983 14.4842C12.5895 14.4842 13.3053 13.7614 13.3053 12.8772C13.3053 11.993 12.5825 11.2632 11.6983 11.2632Z" fill="white"/>
<path d="M12.5614 0.779053C12.3017 0.779053 12.0351 0.800105 11.7684 0.842211L4.60347 1.99309C2.28066 2.36502 0.392944 4.58958 0.392944 6.94046V18.8071C0.392944 21.158 2.28066 23.3826 4.60347 23.7545L11.7684 24.9054C12.028 24.9475 12.2947 24.9685 12.5614 24.9685C13.628 24.9685 14.6035 24.6176 15.3824 23.951C16.3579 23.1159 16.8982 21.9019 16.8982 20.5334V5.21414C16.8982 3.85274 16.3649 2.64572 15.3965 1.81063L15.3824 1.7966C14.5965 1.12993 13.614 0.779053 12.5614 0.779053ZM12.5614 23.1931C12.3929 23.1931 12.2245 23.1791 12.0561 23.151L4.89821 22.0001C3.40347 21.7615 2.18242 20.3299 2.18242 18.8141V6.94046C2.18242 5.42467 3.39645 4.00011 4.89821 3.75449L12.0561 2.60361C12.2245 2.57554 12.3929 2.56151 12.5543 2.56151C13.1929 2.56151 13.7684 2.76502 14.2245 3.15098C14.8 3.63519 15.1158 4.36502 15.1158 5.20712V20.5334C15.1158 21.3685 14.8 22.0984 14.2245 22.5896C13.7684 22.9826 13.1859 23.1861 12.5614 23.1861V23.1931Z" fill="white"/>
</svg>
