<svg width="32" height="32" viewBox="0 0 32 32" fill="none" xmlns="http://www.w3.org/2000/svg">
<path d="M15.9157 21.7965C17.4105 21.7965 18.6736 21.2772 19.7192 20.2316C20.7649 19.186 21.2842 17.9158 21.2842 16.4281C21.2842 14.9404 20.7649 13.6702 19.7192 12.6246C18.6736 11.579 17.4035 11.0597 15.9157 11.0597C14.428 11.0597 13.1578 11.579 12.1122 12.6246C11.0666 13.6702 10.5473 14.9404 10.5473 16.4281C10.5473 17.9158 11.0666 19.186 12.1122 20.2316C13.1578 21.2772 14.428 21.7965 15.9157 21.7965ZM15.9017 19.9649C14.9192 19.9649 14.0842 19.6211 13.3964 18.9334C12.7157 18.2456 12.3719 17.4105 12.3719 16.4211C12.3719 15.4316 12.7157 14.6035 13.4035 13.9158C14.0912 13.2281 14.9263 12.8913 15.9157 12.8913C16.9052 12.8913 17.7333 13.2351 18.421 13.9228C19.1087 14.6105 19.4456 15.4456 19.4456 16.4351C19.4456 17.4246 19.1017 18.2527 18.414 18.9404C17.7263 19.6211 16.8912 19.9649 15.9017 19.9649ZM15.9087 25.9018C13.0666 25.9018 10.4842 25.1018 8.15433 23.5018C5.8245 21.9018 3.95784 19.8597 2.54731 17.3755C2.4631 17.2281 2.39994 17.0737 2.35784 16.9123C2.31573 16.7509 2.29468 16.5895 2.29468 16.4281C2.29468 16.2667 2.31573 16.0983 2.35784 15.9439C2.39994 15.7895 2.4631 15.6351 2.54731 15.4877C3.95784 13.0035 5.8245 10.9614 8.15433 9.36143C10.4771 7.76143 13.0666 6.96143 15.9087 6.96143C18.7508 6.96143 21.3333 7.76143 23.6631 9.36143C25.9929 10.9614 27.8596 13.0035 29.2701 15.4877C29.3543 15.6351 29.4175 15.7895 29.4596 15.9509C29.5017 16.1123 29.5227 16.2737 29.5227 16.4351C29.5227 16.5965 29.5017 16.7649 29.4596 16.9193C29.4175 17.0737 29.3543 17.2281 29.2701 17.3755C27.8596 19.8597 25.9929 21.9018 23.6631 23.5018C21.3333 25.1018 18.7508 25.9018 15.9087 25.9018ZM15.9087 24.007C18.4631 24.007 20.807 23.3193 22.9403 21.9369C25.0736 20.5544 26.7017 18.7228 27.8175 16.4281C26.7017 14.1334 25.0806 12.2948 22.9473 10.9193C20.814 9.53686 18.4701 8.84914 15.9227 8.84914C13.3754 8.84914 11.0245 9.53686 8.89117 10.9193C6.75082 12.3018 5.11573 14.1334 3.97889 16.4281C5.11573 18.7228 6.75082 20.5614 8.88415 21.9369C11.0175 23.3123 13.3613 24.007 15.9087 24.007Z" fill="white"/>
</svg>
