<svg width="18" height="18" viewBox="0 0 18 18" fill="none" xmlns="http://www.w3.org/2000/svg">
<path d="M2.58157 10.8868C1.59868 10.8868 0.797363 10.0855 0.797363 9.10257C0.797363 8.11967 1.59868 7.31836 2.58157 7.31836C3.56447 7.31836 4.36578 8.11967 4.36578 9.10257C4.36578 10.0855 3.56447 10.8868 2.58157 10.8868ZM2.58157 8.18678C2.07631 8.18678 1.66578 8.59731 1.66578 9.10257C1.66578 9.60783 2.07631 10.0184 2.58157 10.0184C3.08684 10.0184 3.49736 9.60783 3.49736 9.10257C3.49736 8.59731 3.08684 8.18678 2.58157 8.18678Z" fill="white"/>
<path d="M15.6158 10.8868C14.6329 10.8868 13.8316 10.0855 13.8316 9.10257C13.8316 8.11967 14.6329 7.31836 15.6158 7.31836C16.5987 7.31836 17.4 8.11967 17.4 9.10257C17.4 10.0855 16.5987 10.8868 15.6158 10.8868ZM15.6158 8.18678C15.1105 8.18678 14.7 8.59731 14.7 9.10257C14.7 9.60783 15.1105 10.0184 15.6158 10.0184C16.121 10.0184 16.5316 9.60783 16.5316 9.10257C16.5316 8.59731 16.121 8.18678 15.6158 8.18678Z" fill="white"/>
<path d="M9.09869 4.44867C8.1158 4.44867 7.31448 3.64735 7.31448 2.66446C7.31448 1.68156 8.1158 0.880249 9.09869 0.880249C10.0816 0.880249 10.8829 1.68156 10.8829 2.66446C10.8829 3.64735 10.0816 4.44867 9.09869 4.44867ZM9.09869 1.74867C8.59343 1.74867 8.1829 2.1592 8.1829 2.66446C8.1829 3.16972 8.59343 3.58025 9.09869 3.58025C9.60396 3.58025 10.0145 3.16972 10.0145 2.66446C10.0145 2.1592 9.60396 1.74867 9.09869 1.74867Z" fill="white"/>
<path fill-rule="evenodd" clip-rule="evenodd" d="M14.9123 7.94769C14.4554 5.60943 12.6379 3.75355 10.3201 3.24028C10.4026 3.06561 10.4487 2.8704 10.4487 2.66442C10.4487 2.56436 10.4378 2.46685 10.4171 2.37299C13.106 2.93057 15.2247 5.06404 15.7606 7.76068C15.7117 7.75533 15.6621 7.75258 15.6118 7.75258C15.3558 7.75258 15.1163 7.82387 14.9123 7.94769ZM7.74868 2.66442C7.74868 2.85867 7.78971 3.04333 7.86357 3.21022C5.50183 3.67233 3.63244 5.52247 3.14201 7.87404C2.9713 7.79604 2.78151 7.75258 2.58157 7.75258C2.4756 7.75258 2.37247 7.76479 2.27353 7.78788C2.81124 5.02326 5.01153 2.84534 7.78772 2.34082C7.76221 2.44449 7.74868 2.55288 7.74868 2.66442ZM7.78772 15.8643C5.01153 15.3598 2.81124 13.1819 2.27353 10.4173C2.37247 10.4404 2.4756 10.4526 2.58157 10.4526C2.78151 10.4526 2.9713 10.4091 3.14201 10.3311C3.63244 12.6827 5.50183 14.5328 7.86357 14.9949C7.78971 15.1618 7.74868 15.3465 7.74868 15.5407C7.74868 15.6523 7.76222 15.7607 7.78772 15.8643ZM10.4171 15.8322C13.106 15.2746 15.2247 13.1411 15.7606 10.4445C15.7117 10.4498 15.6621 10.4526 15.6118 10.4526C15.3558 10.4526 15.1163 10.3813 14.9123 10.2575C14.4554 12.5957 12.6379 14.4516 10.32 14.9649C10.4025 15.1395 10.4487 15.3348 10.4487 15.5407C10.4487 15.6408 10.4378 15.7383 10.4171 15.8322Z" fill="white"/>
<path d="M9.09869 17.3249C8.1158 17.3249 7.31448 16.5236 7.31448 15.5407C7.31448 14.5578 8.1158 13.7565 9.09869 13.7565C10.0816 13.7565 10.8829 14.5578 10.8829 15.5407C10.8829 16.5236 10.0816 17.3249 9.09869 17.3249ZM9.09869 14.6249C8.59343 14.6249 8.1829 15.0354 8.1829 15.5407C8.1829 16.0459 8.59343 16.4565 9.09869 16.4565C9.60396 16.4565 10.0145 16.0459 10.0145 15.5407C10.0145 15.0354 9.60396 14.6249 9.09869 14.6249Z" fill="white"/>
<path d="M9.09866 12.5803C8.96445 12.5803 8.83419 12.5092 8.76313 12.3948C8.72366 12.3316 7.81577 10.8553 7.81577 9.00792C7.81577 7.16055 8.72366 5.68028 8.76313 5.62107C8.83419 5.5066 8.9605 5.43555 9.09866 5.43555C9.23287 5.43555 9.36313 5.5066 9.43419 5.62107C9.47366 5.68423 10.3816 7.16055 10.3816 9.00792C10.3816 10.8553 9.47366 12.3355 9.43419 12.3948C9.36313 12.5092 9.23682 12.5803 9.09866 12.5803ZM9.09866 6.71449C8.86971 7.26318 8.60524 8.09213 8.60524 9.00397C8.60524 9.91581 8.86971 10.7487 9.09866 11.2934C9.32761 10.7448 9.59208 9.91581 9.59208 9.00397C9.59208 8.09213 9.32761 7.25923 9.09866 6.71449Z" fill="white"/>
<path d="M9.00789 12.4698C8.94473 12.4698 8.88552 12.454 8.82631 12.4264C8.51841 12.2645 7.70131 11.8935 6.76183 11.8935C6.54473 11.8935 6.3671 11.7158 6.3671 11.4987C6.3671 11.2816 6.54473 11.104 6.76183 11.104C7.83552 11.104 8.74736 11.4948 9.19341 11.7237C9.38683 11.8224 9.46183 12.0632 9.36315 12.2566C9.2921 12.3908 9.15394 12.4698 9.01183 12.4698H9.00789Z" fill="white"/>
<path d="M10.3855 12.0237C10.2474 12.0237 10.1132 11.9487 10.0382 11.8184C9.93158 11.6289 10.0026 11.3881 10.1921 11.2816C10.4526 11.1394 10.95 10.8355 11.3684 10.4171C11.9211 9.86445 12.2724 9.21313 12.4776 8.72761C11.9882 8.93682 11.3368 9.28813 10.7882 9.83682C10.5197 10.1052 10.2947 10.3776 10.1368 10.6144C10.0184 10.796 9.77368 10.8473 9.5921 10.7289C9.41053 10.6105 9.35921 10.3658 9.47763 10.1842C9.66316 9.89998 9.92368 9.58813 10.2316 9.28024C11.4237 8.08813 12.9632 7.72103 13.0263 7.70524C13.1605 7.67366 13.2987 7.71313 13.3934 7.81182C13.4882 7.90656 13.5276 8.04866 13.5 8.17892C13.4842 8.24208 13.1171 9.78156 11.925 10.9737C11.4395 11.4592 10.8671 11.8066 10.5711 11.9723C10.5118 12.0039 10.4447 12.0197 10.3816 12.0197L10.3855 12.0237Z" fill="white"/>
<path d="M7.80788 12.0237C7.74473 12.0237 7.67762 12.0079 7.61841 11.9763C7.32236 11.8144 6.75394 11.4671 6.26446 10.9776C5.07236 9.7855 4.70525 8.24602 4.68946 8.18286C4.65788 8.04865 4.69736 7.9105 4.79604 7.81576C4.89078 7.72102 5.02894 7.6776 5.16315 7.70918C5.23025 7.72497 6.76578 8.09207 7.95788 9.28418C8.26578 9.59207 8.5263 9.90392 8.71183 10.1881C8.83025 10.3697 8.77894 10.6144 8.59736 10.7329C8.41578 10.8513 8.17104 10.8 8.05262 10.6184C7.89473 10.3776 7.66973 10.1092 7.4013 9.84076C6.85262 9.29207 6.2013 8.94076 5.71183 8.73155C5.92104 9.21707 6.27236 9.86839 6.82104 10.421C7.23946 10.8394 7.73683 11.1434 7.99736 11.2855C8.18683 11.3921 8.25788 11.6329 8.1513 11.8223C8.08025 11.9526 7.94604 12.0276 7.80394 12.0276L7.80788 12.0237Z" fill="white"/>
<path d="M9.18947 12.4658C9.04736 12.4658 8.90921 12.3869 8.83815 12.2527C8.73947 12.0593 8.81447 11.8224 9.00789 11.7198C9.45394 11.4908 10.3618 11.104 11.4316 11.104C11.6487 11.104 11.8263 11.2816 11.8263 11.4987C11.8263 11.7158 11.6487 11.8935 11.4316 11.8935C10.496 11.8935 9.67894 12.2645 9.37105 12.4224C9.31184 12.454 9.25263 12.4658 9.18947 12.4658Z" fill="white"/>
<path d="M9.07104 14.2343C8.85393 14.2343 8.6763 14.0566 8.6763 13.8395V12.3198C8.6763 12.1027 8.85393 11.925 9.07104 11.925C9.28814 11.925 9.46577 12.1027 9.46577 12.3198V13.8395C9.46577 14.0566 9.28814 14.2343 9.07104 14.2343Z" fill="white"/>
</svg>
