<svg width="18" height="18" viewBox="0 0 18 18" fill="none" xmlns="http://www.w3.org/2000/svg">
<path fill-rule="evenodd" clip-rule="evenodd" d="M7.17051 11.8027C7.24452 12.1114 7.34831 12.4086 7.47867 12.6909H4.31449C4.20396 12.6909 4.10922 12.6475 4.03028 12.5606C3.95528 12.4777 3.9158 12.3712 3.9158 12.2448C3.9158 12.1185 3.95528 12.0119 4.03028 11.9291C4.10528 11.8462 4.20396 11.8027 4.31449 11.8027H7.17051Z" fill="white"/>
<path fill-rule="evenodd" clip-rule="evenodd" d="M7.08686 9.99072C7.05477 10.215 7.03817 10.4444 7.03817 10.6775C7.03817 10.7463 7.03962 10.8148 7.04248 10.8828H4.31449C4.20396 10.8828 4.10528 10.8394 4.03028 10.7526C3.95528 10.6657 3.9158 10.5591 3.9158 10.4328C3.9158 10.3065 3.95528 10.1999 4.03028 10.117C4.10528 10.0341 4.20396 9.99072 4.31449 9.99072H7.08686Z" fill="white"/>
<path fill-rule="evenodd" clip-rule="evenodd" d="M7.74246 8.17114C7.5712 8.45092 7.42775 8.74957 7.31595 9.06325H4.31449C4.20396 9.06325 4.10922 9.01983 4.03028 8.93298C3.95528 8.85009 3.9158 8.74351 3.9158 8.6172C3.9158 8.49088 3.95528 8.3843 4.03028 8.30141C4.10528 8.21851 4.20396 8.17509 4.31449 8.17509V8.17114H7.74246Z" fill="white"/>
<path d="M11.8461 5.41187C8.94474 5.41187 6.58026 7.77239 6.58026 10.6777C6.58026 13.5829 8.94079 15.9434 11.8461 15.9434C14.7513 15.9434 17.1118 13.5829 17.1118 10.6777C17.1118 7.77239 14.7513 5.41187 11.8461 5.41187ZM11.8461 15.0237C9.44605 15.0237 7.49605 13.0737 7.49605 10.6737C7.49605 8.27371 9.44605 6.32371 11.8461 6.32371C14.2461 6.32371 16.1961 8.27371 16.1961 10.6737C16.1961 13.0737 14.2461 15.0237 11.8461 15.0237Z" fill="white"/>
<path d="M14.2658 10.6263H12.8566C12.7382 10.3144 12.4934 10.0697 12.1816 9.95129V7.78813C12.1816 7.56708 12 7.3855 11.779 7.3855C11.5579 7.3855 11.3724 7.56708 11.3724 7.78813V9.95129C10.9224 10.121 10.6224 10.5473 10.6224 11.0289C10.6224 11.6684 11.1395 12.1855 11.779 12.1855C12.2605 12.1855 12.6868 11.8855 12.8566 11.4316H14.2658C14.4868 11.4316 14.6684 11.25 14.6684 11.0289C14.6684 10.8079 14.4868 10.6263 14.2658 10.6263ZM11.779 11.5894C11.4711 11.5894 11.2224 11.3408 11.2224 11.0329C11.2224 10.725 11.4711 10.4763 11.779 10.4763C12.0868 10.4763 12.3355 10.725 12.3355 11.0329C12.3355 11.3408 12.0868 11.5894 11.779 11.5894Z" fill="white"/>
<path d="M5.01316 4.71316C4.425 4.71316 3.94342 4.23158 3.94342 3.64342V2.19474C3.94342 1.60658 4.425 1.125 5.01316 1.125C5.60132 1.125 6.08289 1.60658 6.08289 2.19474V3.64342C6.08289 4.23158 5.60132 4.71316 5.01316 4.71316ZM5.01316 1.89079C4.84342 1.89079 4.70921 2.02895 4.70921 2.19868V3.64737C4.70921 3.81711 4.84737 3.95526 5.01316 3.95526C5.17895 3.95526 5.3171 3.81711 5.3171 3.64737V2.19868C5.3171 2.02895 5.17895 1.89079 5.01316 1.89079Z" fill="white"/>
<path fill-rule="evenodd" clip-rule="evenodd" d="M10.3461 2.99611V2.19479C10.3461 2.16402 10.3481 2.13371 10.352 2.104H5.69405C5.69798 2.13371 5.70001 2.16402 5.70001 2.19479V2.99611H10.3461ZM11.7198 2.99611H13.5947C13.654 2.99611 13.7092 3.01979 13.7605 3.07111C13.8119 3.12242 13.8355 3.17769 13.8355 3.2369V5.77506H2.21054V3.2369C2.21054 3.17769 2.23422 3.12242 2.28554 3.07111C2.33685 3.01979 2.39212 2.99611 2.45133 2.99611H4.32633V2.19479C4.32633 2.16402 4.32836 2.13371 4.33229 2.104H2.45133C2.14343 2.104 1.87501 2.21453 1.65001 2.43953C1.42501 2.66453 1.31448 2.93295 1.31448 3.24085V14.2777C1.31448 14.5856 1.42501 14.854 1.65001 15.079C1.87501 15.304 2.14343 15.4145 2.45133 15.4145H11.018C10.2525 15.2816 9.54911 14.9677 8.95353 14.5185H2.45133H2.44738C2.38817 14.5185 2.3329 14.4948 2.28159 14.4435C2.23027 14.3922 2.20659 14.3369 2.20659 14.2777V6.67111H9.18745C9.94895 6.16479 10.8631 5.86978 11.8461 5.86978C12.9288 5.86978 13.9279 6.22767 14.7316 6.8316V3.24085C14.7316 2.93295 14.6211 2.66453 14.3961 2.43953C14.1711 2.21453 13.9026 2.104 13.5947 2.104H11.7138C11.7177 2.13371 11.7198 2.16402 11.7198 2.19479V2.99611ZM14.7011 14.5465C14.1135 14.9808 13.4236 15.2844 12.6741 15.4145H13.5947C13.9026 15.4145 14.1711 15.304 14.3961 15.079C14.5529 14.9222 14.6541 14.7442 14.7011 14.5465Z" fill="white"/>
<path d="M11.0329 4.71316C10.4447 4.71316 9.96317 4.23158 9.96317 3.64342V2.19474C9.96317 1.60658 10.4447 1.125 11.0329 1.125C11.6211 1.125 12.1026 1.60658 12.1026 2.19474V3.64342C12.1026 4.23158 11.6211 4.71316 11.0329 4.71316ZM11.0329 1.89079C10.8632 1.89079 10.729 2.02895 10.729 2.19868V3.64737C10.729 3.81711 10.8671 3.95526 11.0329 3.95526C11.1987 3.95526 11.3368 3.81711 11.3368 3.64737V2.19868C11.3368 2.02895 11.1987 1.89079 11.0329 1.89079Z" fill="white"/>
</svg>
