<svg width="18" height="18" viewBox="0 0 18 18" fill="none" xmlns="http://www.w3.org/2000/svg">
<path d="M15.8329 9.39102C15.8329 8.47523 15.675 7.6147 15.3592 6.81733C15.0434 6.01996 14.6092 5.29759 14.0565 4.64628C13.9618 4.53575 13.9105 4.40944 13.9026 4.26338C13.8908 4.12128 13.9381 3.99891 14.0408 3.90417C14.1434 3.80154 14.2697 3.75812 14.4197 3.77391C14.5697 3.7897 14.6921 3.8568 14.7829 3.97523C15.4223 4.70944 15.9237 5.53444 16.2789 6.45023C16.6381 7.36601 16.8158 8.34891 16.8158 9.39102C16.8158 10.4331 16.6381 11.416 16.2789 12.3318C15.9197 13.2476 15.4223 14.0765 14.7829 14.8068C14.6881 14.9252 14.5658 14.9923 14.4158 15.0042C14.2618 15.016 14.1394 14.9686 14.0408 14.866C13.9381 14.7634 13.8908 14.645 13.9026 14.5068C13.9144 14.3686 13.9658 14.2463 14.0565 14.1358C14.6092 13.4844 15.0434 12.7621 15.3592 11.9647C15.675 11.1673 15.8329 10.3108 15.8329 9.39102Z" fill="white"/>
<path d="M14.3763 15.0633C14.2263 15.0633 14.1 15.012 13.9973 14.9054C13.8829 14.7909 13.8316 14.6567 13.8434 14.5027C13.8552 14.3527 13.9105 14.2185 14.0131 14.0962C14.5579 13.4527 14.9921 12.7264 15.3039 11.9409C15.6158 11.1554 15.7737 10.2948 15.7737 9.3909C15.7737 8.48695 15.6158 7.62643 15.3039 6.8409C14.9921 6.05142 14.5579 5.32906 14.0131 4.68564C13.9105 4.56327 13.8552 4.42511 13.8434 4.26721C13.8316 4.10537 13.8868 3.96721 14.0013 3.86064C14.1158 3.74616 14.2579 3.69485 14.4276 3.71458C14.5934 3.73037 14.7316 3.80537 14.8342 3.93958C15.4737 4.67379 15.9829 5.51064 16.3381 6.43037C16.6973 7.35011 16.8789 8.34879 16.8789 9.3909C16.8789 10.433 16.6973 11.4317 16.3381 12.3514C15.9789 13.2712 15.4737 14.112 14.8302 14.8462C14.7276 14.9764 14.5895 15.0514 14.4197 15.0633C14.4039 15.0633 14.3881 15.0633 14.3763 15.0633ZM14.3645 3.82511C14.2539 3.82511 14.1631 3.86458 14.0842 3.94353C13.9934 4.03037 13.9539 4.133 13.9618 4.25932C13.9697 4.38958 14.0171 4.50406 14.1039 4.60669C14.6566 5.258 15.0987 5.99616 15.4145 6.79748C15.7302 7.59879 15.8921 8.47116 15.8921 9.3909C15.8921 10.3106 15.7302 11.183 15.4145 11.9843C15.0987 12.7817 14.6566 13.5198 14.1039 14.1751C14.021 14.2777 13.9737 14.3883 13.9618 14.5146C13.9539 14.633 13.9934 14.7356 14.0842 14.8264C14.171 14.9172 14.2776 14.9606 14.4118 14.9488C14.546 14.9409 14.6566 14.8817 14.7395 14.7751C15.375 14.0488 15.8763 13.2198 16.2276 12.312C16.5789 11.4041 16.7605 10.4251 16.7605 9.3909C16.7605 8.35669 16.5829 7.37774 16.2276 6.46985C15.8763 5.56195 15.375 4.73695 14.7434 4.01064C14.6566 3.90011 14.55 3.8409 14.4158 3.82906C14.4 3.82906 14.3842 3.82906 14.3684 3.82906L14.3645 3.82511Z" fill="white"/>
<path d="M2.14342 9.39106C2.14342 10.3147 2.30131 11.1753 2.6171 11.9726C2.93289 12.77 3.3671 13.4924 3.91973 14.1358C4.01447 14.2463 4.06579 14.3726 4.07368 14.5069C4.08552 14.645 4.03815 14.7634 3.93552 14.8661C3.83684 14.9687 3.71447 15.0161 3.56842 15.0042C3.41842 14.9924 3.29605 14.9292 3.19342 14.8069C2.55394 14.0805 2.05263 13.2595 1.69736 12.3437C1.33815 11.4279 1.16052 10.4411 1.16052 9.39106C1.16052 8.34106 1.33815 7.35422 1.69736 6.43843C2.05658 5.52264 2.55394 4.70159 3.19342 3.97527C3.29605 3.85685 3.42236 3.78975 3.56842 3.7779C3.71842 3.76606 3.84079 3.81343 3.93552 3.91606C4.03815 4.01869 4.08552 4.13711 4.07368 4.27527C4.06184 4.41343 4.01052 4.5358 3.91973 4.64632C3.3671 5.29764 2.93289 6.02001 2.6171 6.81738C2.30131 7.61475 2.14342 8.47132 2.14342 9.39106Z" fill="white"/>
<path d="M3.60394 15.0634C3.60394 15.0634 3.57631 15.0634 3.56052 15.0634C3.39473 15.0515 3.25657 14.9805 3.1421 14.8462C2.50263 14.1199 1.99341 13.287 1.6342 12.3673C1.27499 11.4476 1.09341 10.4449 1.09341 9.39098C1.09341 8.33704 1.27499 7.3344 1.6342 6.41467C1.99341 5.49493 2.49868 4.66204 3.1421 3.93572C3.25263 3.80546 3.39473 3.73046 3.55657 3.71861C3.72631 3.70677 3.86052 3.76203 3.97105 3.87651C4.08552 3.99098 4.13684 4.12519 4.12499 4.27914C4.11315 4.42914 4.05789 4.56335 3.95526 4.68572C3.41052 5.32914 2.97631 6.05546 2.66447 6.84098C2.35263 7.62651 2.19473 8.48309 2.19473 9.39098C2.19473 10.2989 2.35263 11.1634 2.66447 11.9489C2.97631 12.7344 3.41052 13.4607 3.95526 14.0962C4.05789 14.2186 4.11315 14.3528 4.12499 14.5028C4.13684 14.6568 4.08552 14.791 3.97105 14.9055C3.87236 15.0081 3.74605 15.0634 3.59999 15.0634H3.60394ZM3.60394 3.83309C3.60394 3.83309 3.58026 3.83309 3.56841 3.83309C3.4342 3.84098 3.32763 3.90019 3.23289 4.00677C2.60131 4.72519 2.09999 5.54625 1.74473 6.45414C1.39341 7.35809 1.21184 8.34493 1.21184 9.38704C1.21184 10.4291 1.38947 11.412 1.74473 12.3199C2.09605 13.2278 2.59736 14.0489 3.22894 14.7673C3.32368 14.8778 3.43026 14.9331 3.56447 14.941C3.69473 14.9489 3.80131 14.9094 3.8842 14.8226C3.97499 14.7318 4.01447 14.6291 4.00657 14.5107C3.99868 14.3884 3.95131 14.2739 3.86447 14.1712C3.31184 13.5239 2.86973 12.7897 2.55394 11.9923C2.23815 11.191 2.07631 10.3186 2.07631 9.39098C2.07631 8.46335 2.23815 7.59888 2.55394 6.79756C2.86973 5.99625 3.31184 5.26204 3.86447 4.60677C3.95131 4.50414 3.99473 4.39361 4.00657 4.27125C4.01447 4.15282 3.97499 4.05019 3.8842 3.9594C3.80526 3.87651 3.71447 3.83703 3.59999 3.83703L3.60394 3.83309Z" fill="white"/>
<path d="M12.7776 9.3908C12.7776 8.96053 12.7105 8.55001 12.5763 8.15922C12.4421 7.76843 12.2526 7.41316 12.0039 7.08948C11.9171 6.97501 11.8697 6.84869 11.8697 6.71448C11.8697 6.57632 11.921 6.4579 12.0237 6.35527C12.1263 6.25264 12.2447 6.20527 12.3789 6.21711C12.5131 6.22895 12.6237 6.28816 12.7145 6.39869C13.0421 6.80527 13.2987 7.26317 13.4842 7.76843C13.6697 8.27369 13.7645 8.81448 13.7645 9.3908C13.7645 9.96711 13.6697 10.5 13.4842 10.9974C13.2987 11.4947 13.0381 11.9526 12.7145 12.3671C12.6276 12.4737 12.5131 12.5329 12.375 12.5447C12.2368 12.5566 12.1145 12.5132 12.0118 12.4105C11.9092 12.3079 11.8579 12.1895 11.8539 12.0592C11.85 11.929 11.8973 11.8026 11.9921 11.6882C12.2408 11.3645 12.4342 11.0092 12.5723 10.6184C12.7105 10.2276 12.7816 9.82106 12.7816 9.38685L12.7776 9.3908Z" fill="white"/>
<path d="M12.3276 12.608C12.1934 12.608 12.0711 12.5567 11.9684 12.4541C11.8539 12.3396 11.7987 12.2093 11.7947 12.0633C11.7947 11.9172 11.8421 11.7791 11.9447 11.6567C12.1855 11.3409 12.3789 10.9856 12.5171 10.6028C12.6553 10.2199 12.7224 9.81328 12.7224 9.39091C12.7224 8.96854 12.6553 8.56196 12.525 8.17907C12.3947 7.79617 12.2053 7.44486 11.9605 7.12512C11.8658 6.9988 11.8145 6.86065 11.8145 6.71459C11.8145 6.56065 11.8697 6.42644 11.9842 6.31591C12.0987 6.20144 12.2329 6.15012 12.3868 6.15801C12.5368 6.16986 12.6671 6.23696 12.7618 6.36328C13.0895 6.7738 13.354 7.23959 13.5434 7.7488C13.7329 8.25801 13.8276 8.81065 13.8276 9.39091C13.8276 9.97117 13.7329 10.5159 13.5434 11.0212C13.354 11.5225 13.0934 11.9883 12.7618 12.4067C12.6632 12.5251 12.5329 12.5922 12.3789 12.608C12.3632 12.608 12.3434 12.608 12.3276 12.608ZM12.3434 6.27644C12.2368 6.27644 12.1461 6.31591 12.0671 6.3988C11.9763 6.48959 11.9329 6.59223 11.9329 6.71459C11.9329 6.83696 11.9724 6.95144 12.0553 7.05407C12.3079 7.3817 12.5013 7.7488 12.6395 8.13959C12.7737 8.53433 12.8447 8.95275 12.8447 9.38696C12.8447 9.82117 12.7737 10.2435 12.6316 10.6383C12.4895 11.033 12.2921 11.3962 12.0434 11.7238C11.9566 11.8304 11.9171 11.937 11.9171 12.0554C11.9171 12.1738 11.9645 12.2725 12.0553 12.3672C12.1461 12.458 12.2487 12.4975 12.3711 12.4856C12.4934 12.4738 12.5921 12.4225 12.6711 12.3278C12.9908 11.9212 13.2474 11.4633 13.4329 10.9738C13.6184 10.4843 13.7092 9.95144 13.7092 9.38696C13.7092 8.82249 13.6145 8.28565 13.4329 7.78433C13.2474 7.28696 12.9908 6.82907 12.6711 6.43038C12.5921 6.3317 12.4974 6.28038 12.3789 6.26854C12.3671 6.26854 12.3592 6.26854 12.3474 6.26854L12.3434 6.27644Z" fill="white"/>
<path d="M5.19868 9.3908C5.19868 9.82106 5.26579 10.2316 5.4 10.6224C5.53421 11.0132 5.72368 11.3684 5.97237 11.6921C6.05921 11.8066 6.10263 11.9329 6.10263 12.0671C6.10263 12.2053 6.05132 12.3237 5.95658 12.4263C5.85395 12.529 5.73553 12.5763 5.60132 12.5645C5.46711 12.5526 5.35658 12.4934 5.26579 12.3829C4.93816 11.9763 4.68158 11.5184 4.49605 11.0132C4.31053 10.5079 4.21579 9.96711 4.21579 9.3908C4.21579 8.81448 4.31053 8.27764 4.49605 7.76843C4.68158 7.26316 4.94211 6.80527 5.26579 6.39869C5.35263 6.28816 5.46711 6.22501 5.60526 6.21711C5.74342 6.20527 5.86579 6.25264 5.96842 6.35527C6.07105 6.45395 6.12237 6.56843 6.12632 6.71053C6.13026 6.85264 6.08289 6.97501 5.98816 7.08948C5.73947 7.41316 5.54605 7.76843 5.40789 8.15922C5.26974 8.55001 5.19868 8.95659 5.19868 9.3908Z" fill="white"/>
<path d="M5.63288 12.6237C5.63288 12.6237 5.60525 12.6237 5.59341 12.6237C5.44341 12.6119 5.31709 12.5448 5.21841 12.4184C4.89078 12.0079 4.6263 11.5421 4.43683 11.0329C4.24735 10.5237 4.15262 9.97107 4.15262 9.39081C4.15262 8.81054 4.24735 8.25791 4.43683 7.7487C4.6263 7.23949 4.88683 6.7737 5.21841 6.36318C5.31709 6.24081 5.44341 6.16975 5.6013 6.15791C5.7513 6.14607 5.89341 6.19739 6.01183 6.31581C6.1263 6.42239 6.18157 6.5566 6.18551 6.71054C6.18551 6.86449 6.13814 7.0066 6.03551 7.12896C5.79472 7.44475 5.6013 7.80002 5.46709 8.18291C5.33288 8.56581 5.26183 8.97239 5.26183 9.39475C5.26183 9.81712 5.32893 10.2237 5.4592 10.6066C5.58946 10.9895 5.78288 11.3408 6.02367 11.6605C6.11841 11.7869 6.16578 11.925 6.16578 12.075C6.16578 12.225 6.11051 12.3592 5.99999 12.4737C5.89341 12.5803 5.77104 12.6316 5.63683 12.6316L5.63288 12.6237ZM5.64078 6.27633C5.64078 6.27633 5.62104 6.27633 5.6092 6.27633C5.48683 6.28423 5.38814 6.33949 5.3092 6.43423C4.98551 6.83291 4.72893 7.29081 4.54736 7.78817C4.36183 8.28554 4.27104 8.82633 4.27104 9.39081C4.27104 9.95528 4.36578 10.4921 4.54736 10.9934C4.72893 11.4908 4.98946 11.9448 5.3092 12.3474C5.38814 12.4461 5.48288 12.4974 5.6013 12.5092C5.71972 12.5171 5.82236 12.4776 5.9092 12.3869C5.99604 12.2961 6.03946 12.1934 6.03946 12.0711C6.03946 11.9487 6.00393 11.8342 5.92104 11.7316C5.66841 11.404 5.47499 11.0369 5.33683 10.6461C5.20262 10.2513 5.13157 9.83291 5.13157 9.39475C5.13157 8.9566 5.20262 8.53817 5.34472 8.14344C5.48288 7.7487 5.6842 7.38554 5.93288 7.05791C6.01972 6.95133 6.0592 6.84081 6.0592 6.71449C6.0592 6.59212 6.01183 6.48949 5.92104 6.40265C5.83814 6.31975 5.74341 6.28028 5.63683 6.28028L5.64078 6.27633Z" fill="white"/>
<path d="M8.98813 10.8238C8.59734 10.8238 8.26182 10.6817 7.97761 10.4014C7.69339 10.1172 7.55524 9.78169 7.55524 9.3909C7.55524 9.00011 7.69734 8.66459 7.97761 8.38038C8.26182 8.09617 8.59734 7.95801 8.98813 7.95801C9.37892 7.95801 9.71445 8.10011 9.99866 8.38038C10.2829 8.66459 10.421 9.00011 10.421 9.3909C10.421 9.78169 10.2789 10.1172 9.99866 10.4014C9.71445 10.6856 9.37892 10.8238 8.98813 10.8238Z" fill="white"/>
<path d="M8.98814 10.8829C8.58156 10.8829 8.23024 10.7329 7.93814 10.4408C7.64603 10.1487 7.49603 9.79342 7.49603 9.39079C7.49603 8.98816 7.64603 8.63289 7.93814 8.34079C8.23024 8.04868 8.58551 7.89868 8.98814 7.89868C9.39077 7.89868 9.74603 8.04868 10.0381 8.34079C10.3302 8.63289 10.4802 8.98816 10.4802 9.39079C10.4802 9.79342 10.3302 10.1487 10.0381 10.4408C9.74603 10.7329 9.39077 10.8829 8.98814 10.8829ZM8.98814 8.0171C8.61709 8.0171 8.28945 8.15526 8.02103 8.42368C7.75261 8.6921 7.61445 9.01973 7.61445 9.39079C7.61445 9.76184 7.75261 10.0895 8.02103 10.3579C8.28945 10.6263 8.61709 10.7645 8.98814 10.7645C9.35919 10.7645 9.68682 10.6263 9.95524 10.3579C10.2237 10.0895 10.3618 9.76184 10.3618 9.39079C10.3618 9.01973 10.2237 8.6921 9.95524 8.42368C9.68682 8.15526 9.35919 8.0171 8.98814 8.0171Z" fill="white"/>
</svg>
