<svg width="18" height="18" viewBox="0 0 18 18" fill="none" xmlns="http://www.w3.org/2000/svg">
<path d="M6.05533 5.67629C5.46717 5.67629 4.9856 5.19471 4.9856 4.60656V3.15787C4.9856 2.56971 5.46717 2.08813 6.05533 2.08813C6.64349 2.08813 7.12507 2.56971 7.12507 3.15787V4.60656C7.12507 5.19471 6.64349 5.67629 6.05533 5.67629ZM6.05533 2.85392C5.8856 2.85392 5.75138 2.99208 5.75138 3.16182V4.6105C5.75138 4.78024 5.88954 4.9184 6.05533 4.9184C6.22112 4.9184 6.35928 4.78024 6.35928 4.6105V3.16182C6.35928 2.99208 6.22112 2.85392 6.05533 2.85392Z" fill="white"/>
<path d="M12.075 5.67629C11.4869 5.67629 11.0053 5.19471 11.0053 4.60656V3.15787C11.0053 2.56971 11.4869 2.08813 12.075 2.08813C12.6632 2.08813 13.1448 2.56971 13.1448 3.15787V4.60656C13.1448 5.19471 12.6632 5.67629 12.075 5.67629ZM12.075 2.85392C11.9053 2.85392 11.7711 2.99208 11.7711 3.16182V4.6105C11.7711 4.78024 11.9093 4.9184 12.075 4.9184C12.2408 4.9184 12.379 4.78024 12.379 4.6105V3.16182C12.379 2.99208 12.2408 2.85392 12.075 2.85392Z" fill="white"/>
<path fill-rule="evenodd" clip-rule="evenodd" d="M13.1448 3.95924H14.6369C14.6961 3.95924 14.7514 3.98293 14.8027 4.03424C14.854 4.08556 14.8777 4.14082 14.8777 4.20003V6.73819H3.25268V4.20003C3.25268 4.14082 3.27637 4.08556 3.32768 4.03424C3.379 3.98293 3.43426 3.95924 3.49347 3.95924H4.98558V3.15793C4.98558 3.12736 4.98688 3.09708 4.98943 3.06714H3.49347C3.18558 3.06714 2.91715 3.17766 2.69215 3.40266C2.46715 3.62766 2.35663 3.89609 2.35663 4.20398V15.2408C2.35663 15.5487 2.46715 15.8171 2.69215 16.0421C2.91715 16.2671 3.18558 16.3777 3.49347 16.3777H14.6369C14.9448 16.3777 15.2132 16.2671 15.4382 16.0421C15.6632 15.8171 15.7737 15.5487 15.7737 15.2408V4.20398C15.7737 3.89609 15.6632 3.62766 15.4382 3.40266C15.2132 3.17766 14.9448 3.06714 14.6369 3.06714H13.1409C13.1435 3.09708 13.1448 3.12736 13.1448 3.15793V3.95924ZM11.0092 3.06714H7.1212C7.12375 3.09708 7.12505 3.12736 7.12505 3.15793V3.95924H11.0053V3.15793C11.0053 3.12736 11.0066 3.09708 11.0092 3.06714ZM3.49347 15.4816H14.6369C14.6961 15.4816 14.7514 15.4579 14.8027 15.4066C14.854 15.3553 14.8777 15.3 14.8777 15.2408V7.63424H3.25268V15.2408C3.25268 15.3 3.27637 15.3553 3.32768 15.4066C3.379 15.4579 3.43426 15.4816 3.49347 15.4816ZM9.06321 10.7527C8.86979 10.7527 8.704 10.6856 8.56979 10.5474C8.43558 10.4092 8.36452 10.2474 8.36452 10.054C8.36452 9.86056 8.43163 9.69477 8.56979 9.56056C8.704 9.42635 8.86979 9.3553 9.06321 9.3553C9.25663 9.3553 9.42242 9.4224 9.55663 9.56056C9.69084 9.69872 9.76189 9.86056 9.76189 10.054C9.76189 10.2474 9.69479 10.4132 9.55663 10.5474C9.41847 10.6816 9.25663 10.7527 9.06321 10.7527ZM5.90531 10.7527C5.71189 10.7527 5.5461 10.6856 5.41189 10.5474C5.27768 10.4092 5.20663 10.2474 5.20663 10.054C5.20663 9.86056 5.27373 9.69477 5.41189 9.56056C5.55005 9.42635 5.71189 9.3553 5.90531 9.3553C6.09873 9.3553 6.26452 9.4224 6.39873 9.56056C6.53294 9.69872 6.604 9.86056 6.604 10.054C6.604 10.2474 6.53689 10.4132 6.39873 10.5474C6.26058 10.6816 6.09873 10.7527 5.90531 10.7527ZM12.2211 10.7527C12.0277 10.7527 11.8619 10.6856 11.7277 10.5474C11.5935 10.4092 11.5224 10.2474 11.5224 10.054C11.5224 9.86056 11.5895 9.69477 11.7277 9.56056C11.8658 9.42635 12.0277 9.3553 12.2211 9.3553C12.4145 9.3553 12.5803 9.4224 12.7145 9.56056C12.8487 9.69872 12.9198 9.86056 12.9198 10.054C12.9198 10.2474 12.8527 10.4132 12.7145 10.5474C12.5764 10.6816 12.4145 10.7527 12.2211 10.7527ZM9.06321 13.5356C8.86979 13.5356 8.704 13.4685 8.56979 13.3303C8.43558 13.1921 8.36452 13.0303 8.36452 12.8369C8.36452 12.6435 8.43163 12.4777 8.56979 12.3435C8.704 12.2092 8.86979 12.1382 9.06321 12.1382C9.25663 12.1382 9.42242 12.2053 9.55663 12.3435C9.69084 12.4777 9.76189 12.6435 9.76189 12.8369C9.76189 13.0303 9.69479 13.1961 9.55663 13.3303C9.41847 13.4645 9.25663 13.5356 9.06321 13.5356ZM5.90531 13.5356C5.71189 13.5356 5.5461 13.4685 5.41189 13.3303C5.27768 13.1921 5.20663 13.0303 5.20663 12.8369C5.20663 12.6435 5.27373 12.4777 5.41189 12.3435C5.5461 12.2092 5.71189 12.1382 5.90531 12.1382C6.09873 12.1382 6.26452 12.2053 6.39873 12.3435C6.53294 12.4777 6.604 12.6435 6.604 12.8369C6.604 13.0303 6.53689 13.1961 6.39873 13.3303C6.26058 13.4645 6.09873 13.5356 5.90531 13.5356ZM12.2211 13.5356C12.0277 13.5356 11.8619 13.4685 11.7277 13.3303C11.5935 13.1921 11.5224 13.0303 11.5224 12.8369C11.5224 12.6435 11.5895 12.4777 11.7277 12.3435C11.8619 12.2092 12.0277 12.1382 12.2211 12.1382C12.4145 12.1382 12.5803 12.2053 12.7145 12.3435C12.8487 12.4777 12.9198 12.6435 12.9198 12.8369C12.9198 13.0303 12.8527 13.1961 12.7145 13.3303C12.5764 13.4645 12.4145 13.5356 12.2211 13.5356Z" fill="white"/>
</svg>
