<svg width="18" height="18" viewBox="0 0 18 18" fill="none" xmlns="http://www.w3.org/2000/svg">
<path d="M8.40864 5.01921V2.25H9.53361V5.01921H8.40864ZM12.9634 6.90863L12.173 6.11104L14.1331 4.13942L14.9235 4.94854L12.9634 6.90863ZM14.0625 10.673V9.54806H16.8317V10.673H14.0625ZM14.1331 16.0629L12.173 14.1028L12.9706 13.3053L14.9423 15.2538L14.1331 16.0629ZM4.98606 6.91582L3.01153 4.94132L3.82065 4.14664L5.77641 6.12548L4.98606 6.91582ZM4.68748 15.4038H7.91824C8.27882 15.4038 8.58772 15.2752 8.84494 15.018C9.10215 14.7608 9.23075 14.4519 9.23075 14.0913C9.23075 13.7307 9.10647 13.423 8.85791 13.1682C8.60936 12.9134 8.30479 12.786 7.94421 12.786H7.10334L6.77884 12.0086C6.59422 11.5769 6.306 11.2343 5.91416 10.981C5.52234 10.7276 5.08941 10.6009 4.61537 10.6009C3.95671 10.6009 3.39781 10.8305 2.93867 11.2896C2.47954 11.7488 2.24998 12.3076 2.24998 12.9663C2.24998 13.6442 2.48676 14.2199 2.96031 14.6935C3.43387 15.167 4.00959 15.4038 4.68748 15.4038ZM4.68748 16.5288C3.70287 16.5288 2.86297 16.1812 2.16778 15.486C1.47259 14.7908 1.125 13.9509 1.125 12.9663C1.125 11.9961 1.46418 11.1718 2.14254 10.4935C2.82091 9.81511 3.64518 9.47593 4.61537 9.47593C5.33171 9.47593 5.98362 9.67425 6.57112 10.0709C7.15862 10.4675 7.58554 10.9976 7.85188 11.661C8.52881 11.661 9.11414 11.8901 9.60789 12.3483C10.1016 12.8064 10.3509 13.4081 10.3557 14.1533C10.3403 14.8177 10.0976 15.3797 9.62737 15.8394C9.15719 16.299 8.58747 16.5288 7.91824 16.5288H4.68748ZM10.3413 14.0091C10.2932 13.8216 10.2451 13.6391 10.1971 13.4617C10.149 13.2843 10.1009 13.1019 10.0528 12.9144C10.6298 12.6721 11.0937 12.2997 11.4447 11.7973C11.7956 11.2949 11.9711 10.7327 11.9711 10.1105C11.9711 9.28554 11.6774 8.57929 11.0899 7.99179C10.5024 7.40429 9.79612 7.11054 8.97112 7.11054C8.2067 7.11054 7.54083 7.36271 6.97352 7.86703C6.40622 8.37137 6.08218 9.00574 6.00141 9.77016C5.81392 9.72208 5.62258 9.67786 5.42739 9.63748C5.23221 9.59709 5.04086 9.55286 4.85336 9.50479C4.99951 8.48171 5.46466 7.63941 6.24879 6.97787C7.03292 6.31633 7.94036 5.98556 8.97112 5.98556C10.1153 5.98556 11.0889 6.38701 11.8918 7.18989C12.6947 7.99277 13.0961 8.96632 13.0961 10.1105C13.0961 10.9913 12.8439 11.7848 12.3396 12.4911C11.8353 13.1973 11.1692 13.7033 10.3413 14.0091Z" fill="white"/>
</svg>
