<svg width="18" height="18" viewBox="0 0 18 18" fill="none" xmlns="http://www.w3.org/2000/svg">
<path d="M6.71975 16.7372C6.51286 16.7372 6.31889 16.7027 6.14217 16.6381C5.96544 16.5734 5.81458 16.4786 5.68527 16.3536C5.55596 16.2329 5.45682 16.0864 5.38355 15.9183C5.31027 15.7502 5.27579 15.5691 5.27579 15.3665C5.27579 15.164 5.31027 14.9829 5.38355 14.8148C5.45682 14.6467 5.55596 14.5045 5.68527 14.3795C5.81458 14.2588 5.96544 14.164 6.14217 14.095C6.31889 14.0303 6.50855 13.9958 6.71975 13.9958C6.96113 13.9958 7.18096 14.039 7.37062 14.1252C7.56027 14.2114 7.71975 14.3321 7.84906 14.4915L7.37493 14.9183C7.28872 14.8191 7.1982 14.7415 7.09475 14.6898C6.9913 14.6381 6.87924 14.6122 6.75424 14.6122C6.64648 14.6122 6.54734 14.6295 6.45682 14.664C6.3663 14.6984 6.28872 14.7502 6.22406 14.8148C6.15941 14.8795 6.11199 14.9614 6.0732 15.0519C6.03872 15.1424 6.01717 15.2458 6.01717 15.3579C6.01717 15.47 6.03441 15.5734 6.0732 15.664C6.10768 15.7588 6.15941 15.8364 6.22406 15.901C6.28872 15.9657 6.3663 16.0174 6.45682 16.0519C6.54734 16.0864 6.64648 16.1036 6.75424 16.1036C6.87924 16.1036 6.9913 16.0777 7.09475 16.026C7.1982 15.9743 7.28872 15.8967 7.37493 15.7976L7.84906 16.2243C7.71975 16.3838 7.56027 16.5045 7.37062 16.5907C7.18096 16.6769 6.96113 16.72 6.71975 16.72V16.7372Z" fill="white"/>
<path d="M9.35766 16.7372C9.14645 16.7372 8.95249 16.7027 8.77576 16.6338C8.59904 16.5648 8.44387 16.47 8.31025 16.345C8.17663 16.22 8.07749 16.0777 8.00421 15.9096C7.93094 15.7458 7.89645 15.5648 7.89645 15.3665C7.89645 15.1683 7.93094 14.9872 8.00421 14.8234C8.07749 14.6596 8.17663 14.5131 8.31025 14.3881C8.44387 14.2631 8.59473 14.1683 8.77576 14.0993C8.95249 14.0303 9.14645 13.9958 9.35766 13.9958C9.56887 13.9958 9.76283 14.0303 9.93956 14.0993C10.1163 14.1683 10.2715 14.2631 10.4008 14.3881C10.5301 14.5131 10.6335 14.6553 10.7068 14.8234C10.7801 14.9915 10.8189 15.1683 10.8189 15.3665C10.8189 15.5648 10.7801 15.7459 10.7068 15.914C10.6335 16.0821 10.5301 16.2243 10.4008 16.3493C10.2715 16.47 10.1163 16.5691 9.93956 16.6338C9.76283 16.7027 9.56887 16.7372 9.35766 16.7372ZM9.35766 16.1209C9.4568 16.1209 9.55163 16.1036 9.63783 16.0691C9.72404 16.0346 9.79732 15.9829 9.86197 15.9183C9.92663 15.8536 9.97404 15.7717 10.0128 15.6812C10.0473 15.5907 10.0689 15.4872 10.0689 15.3752C10.0689 15.2631 10.0516 15.1553 10.0128 15.0648C9.97835 14.9743 9.92663 14.8924 9.86197 14.8277C9.79732 14.7631 9.72404 14.7114 9.63783 14.6769C9.55163 14.6424 9.4568 14.6252 9.35766 14.6252C9.25852 14.6252 9.1637 14.6424 9.07749 14.6769C8.99128 14.7114 8.9137 14.7631 8.85335 14.8277C8.7887 14.8924 8.74128 14.9743 8.70249 15.0648C8.66801 15.1553 8.64645 15.2588 8.64645 15.3752C8.64645 15.4915 8.6637 15.5907 8.70249 15.6812C8.73697 15.776 8.7887 15.8536 8.85335 15.9183C8.91801 15.9829 8.99128 16.0346 9.07749 16.0691C9.1637 16.1036 9.25852 16.1209 9.35766 16.1209Z" fill="white"/>
<path d="M11.0947 16.9957V16.6078L11.9137 15.8405C11.9741 15.7845 12.0172 15.7371 12.043 15.6983C12.0732 15.6552 12.0904 15.6207 12.0991 15.5862C12.1077 15.5517 12.112 15.5216 12.112 15.4914C12.112 15.4224 12.0904 15.3664 12.043 15.3276C11.9956 15.2888 11.9266 15.2673 11.8318 15.2673C11.7542 15.2673 11.6766 15.2845 11.6077 15.319C11.5387 15.3535 11.4827 15.4095 11.4396 15.4785L10.9784 15.2198C11.0603 15.0819 11.1766 14.9698 11.3318 14.8879C11.487 14.806 11.6723 14.7629 11.8878 14.7629C12.0559 14.7629 12.2068 14.7888 12.3318 14.8448C12.4611 14.9009 12.5603 14.9741 12.6292 15.0776C12.7025 15.1767 12.737 15.2974 12.737 15.431C12.737 15.5 12.7284 15.5733 12.7068 15.6423C12.6896 15.7112 12.6508 15.7845 12.5991 15.8664C12.5473 15.944 12.4654 16.0302 12.362 16.1293L11.7111 16.7285L11.6077 16.5086H12.793V17H11.0861L11.0947 16.9957Z" fill="white"/>
<path d="M11.1034 8.63793C11.1034 8.63793 11.1293 8.64224 11.1379 8.65086L11.1508 8.66379L12.362 10.0216C12.362 10.0216 12.375 10.0603 12.362 10.0776L12.3534 10.0905C11.9655 10.5948 11.7629 11.1853 11.7629 11.7974C11.7629 13.3534 13.0258 14.6164 14.5819 14.6164C16.1379 14.6164 17.4008 13.3534 17.4008 11.7974C17.4008 10.2414 16.1379 8.97845 14.5819 8.97845C14.0862 8.97845 13.5862 9.12069 13.1422 9.38793L13.125 9.39655C13.125 9.39655 13.0862 9.40517 13.0689 9.38793L13.056 9.375L11.8448 8.01293C11.8448 8.01293 11.8319 7.97414 11.8448 7.9569L11.8577 7.94396C12.5258 7.17672 12.8922 6.20259 12.8922 5.19396C12.8922 2.87931 11.0086 1 8.69825 1C6.3879 1 4.50428 2.88362 4.50428 5.19396C4.50428 6.20259 4.87066 7.17672 5.53876 7.93965L5.55169 7.95259C5.55169 7.95259 5.56462 7.99138 5.55169 8.00862L5.53876 8.02155L4.32756 9.38362C4.32756 9.38362 4.29307 9.40086 4.27152 9.39224L4.25428 9.38362C3.80169 9.11207 3.31893 8.97414 2.81893 8.97414C1.2629 8.97414 -3.05176e-05 10.2371 -3.05176e-05 11.7931C-3.05176e-05 13.3491 1.2629 14.6121 2.81893 14.6121C4.37497 14.6121 5.6379 13.3491 5.6379 11.7931C5.6379 11.181 5.431 10.5905 5.04307 10.0862L5.03014 10.0733C5.03014 10.0733 5.01721 10.0345 5.03014 10.0172L6.24997 8.64224C6.24997 8.64224 6.28876 8.625 6.306 8.63362L6.32325 8.64655C7.02583 9.12931 7.8448 9.38362 8.69393 9.38362C9.54307 9.38362 10.3577 9.12931 11.0603 8.65086L11.0776 8.64224C11.0776 8.64224 11.0948 8.63362 11.1034 8.63362V8.63793ZM14.5776 13.6681C13.5474 13.6681 12.7112 12.8319 12.7112 11.8017C12.7112 10.7716 13.5474 9.93534 14.5776 9.93534C15.6077 9.93534 16.4439 10.7716 16.4439 11.8017C16.4439 12.8319 15.6077 13.6681 14.5776 13.6681ZM2.81462 13.6681C1.78445 13.6681 0.948245 12.8319 0.948245 11.8017C0.948245 10.7716 1.78445 9.93534 2.81462 9.93534C3.8448 9.93534 4.681 10.7716 4.681 11.8017C4.681 12.8319 3.8448 13.6681 2.81462 13.6681ZM8.69393 8.43965C6.90514 8.43965 5.45256 6.98707 5.45256 5.19828C5.45256 3.40948 6.90514 1.9569 8.69393 1.9569C10.4827 1.9569 11.9353 3.40948 11.9353 5.19828C11.9353 5.93534 11.6896 6.63362 11.2284 7.21552L11.2112 7.23707C11.2112 7.23707 11.1896 7.25431 11.1767 7.25431C11.1767 7.25431 11.1508 7.25 11.1422 7.24138L11.125 7.22414L9.2629 5.13362C9.09049 4.93965 8.78876 4.9181 8.59049 5.09483C8.39652 5.26724 8.37497 5.56896 8.55169 5.76724L10.431 7.87931C10.431 7.87931 10.4439 7.90086 10.4396 7.91379C10.4396 7.92672 10.431 7.93965 10.4181 7.94396L10.3965 7.9569C9.87928 8.28017 9.28876 8.44828 8.68962 8.44828L8.69393 8.43965Z" fill="white"/>
</svg>
