<svg width="18" height="18" viewBox="0 0 18 18" fill="none" xmlns="http://www.w3.org/2000/svg">
<path d="M7.48815 12.0276C7.4171 12.0276 7.35394 12.0118 7.29079 11.9763C7.23158 11.9407 7.18026 11.8934 7.14473 11.8302L6.08684 10.0105C6.05131 9.94732 6.03552 9.88021 6.03552 9.81311C6.03552 9.746 6.05131 9.6789 6.08684 9.61574L7.14473 7.796C7.18026 7.73284 7.23158 7.68547 7.29079 7.64995C7.35 7.61442 7.4171 7.59863 7.48815 7.59863H9.58815C9.65921 7.59863 9.72236 7.61442 9.78552 7.64995C9.84473 7.68547 9.89605 7.73284 9.93158 7.796L10.9895 9.61574C11.025 9.6789 11.0408 9.746 11.0408 9.81311C11.0408 9.88021 11.025 9.94732 10.9895 10.0105L9.93158 11.8302C9.89605 11.8934 9.84473 11.9407 9.78552 11.9763C9.72631 12.0118 9.65921 12.0276 9.58815 12.0276H7.48815ZM7.48026 11.7078H9.5921C9.5921 11.7078 9.61579 11.7078 9.63158 11.6999C9.64342 11.6921 9.65526 11.6842 9.66315 11.6723L10.7092 9.85258C10.7092 9.85258 10.721 9.82495 10.721 9.81311C10.721 9.80126 10.721 9.78547 10.7092 9.77363L9.66315 7.9539C9.66315 7.9539 9.64342 7.93021 9.63158 7.92626C9.61973 7.91837 9.60789 7.91837 9.5921 7.91837H7.48026C7.48026 7.91837 7.45658 7.91837 7.44473 7.92626C7.43289 7.93416 7.425 7.94205 7.4171 7.9539L6.36315 9.77363C6.36315 9.77363 6.35131 9.80126 6.35131 9.81311C6.35131 9.82495 6.35131 9.84074 6.36315 9.85258L7.4171 11.6723C7.4171 11.6723 7.43684 11.696 7.44473 11.6999C7.45658 11.7078 7.46842 11.7078 7.48026 11.7078Z" fill="white"/>
<path d="M9.58816 12.3039H7.48816C7.36974 12.3039 7.25922 12.2723 7.15658 12.217C7.05001 12.1578 6.96711 12.0749 6.9079 11.9684L5.85001 10.1486C5.7908 10.042 5.75922 9.92757 5.75922 9.8131C5.75922 9.69862 5.7908 9.58415 5.85001 9.47757L6.9079 7.65389C6.96711 7.54731 7.05395 7.46441 7.15658 7.4052C7.25922 7.34599 7.36974 7.31836 7.48816 7.31836H9.58816C9.70658 7.31836 9.81711 7.34994 9.91974 7.4052C10.0263 7.46441 10.1092 7.54731 10.1684 7.65389L11.2263 9.47362C11.2855 9.5802 11.3171 9.69467 11.3171 9.8131C11.3171 9.93152 11.2855 10.042 11.2263 10.1486L10.1684 11.9723C10.1092 12.0789 10.0224 12.1618 9.91974 12.221C9.81711 12.2802 9.70658 12.3078 9.58816 12.3078V12.3039ZM7.59869 11.4315H9.47764L10.4092 9.80915L9.47764 8.18678H7.59869L6.66316 9.80915L7.60264 11.4315H7.59869Z" fill="white"/>
<path d="M8.53817 14.3171C6.05133 14.3171 4.03027 12.296 4.03027 9.80916C4.03027 7.32232 6.05133 5.30127 8.53817 5.30127C11.025 5.30127 13.0461 7.32232 13.0461 9.80916C13.0461 12.296 11.025 14.3171 8.53817 14.3171ZM8.53817 6.16969C6.5329 6.16969 4.89869 7.8039 4.89869 9.80916C4.89869 11.8144 6.5329 13.4486 8.53817 13.4486C10.5434 13.4486 12.1776 11.8144 12.1776 9.80916C12.1776 7.8039 10.5434 6.16969 8.53817 6.16969Z" fill="white"/>
<path d="M8.53815 6.16964C8.29736 6.16964 8.10394 5.97622 8.10394 5.73543V3.98279C8.10394 3.74201 8.29736 3.54858 8.53815 3.54858C8.77894 3.54858 8.97236 3.74201 8.97236 3.98279V5.73543C8.97236 5.97622 8.77894 6.16964 8.53815 6.16964Z" fill="white"/>
<path d="M8.53815 4.14075C7.70525 4.14075 7.02631 3.4618 7.02631 2.62891C7.02631 1.79601 7.70525 1.11707 8.53815 1.11707C9.37104 1.11707 10.05 1.79601 10.05 2.62891C10.05 3.4618 9.37104 4.14075 8.53815 4.14075ZM8.53815 1.98154C8.18289 1.98154 7.89473 2.2697 7.89473 2.62496C7.89473 2.98022 8.18289 3.26838 8.53815 3.26838C8.89341 3.26838 9.18157 2.98022 9.18157 2.62496C9.18157 2.2697 8.89341 1.98154 8.53815 1.98154Z" fill="white"/>
<path d="M12.4619 14.2026C12.3513 14.2026 12.2408 14.1592 12.154 14.0763L11.0921 13.0145C10.9224 12.8447 10.9224 12.5684 11.0921 12.3987C11.2619 12.2289 11.5382 12.2289 11.7079 12.3987L12.7697 13.4605C12.9395 13.6302 12.9395 13.9066 12.7697 14.0763C12.6869 14.1592 12.5724 14.2026 12.4619 14.2026Z" fill="white"/>
<path d="M13.4211 16.2434C13.0184 16.2434 12.6355 16.0855 12.3513 15.8013C12.0671 15.5171 11.9092 15.1342 11.9092 14.7316C11.9092 14.3289 12.0671 13.946 12.3513 13.6618C12.9237 13.0895 13.9184 13.0895 14.4908 13.6618C14.775 13.946 14.9329 14.3289 14.9329 14.7316C14.9329 15.1342 14.775 15.5171 14.4908 15.8013C14.2066 16.0855 13.8237 16.2434 13.4211 16.2434ZM13.4211 14.0842C13.2474 14.0842 13.0855 14.1513 12.9671 14.2737C12.8447 14.396 12.7776 14.5579 12.7776 14.7316C12.7776 14.9052 12.8447 15.0671 12.9671 15.1895C13.2118 15.4342 13.6342 15.4342 13.8789 15.1895C14.0013 15.0671 14.0684 14.9052 14.0684 14.7316C14.0684 14.5579 14.0013 14.396 13.8789 14.2737C13.7566 14.1513 13.5947 14.0842 13.4211 14.0842Z" fill="white"/>
<path d="M14.5145 10.2433H12.6237C12.3829 10.2433 12.1895 10.0499 12.1895 9.80909C12.1895 9.5683 12.3829 9.37488 12.6237 9.37488H14.5145C14.7553 9.37488 14.9487 9.5683 14.9487 9.80909C14.9487 10.0499 14.7553 10.2433 14.5145 10.2433Z" fill="white"/>
<path d="M15.8842 11.4907C14.9566 11.4907 14.2026 10.7368 14.2026 9.80914C14.2026 8.88151 14.9566 8.12756 15.8842 8.12756C16.8118 8.12756 17.5658 8.88151 17.5658 9.80914C17.5658 10.7368 16.8118 11.4907 15.8842 11.4907ZM15.8842 8.99204C15.4342 8.99204 15.0711 9.35914 15.0711 9.80519C15.0711 10.2512 15.4382 10.6184 15.8842 10.6184C16.3303 10.6184 16.6974 10.2512 16.6974 9.80519C16.6974 9.35914 16.3303 8.99204 15.8842 8.99204Z" fill="white"/>
<path d="M4.87499 8.34075C4.78815 8.34075 4.70131 8.31706 4.62631 8.2618L2.97236 7.10127C2.77499 6.96312 2.72763 6.69075 2.86578 6.49733C3.00394 6.29996 3.27631 6.25259 3.46973 6.39075L5.12368 7.55127C5.32105 7.68943 5.36842 7.9618 5.23026 8.15522C5.14736 8.27364 5.00921 8.34075 4.87499 8.34075Z" fill="white"/>
<path d="M2.09605 7.63814C1.75263 7.63814 1.4171 7.53156 1.13289 7.33024C0.374997 6.79735 0.189471 5.7434 0.722366 4.9855C0.982892 4.6184 1.36579 4.37366 1.81184 4.29471C2.25394 4.21971 2.7 4.3184 3.0671 4.57498C3.43421 4.8355 3.67894 5.2184 3.75789 5.66445C3.83684 6.10656 3.73421 6.55261 3.47763 6.91971C3.22105 7.28682 2.83421 7.53156 2.3921 7.6105C2.29342 7.62629 2.19473 7.63419 2.1 7.63419L2.09605 7.63814ZM2.1 5.13945C2.05263 5.13945 2.00526 5.1434 1.95789 5.15129C1.74473 5.18682 1.55526 5.30919 1.43289 5.48682C1.17631 5.85393 1.26316 6.36314 1.63026 6.61971C1.80789 6.74603 2.025 6.7934 2.23816 6.75393C2.45131 6.7184 2.64079 6.59603 2.76315 6.4184C2.88947 6.24077 2.93684 6.02366 2.90131 5.8105C2.86579 5.59735 2.74342 5.40787 2.56579 5.2855C2.42763 5.18682 2.26579 5.1355 2.1 5.1355V5.13945Z" fill="white"/>
<path d="M4.24736 14.4868C4.13684 14.4868 4.02631 14.4433 3.93947 14.3604C3.76973 14.1907 3.76973 13.9144 3.93947 13.7447L5.0921 12.592C5.26184 12.4223 5.53815 12.4223 5.70789 12.592C5.87762 12.7618 5.87762 13.0381 5.70789 13.2078L4.55526 14.3604C4.47236 14.4433 4.35789 14.4868 4.24736 14.4868Z" fill="white"/>
<path d="M3.28025 16.7012C2.84999 16.7012 2.41973 16.5354 2.09209 16.2078C1.43683 15.5525 1.43683 14.4828 2.09209 13.8275C2.74736 13.1722 3.81709 13.1722 4.47236 13.8275C5.12762 14.4828 5.12762 15.5525 4.47236 16.2078C4.14473 16.5354 3.71446 16.7012 3.2842 16.7012H3.28025ZM3.28025 14.2065C3.07104 14.2065 2.86183 14.2854 2.70394 14.4433C2.38815 14.7591 2.38815 15.2762 2.70394 15.5959C3.01973 15.9117 3.53683 15.9157 3.85657 15.5959C4.17236 15.2801 4.17236 14.763 3.85657 14.4433C3.69867 14.2854 3.48946 14.2065 3.28025 14.2065Z" fill="white"/>
</svg>
