<svg width="18" height="18" viewBox="0 0 18 18" fill="none" xmlns="http://www.w3.org/2000/svg">
<path d="M16.2671 9.01966C15.9987 9.01966 15.7816 8.80256 15.7816 8.53414C15.7816 7.83151 15.2092 7.25914 14.5066 7.25914H7.95C7.68158 7.25914 7.46448 7.04203 7.46448 6.77361C7.46448 6.50519 7.68158 6.28809 7.95 6.28809H14.5066C15.7461 6.28809 16.7526 7.29466 16.7526 8.53414C16.7526 8.80256 16.5355 9.01966 16.2671 9.01966Z" fill="white"/>
<path d="M14.5066 15.975H6.36318C5.12371 15.975 4.11713 14.9684 4.11713 13.7289C4.11713 13.4605 4.33423 13.2434 4.60265 13.2434C4.87107 13.2434 5.08818 13.4605 5.08818 13.7289C5.08818 14.4316 5.66055 15.0039 6.36318 15.0039H14.5066C15.2092 15.0039 15.7816 14.4316 15.7816 13.7289C15.7816 13.4605 15.9987 13.2434 16.2671 13.2434C16.5355 13.2434 16.7527 13.4605 16.7527 13.7289C16.7527 14.9684 15.7461 15.975 14.5066 15.975Z" fill="white"/>
<path d="M10.5948 8.00928C10.4605 8.00928 10.35 8.05665 10.2553 8.15138C10.1605 8.24612 10.1171 8.35665 10.1171 8.49086V13.579C10.1171 13.7132 10.1645 13.8237 10.2592 13.9185C10.354 14.0132 10.4645 14.0606 10.5987 14.0606C10.7329 14.0606 10.8434 14.0132 10.9382 13.9185C11.0329 13.8237 11.0763 13.7132 11.0763 13.579V8.49086C11.0763 8.35665 11.029 8.24612 10.9342 8.15138C10.8395 8.05665 10.729 8.00928 10.5948 8.00928Z" fill="white"/>
<path d="M9.18161 9.17773C9.0474 9.17773 8.93687 9.2251 8.84214 9.31984C8.7474 9.41458 8.70398 9.5251 8.70398 9.65931V13.583C8.70398 13.7172 8.75135 13.8277 8.84608 13.9225C8.94082 14.0172 9.05135 14.0646 9.18556 14.0646C9.31977 14.0646 9.43029 14.0172 9.52503 13.9225C9.61977 13.8277 9.66319 13.7172 9.66319 13.583V9.65931C9.66319 9.5251 9.61582 9.41458 9.52109 9.31984C9.42635 9.2251 9.31582 9.17773 9.18161 9.17773Z" fill="white"/>
<path d="M7.76454 10.3975C7.63033 10.3975 7.5198 10.4448 7.42506 10.5396C7.33033 10.6343 7.28296 10.7448 7.28296 10.879V13.579C7.28296 13.7133 7.33033 13.8238 7.42506 13.9185C7.5198 14.0133 7.63033 14.0606 7.76454 14.0606C7.89875 14.0606 8.01322 14.0133 8.10401 13.9185C8.19875 13.8238 8.24612 13.7133 8.24612 13.579V10.879C8.24612 10.7448 8.19875 10.6343 8.10401 10.5396C8.00928 10.4448 7.89875 10.3975 7.76454 10.3975Z" fill="white"/>
<path d="M6.01188 13.9184C6.10661 14.0131 6.21714 14.0605 6.3553 14.0605C6.49346 14.0605 6.60003 14.0131 6.69477 13.9184C6.78951 13.8237 6.83688 13.7132 6.83688 13.5789V11.8026C6.83688 11.6684 6.78951 11.5579 6.69477 11.4632C6.60003 11.3684 6.48951 11.321 6.3553 11.321C6.22109 11.321 6.10661 11.3684 6.01582 11.4632C5.92109 11.5579 5.87372 11.6684 5.87372 11.8026V13.5789C5.87372 13.7132 5.92109 13.8237 6.01582 13.9184H6.01188Z" fill="white"/>
<path d="M12.0079 9.17773C11.8737 9.17773 11.7592 9.2251 11.6645 9.31984C11.5698 9.41458 11.5224 9.5251 11.5224 9.65931V13.583C11.5224 13.7172 11.5698 13.8277 11.6645 13.9225C11.7592 14.0172 11.8698 14.0646 12.004 14.0646C12.1382 14.0646 12.2487 14.0172 12.3435 13.9225C12.4382 13.8277 12.4856 13.7172 12.4856 13.583V9.65931C12.4856 9.5251 12.4382 9.41458 12.3474 9.31984C12.2527 9.2251 12.1421 9.17773 12.0079 9.17773Z" fill="white"/>
<path d="M13.4211 10.3975C13.2869 10.3975 13.1724 10.4448 13.0777 10.5396C12.9829 10.6343 12.9355 10.7448 12.9355 10.879V13.579C12.9355 13.7133 12.9829 13.8238 13.0777 13.9185C13.1724 14.0133 13.2829 14.0606 13.4171 14.0606C13.5513 14.0606 13.6658 14.0133 13.7605 13.9185C13.8553 13.8238 13.9027 13.7133 13.9027 13.579V10.879C13.9027 10.7448 13.8553 10.6343 13.7605 10.5396C13.6658 10.4448 13.5553 10.3975 13.4211 10.3975Z" fill="white"/>
<path d="M14.8342 11.321C14.7 11.321 14.5895 11.3684 14.4948 11.4632C14.4 11.5579 14.3527 11.6684 14.3527 11.8026V13.5789C14.3527 13.7132 14.4 13.8237 14.4908 13.9184C14.5816 14.0131 14.6961 14.0605 14.8303 14.0605C14.9645 14.0605 15.079 14.0131 15.1737 13.9184C15.2685 13.8237 15.3158 13.7132 15.3158 13.5789V11.8026C15.3158 11.6684 15.2685 11.5579 15.1737 11.4632C15.079 11.3684 14.9685 11.321 14.8342 11.321Z" fill="white"/>
<path d="M1.83948 10.4171H1.83159C1.72106 10.4171 1.62632 10.3777 1.54738 10.3027C1.46054 10.2158 1.41711 10.1171 1.41711 10.0066C1.41711 9.89609 1.46054 9.79346 1.54343 9.71451L2.14343 9.11451C2.30132 8.96057 2.54606 8.96057 2.71185 9.10662C2.71185 9.10662 2.71185 9.10662 2.7158 9.10662C2.79869 9.18557 2.84211 9.2882 2.83817 9.39872C2.83817 9.5053 2.79475 9.60004 2.7158 9.68293L2.12369 10.2948C2.04869 10.3737 1.95001 10.4132 1.83948 10.4132V10.4171Z" fill="white"/>
<path d="M6.41449 10.2987L5.82238 9.68684C5.74343 9.60395 5.70001 9.50921 5.70001 9.40263C5.70001 9.2921 5.73949 9.18947 5.82238 9.11053C5.82238 9.11053 5.82238 9.11053 5.82633 9.11053C5.99212 8.96447 6.23685 8.96447 6.39475 9.11842L6.99475 9.71842C7.07764 9.79737 7.12107 9.9 7.12107 10.0105C7.12107 10.1211 7.07764 10.2197 6.9908 10.3066C6.90791 10.3776 6.81317 10.4171 6.70659 10.4211H6.6987C6.58817 10.4211 6.49343 10.3816 6.41449 10.3026V10.2987Z" fill="white"/>
<path d="M4.2671 11.3802C4.15263 11.3802 4.05395 11.3407 3.97895 11.2617C3.90395 11.1828 3.86447 11.0841 3.86447 10.9736V10.0223C3.86447 9.91174 3.90395 9.80911 3.98289 9.73411C4.14079 9.58017 4.40921 9.58017 4.56316 9.73411C4.63816 9.80911 4.67763 9.91174 4.67763 10.0223V10.9736C4.67763 11.0881 4.63816 11.1867 4.55921 11.2617C4.48026 11.3407 4.38158 11.3802 4.2671 11.3802Z" fill="white"/>
<path d="M4.26711 9.25651C3.60395 9.25651 3.02764 9.01572 2.55395 8.54204C2.08027 8.06835 1.83948 7.49204 1.83948 6.82888C1.83948 6.39862 1.94211 5.99993 2.15132 5.64862C2.35264 5.30125 2.63685 5.00914 2.98816 4.7802C3.03158 4.75256 3.07895 4.74072 3.12632 4.74072H5.4079C5.45921 4.74072 5.50658 4.75651 5.55 4.78414C5.89737 5.01309 6.18158 5.3052 6.3829 5.65256C6.58816 6.00783 6.69474 6.40256 6.69474 6.83283C6.69474 7.49599 6.45395 8.0723 5.98027 8.54599C5.50658 9.01967 4.93027 9.26046 4.26711 9.26046V9.25651ZM3.33553 5.64072C3.1579 5.77493 3.01579 5.94072 2.91316 6.13414C2.79869 6.35125 2.73948 6.5802 2.73948 6.82888C2.73948 7.2552 2.88553 7.60651 3.18553 7.90651C3.48553 8.20651 3.83685 8.35256 4.26316 8.35256C4.68948 8.35256 5.04079 8.20651 5.34079 7.90651C5.64079 7.60651 5.78685 7.2552 5.78685 6.82888C5.78685 6.5802 5.72764 6.3473 5.61316 6.13414C5.50658 5.93678 5.36842 5.77493 5.19079 5.64072H3.33158H3.33553Z" fill="white"/>
<path d="M4.89081 3.59212H3.63949C3.60791 3.59212 3.57634 3.58028 3.55265 3.55659C3.52897 3.53291 3.51713 3.50133 3.52107 3.46975C3.53291 3.27238 3.60791 3.10265 3.75002 2.96844C4.03423 2.69607 4.49213 2.69607 4.77634 2.96844C4.91844 3.10265 4.99739 3.27238 5.00528 3.46975C5.00528 3.50133 4.99344 3.53291 4.9737 3.55659C4.95002 3.58028 4.91844 3.59212 4.88686 3.59212H4.89081Z" fill="white"/>
<path d="M5.29738 4.47228H3.2408C3.15001 4.47228 3.07106 4.4407 3.01185 4.37754C2.94869 4.31438 2.91711 4.23544 2.91711 4.14859C2.91711 4.06175 2.94869 3.97886 3.01185 3.91965C3.07501 3.86044 3.15396 3.82886 3.2408 3.82886H5.29738C5.38817 3.82886 5.46711 3.86044 5.52632 3.92359C5.58554 3.9828 5.62106 4.0657 5.62106 4.15254C5.62106 4.23938 5.58948 4.32228 5.52632 4.38149C5.46317 4.4407 5.38422 4.47228 5.29738 4.47228Z" fill="white"/>
</svg>
