<svg width="32" height="32" viewBox="0 0 32 32" fill="none" xmlns="http://www.w3.org/2000/svg">
<path fill-rule="evenodd" clip-rule="evenodd" d="M7.63507 4.12635C7.81051 3.95793 8.02806 3.8667 8.28771 3.8667C8.54736 3.8667 8.75788 3.95091 8.93332 4.12635C9.10876 4.30179 9.18595 4.51933 9.18595 4.77898V18.3399C8.90091 18.238 8.59379 18.1825 8.27371 18.1825C7.95622 18.1825 7.65149 18.2371 7.36841 18.3375V4.77898C7.36841 4.51231 7.45964 4.30179 7.63507 4.12635ZM7.36841 23.4451V27.8737C7.36841 28.1334 7.45262 28.3509 7.62104 28.5263C7.78946 28.7018 8.007 28.786 8.26665 28.786C8.5263 28.786 8.75086 28.6948 8.91929 28.5263C9.09472 28.3509 9.18595 28.1334 9.18595 27.8737V23.4426C8.90091 23.5445 8.59379 23.6 8.27371 23.6C7.95622 23.6 7.65149 23.5454 7.36841 23.4451Z" fill="white"/>
<path d="M8.2736 17.3824C6.33676 17.3824 4.75781 18.9614 4.75781 20.8982C4.75781 22.8351 6.33676 24.414 8.2736 24.414C10.2104 24.414 11.7894 22.8351 11.7894 20.8982C11.7894 18.9614 10.2104 17.3824 8.2736 17.3824ZM8.2736 22.8C7.22097 22.8 6.37185 21.9439 6.37185 20.8982C6.37185 19.8526 7.22799 18.9965 8.2736 18.9965C9.31922 18.9965 10.1754 19.8526 10.1754 20.8982C10.1754 21.9439 9.31922 22.8 8.2736 22.8Z" fill="white"/>
<path fill-rule="evenodd" clip-rule="evenodd" d="M15.2631 4.12635C15.4385 3.95091 15.649 3.8667 15.9157 3.8667H15.9227C16.1824 3.8667 16.3929 3.95091 16.5683 4.12635C16.7438 4.30179 16.828 4.51933 16.828 4.77898V10.0126C16.541 9.9091 16.2314 9.85266 15.9087 9.85266C15.5912 9.85266 15.2865 9.90728 15.0034 10.0076V4.77898C15.0034 4.51933 15.0876 4.30179 15.2631 4.12635ZM15.0034 15.1152V27.8737C15.0034 28.1334 15.0876 28.3509 15.2631 28.5263C15.4385 28.7018 15.649 28.786 15.9087 28.786C16.1683 28.786 16.3859 28.6948 16.5613 28.5263C16.7368 28.3509 16.828 28.1404 16.828 27.8737V15.1102C16.541 15.2138 16.2314 15.2702 15.9087 15.2702C15.5912 15.2702 15.2865 15.2156 15.0034 15.1152Z" fill="white"/>
<path d="M15.9086 9.05261C13.9718 9.05261 12.3928 10.6316 12.3928 12.5684C12.3928 14.5052 13.9718 16.0842 15.9086 16.0842C17.8455 16.0842 19.4244 14.5052 19.4244 12.5684C19.4244 10.6316 17.8455 9.05261 15.9086 9.05261ZM15.9086 14.4702C14.856 14.4702 14.0069 13.614 14.0069 12.5684C14.0069 11.5228 14.863 10.6666 15.9086 10.6666C16.9542 10.6666 17.8104 11.5228 17.8104 12.5684C17.8104 13.614 16.9542 14.4702 15.9086 14.4702Z" fill="white"/>
<path fill-rule="evenodd" clip-rule="evenodd" d="M22.8981 4.12635C23.0735 3.95091 23.284 3.8667 23.5507 3.8667H23.5577C23.8174 3.8667 24.0279 3.95091 24.2033 4.12635C24.3788 4.30179 24.463 4.51933 24.463 4.77898V15.6337C24.176 15.5302 23.8664 15.4737 23.5437 15.4737C23.2262 15.4737 22.9215 15.5283 22.6384 15.6287V4.77898C22.6384 4.51933 22.7226 4.30179 22.8981 4.12635ZM22.6384 20.7363V27.8737C22.6384 28.1334 22.7226 28.3509 22.8981 28.5263C23.0735 28.7018 23.284 28.786 23.5437 28.786C23.8033 28.786 24.0209 28.6948 24.1963 28.5263C24.3718 28.3509 24.463 28.1334 24.463 27.8737V20.7313C24.176 20.8348 23.8664 20.8913 23.5437 20.8913C23.2262 20.8913 22.9215 20.8367 22.6384 20.7363Z" fill="white"/>
<path d="M23.5439 14.6737C21.607 14.6737 20.0281 16.2527 20.0281 18.1895C20.0281 20.1263 21.607 21.7053 23.5439 21.7053C25.4807 21.7053 27.0597 20.1263 27.0597 18.1895C27.0597 16.2527 25.4807 14.6737 23.5439 14.6737ZM23.5439 20.0912C22.4912 20.0912 21.6421 19.2351 21.6421 18.1895C21.6421 17.1439 22.4983 16.2877 23.5439 16.2877C24.5895 16.2877 25.4456 17.1439 25.4456 18.1895C25.4456 19.2351 24.5895 20.0912 23.5439 20.0912Z" fill="white"/>
</svg>
