<svg width="27" height="28" viewBox="0 0 27 28" fill="none" xmlns="http://www.w3.org/2000/svg">
<path d="M15.424 27.3334H11.4938C11.223 27.3334 10.9897 27.2398 10.7843 27.0714C10.5789 26.8936 10.4575 26.6691 10.4109 26.3977L9.93476 23.0948C9.48666 22.9451 9.01989 22.7299 8.51578 22.4398C8.01167 22.1591 7.58224 21.8504 7.20883 21.5322L4.18417 22.8983C3.92278 23.0106 3.66139 23.02 3.4 22.9358C3.13861 22.8515 2.93323 22.6831 2.78387 22.4211L0.814104 18.9498C0.674074 18.7065 0.627397 18.4539 0.70208 18.1825C0.767427 17.9112 0.907458 17.696 1.13151 17.5276L3.8481 15.5065C3.81076 15.2726 3.77342 15.02 3.75474 14.758C3.73607 14.496 3.72674 14.2434 3.72674 14.0094C3.72674 13.7849 3.73607 13.5416 3.75474 13.2796C3.77342 13.0176 3.80142 12.7556 3.8481 12.4843L1.13151 10.4632C0.916793 10.2948 0.767427 10.0796 0.70208 9.80827C0.636732 9.53692 0.674074 9.28429 0.82344 9.04102L2.7932 5.58839C2.94257 5.34511 3.13861 5.17669 3.4 5.08312C3.66139 4.99891 3.91345 5.01763 4.17484 5.12055L7.20883 6.46792C7.60092 6.14979 8.04901 5.84102 8.53445 5.56967C9.01989 5.28897 9.48666 5.07377 9.93476 4.93341L10.4109 1.60242C10.4575 1.33108 10.5789 1.10651 10.7843 0.928736C10.9897 0.750959 11.2324 0.666748 11.4938 0.666748H15.424C15.6947 0.666748 15.9281 0.750959 16.1428 0.928736C16.3482 1.10651 16.4788 1.33108 16.5255 1.60242L17.0016 4.9147C17.4777 5.09248 17.9538 5.30768 18.4113 5.56967C18.8687 5.8223 19.2888 6.12172 19.6809 6.46792L22.7616 5.12991C23.0229 5.01763 23.2843 5.00827 23.5364 5.08312C23.7978 5.16733 23.9938 5.3264 24.1432 5.57903L26.1129 9.0223C26.253 9.26558 26.2997 9.52757 26.2436 9.79891C26.1876 10.0703 26.0383 10.2948 25.8049 10.4632L23.0323 12.4936C23.0883 12.7556 23.1256 13.0083 23.1443 13.2703C23.1536 13.5229 23.163 13.7662 23.163 14.0001C23.163 14.2246 23.1536 14.4586 23.135 14.7112C23.1163 14.9638 23.079 15.2258 23.0229 15.5065L25.7769 17.5276C26.0009 17.6866 26.141 17.9018 26.2063 18.1732C26.2716 18.4445 26.225 18.7065 26.0756 18.9498L24.1152 22.4211C23.9658 22.6738 23.7604 22.8422 23.499 22.9264C23.2377 23.0106 22.9763 23.0013 22.7055 22.889L19.6809 21.5229C19.2701 21.8597 18.8407 22.1685 18.3833 22.4492C17.9258 22.7299 17.4591 22.9358 16.9923 23.0855L16.5162 26.3977C16.4695 26.6691 16.3388 26.8936 16.1334 27.0714C15.9374 27.2398 15.6947 27.3334 15.424 27.3334ZM13.4449 18.0422C14.5651 18.0422 15.5173 17.6492 16.3015 16.8632C17.0856 16.0773 17.4777 15.1229 17.4777 14.0001C17.4777 12.8773 17.0856 11.9229 16.3015 11.1369C15.5173 10.351 14.5651 9.95798 13.4449 9.95798C12.3246 9.95798 11.3724 10.351 10.5882 11.1369C9.80406 11.9229 9.41198 12.8773 9.41198 14.0001C9.41198 15.1229 9.80406 16.0773 10.5882 16.8632C11.3724 17.6492 12.3246 18.0422 13.4449 18.0422ZM13.4449 16.2738C12.8194 16.2738 12.2779 16.0492 11.8392 15.6094C11.4004 15.1697 11.1764 14.627 11.1764 14.0001C11.1764 13.3732 11.4004 12.8305 11.8392 12.3907C12.2779 11.951 12.8194 11.7264 13.4449 11.7264C14.0797 11.7264 14.6118 11.951 15.0599 12.3907C15.4986 12.8398 15.7227 13.3732 15.7227 14.0001C15.7227 14.627 15.4986 15.1697 15.0599 15.6094C14.6211 16.0492 14.0797 16.2738 13.4449 16.2738ZM11.9979 25.565H14.9012L15.4053 21.7007C16.1428 21.5135 16.8149 21.2422 17.4404 20.8773C18.0659 20.5124 18.6633 20.0539 19.2421 19.4925L22.8362 21.0363L24.2272 18.5849L21.0532 16.227C21.1559 15.8246 21.2306 15.4504 21.2772 15.0855C21.3239 14.7205 21.3519 14.3556 21.3519 13.9907C21.3519 13.6071 21.3332 13.2422 21.2866 12.8866C21.2399 12.5311 21.1652 12.1662 21.0532 11.7825L24.2552 9.39657L22.8642 6.94511L19.2234 8.49833C18.738 7.96499 18.1592 7.4878 17.4777 7.0761C16.7963 6.66441 16.0961 6.40242 15.3866 6.28078L14.9198 2.41646H11.9979L11.5498 6.28078C10.7936 6.43985 10.0935 6.70184 9.45865 7.06675C8.82385 7.43166 8.22639 7.90885 7.66626 8.48897L4.05348 6.95447L2.66251 9.40593L5.8272 11.7451C5.72451 12.1007 5.64049 12.4656 5.59381 12.8398C5.5378 13.2141 5.51913 13.6071 5.51913 14.0094C5.51913 14.3931 5.54713 14.7673 5.59381 15.1322C5.64982 15.4972 5.72451 15.8621 5.81786 16.227L2.66251 18.5849L4.05348 21.0363L7.64759 19.4925C8.19838 20.0539 8.79584 20.5217 9.43065 20.8866C10.0655 21.2515 10.7656 21.5229 11.5218 21.71L11.9979 25.565Z" fill="white"/>
</svg>
