<svg width="18" height="18" viewBox="0 0 18 18" fill="none" xmlns="http://www.w3.org/2000/svg">
<path d="M11.4958 13.4276C11.7513 13.4276 11.9721 13.3367 12.1497 13.1591C12.3272 12.9773 12.4181 12.7608 12.4181 12.5009C12.4181 12.2411 12.3272 12.0246 12.1497 11.8471C11.9678 11.6696 11.7513 11.5786 11.4915 11.5786C11.2317 11.5786 11.0152 11.6696 10.8376 11.8471C10.6601 12.029 10.5691 12.2455 10.5691 12.5053C10.5691 12.7651 10.6601 12.9816 10.8376 13.1591C11.0195 13.3367 11.236 13.4276 11.4958 13.4276ZM6.94046 13.0509C7.03572 13.1461 7.15264 13.1938 7.28687 13.1938C7.42111 13.1938 7.53369 13.1461 7.63329 13.0509L12.0414 8.64276C12.1367 8.54317 12.1843 8.42625 12.1843 8.29202C12.1843 8.15778 12.1367 8.0452 12.0371 7.94993C11.9375 7.85467 11.8249 7.80704 11.6863 7.80704C11.5478 7.80704 11.4352 7.85467 11.3399 7.94993L6.93613 12.3667C6.84087 12.462 6.79323 12.5746 6.79323 12.7088C6.79323 12.843 6.84087 12.9556 6.94046 13.0509ZM7.49905 9.43085C7.75453 9.43085 7.97537 9.33992 8.15291 9.16238C8.33045 8.98052 8.42138 8.76401 8.42138 8.5042C8.42138 8.24439 8.33045 8.02788 8.15291 7.85034C7.97104 7.6728 7.75453 7.58187 7.49472 7.58187C7.23491 7.58187 7.0184 7.6728 6.84087 7.85034C6.66333 8.03221 6.5724 8.24872 6.5724 8.50853C6.5724 8.76834 6.66333 8.98485 6.84087 9.16238C7.02273 9.33992 7.23924 9.43085 7.49905 9.43085ZM9.49526 17C7.64195 17 6.09608 16.3635 4.85765 15.0904C3.61922 13.8173 3 12.2325 3 10.3359C3 9.47849 3.19486 8.62111 3.5889 7.76374C3.98295 6.90636 4.47226 6.08363 5.05683 5.29554C5.64574 4.50744 6.27794 3.76698 6.95778 3.07848C7.63762 2.38999 8.27415 1.77943 8.85873 1.24682C8.95399 1.16455 9.05359 1.10392 9.16184 1.06062C9.26577 1.01732 9.37835 1 9.49526 1C9.61218 1 9.72043 1.02165 9.82436 1.06062C9.92828 1.10392 10.0279 1.16455 10.1231 1.24682C10.712 1.7751 11.3442 2.38999 12.0284 3.08281C12.7126 3.77564 13.3448 4.5161 13.9294 5.29987C14.5139 6.08796 15.0032 6.90636 15.3973 7.76374C15.7913 8.62111 15.9862 9.47849 15.9862 10.3359C15.9862 12.2325 15.367 13.8173 14.1286 15.0904C12.8901 16.3635 11.3442 17 9.49093 17H9.49526ZM9.49526 16.0171C11.0801 16.0171 12.3922 15.4758 13.4401 14.3932C14.488 13.3107 15.0076 11.9553 15.0076 10.3229C15.0076 9.21001 14.5399 7.9456 13.6003 6.52964C12.6606 5.11367 11.2923 3.60244 9.49526 1.99594C7.69391 3.60244 6.32558 5.11367 5.39026 6.52964C4.45061 7.9456 3.98295 9.21001 3.98295 10.3229C3.98295 11.9553 4.5069 13.3107 5.55047 14.3932C6.59838 15.4758 7.91042 16.0171 9.49526 16.0171Z" fill="white"/>
</svg>
