<svg width="18" height="18" viewBox="0 0 18 18" fill="none" xmlns="http://www.w3.org/2000/svg">
<path d="M6.80921 13.9105C6.50921 13.9105 6.26842 13.6657 6.26842 13.3697V9.75783C6.26842 9.45783 6.51315 9.21704 6.80921 9.21704C7.10526 9.21704 7.35 9.46178 7.35 9.75783V13.3697C7.35 13.6697 7.10526 13.9105 6.80921 13.9105Z" fill="white"/>
<path d="M2.82236 12.9987C2.75131 12.9987 2.68026 12.9829 2.60921 12.9553C2.475 12.9 2.37236 12.7934 2.32105 12.6592C2.26578 12.525 2.26973 12.3789 2.32105 12.2447L3.47368 9.54473C3.52894 9.41052 3.63552 9.30788 3.76973 9.25657C3.90789 9.2013 4.05394 9.20525 4.18421 9.26051C4.31842 9.31578 4.42105 9.42236 4.47236 9.55657C4.52763 9.69078 4.52368 9.83683 4.46842 9.97104L3.31578 12.671C3.22894 12.8763 3.02763 12.9987 2.81842 12.9987H2.82236Z" fill="white"/>
<path d="M10.796 12.9987C10.7289 12.9987 10.6579 12.9869 10.5947 12.9593C10.4605 12.904 10.3539 12.8014 10.2987 12.6711L9.14604 9.97111C9.09078 9.8369 9.08683 9.69084 9.1421 9.55663C9.19736 9.42242 9.29999 9.31584 9.43025 9.26058C9.69867 9.14611 10.0263 9.28032 10.1408 9.54479L11.2934 12.2448C11.3487 12.379 11.3526 12.5251 11.2974 12.6593C11.2421 12.7935 11.1395 12.9001 11.0053 12.9553C10.9381 12.9829 10.8631 12.9987 10.7921 12.9987H10.796Z" fill="white"/>
<path d="M10.4882 8.09988H3.13026C2.025 8.09988 1.125 7.19988 1.125 6.09462C1.125 4.98936 2.025 4.08936 3.13026 4.08936H10.4882C11.5934 4.08936 12.4934 4.98936 12.4934 6.09462C12.4934 7.19988 11.5934 8.09988 10.4882 8.09988ZM3.13026 5.08409C2.57368 5.08409 2.11974 5.53804 2.11974 6.09462C2.11974 6.6512 2.57368 7.10515 3.13026 7.10515H10.4882C11.0447 7.10515 11.4987 6.6512 11.4987 6.09462C11.4987 5.53804 11.0447 5.08409 10.4882 5.08409H3.13026Z" fill="white"/>
<path d="M16.4053 15.7025H12.3513C12.2171 15.7025 12.1026 15.6552 12.0118 15.5644C11.9211 15.4736 11.8737 15.3591 11.8737 15.2249C11.8737 15.0907 11.9211 14.9762 12.0118 14.8854C12.1026 14.7946 12.2171 14.7512 12.3513 14.7512H16.4053C16.5395 14.7512 16.654 14.7986 16.7447 14.8894C16.8355 14.9802 16.8829 15.0946 16.8829 15.2289C16.8829 15.3631 16.8355 15.4775 16.7447 15.5683C16.654 15.6591 16.5395 15.7025 16.4053 15.7025Z" fill="white"/>
<path d="M14.3763 13.6459C14.2421 13.6459 14.1276 13.5985 14.0368 13.5077C13.9461 13.4169 13.9026 13.3024 13.9026 13.1682V11.5498H12.3553C12.2211 11.5498 12.1066 11.5024 12.0158 11.4116C11.925 11.3209 11.8776 11.2064 11.8776 11.0722C11.8776 10.938 11.925 10.8235 12.0158 10.7327C12.1066 10.6419 12.2211 10.5985 12.3553 10.5985H13.9026V9.05112C13.9026 8.91691 13.95 8.80243 14.0408 8.71164C14.1316 8.62085 14.2461 8.57349 14.3803 8.57349C14.5145 8.57349 14.629 8.62085 14.7197 8.71164C14.8105 8.80243 14.854 8.91691 14.854 9.05112V10.5985H16.4053C16.5395 10.5985 16.654 10.6459 16.7447 10.7366C16.8355 10.8274 16.8829 10.9419 16.8829 11.0761C16.8829 11.2103 16.8355 11.3248 16.7447 11.4156C16.654 11.5064 16.5395 11.5498 16.4053 11.5498H14.854V13.1682C14.854 13.3024 14.8066 13.4169 14.7158 13.5077C14.625 13.5985 14.5105 13.6459 14.3724 13.6459H14.3763Z" fill="white"/>
</svg>
