<svg width="18" height="18" viewBox="0 0 18 18" fill="none" xmlns="http://www.w3.org/2000/svg">
<path d="M8.96052 10.9381C8.66052 10.9381 8.41183 11.1828 8.41183 11.4868V15.9434C8.41183 16.2434 8.65657 16.4921 8.96052 16.4921C9.26447 16.4921 9.5092 16.2473 9.5092 15.9434V11.4868C9.5092 11.1868 9.26447 10.9381 8.96052 10.9381Z" fill="white"/>
<path d="M3.62763 15.3197C3.90394 15.4381 4.22763 15.3079 4.34605 15.0316L5.77105 11.7C5.83026 11.5658 5.83026 11.4158 5.775 11.2816C5.71973 11.1473 5.6171 11.0408 5.48289 10.9816C5.34868 10.9223 5.19868 10.9223 5.06447 10.9776C4.93026 11.0329 4.82368 11.1355 4.76447 11.2697L3.33947 14.6013C3.28026 14.7355 3.28026 14.8855 3.33552 15.0197C3.39079 15.1539 3.49342 15.2605 3.62763 15.3197Z" fill="white"/>
<path d="M12.6513 10.9381C12.5802 10.9381 12.5052 10.9539 12.4381 10.9815C12.3039 11.0407 12.2013 11.1473 12.146 11.2815C12.0908 11.4157 12.0947 11.5657 12.15 11.7L13.575 15.0315C13.6302 15.1657 13.7368 15.2684 13.875 15.3236C14.0092 15.3789 14.1592 15.375 14.2934 15.3197C14.4276 15.2605 14.5302 15.1539 14.5855 15.0197C14.6408 14.8855 14.6368 14.7355 14.5816 14.6013L13.1566 11.2697C13.0697 11.0605 12.8645 10.9381 12.6513 10.9381Z" fill="white"/>
<path d="M4.1763 4.14478C2.81052 4.14478 1.69736 5.25399 1.69736 6.61978C1.69736 7.98557 2.81052 9.09872 4.1763 9.09872H13.7408C15.1066 9.09872 16.2197 7.98557 16.2197 6.61978C16.2197 5.25399 15.1066 4.14478 13.7408 4.14478H4.1763ZM13.7408 8.06451H4.1763C3.38288 8.06451 2.73552 7.41714 2.73552 6.62372C2.73552 5.8303 3.38288 5.18293 4.1763 5.18293H13.7408C14.5342 5.18293 15.1816 5.8303 15.1816 6.62372C15.1816 7.41714 14.5342 8.06451 13.7408 8.06451Z" fill="white"/>
</svg>
