<svg width="18" height="18" viewBox="0 0 18 18" fill="none" xmlns="http://www.w3.org/2000/svg">
<path d="M8.79078 16.568C8.54999 16.568 8.35657 16.3746 8.35657 16.1338C8.35657 15.7785 8.35657 15.0404 6.83289 15.0404H1.61841C1.37763 15.0404 1.1842 14.8469 1.1842 14.6061V8.10877C1.1842 7.86798 1.37763 7.67456 1.61841 7.67456C1.8592 7.67456 2.05263 7.86798 2.05263 8.10877V14.168H6.83289C8.37631 14.168 9.22499 14.8627 9.22499 16.1298C9.22499 16.3706 9.03157 16.564 8.79078 16.564V16.568Z" fill="white"/>
<path d="M8.79078 16.5682C8.54999 16.5682 8.35657 16.3748 8.35657 16.134C8.35657 14.5116 9.65525 14.1721 10.7487 14.1721H15.5289V8.11292C15.5289 7.87213 15.7224 7.67871 15.9631 7.67871C16.2039 7.67871 16.3974 7.87213 16.3974 8.11292V14.6063C16.3974 14.8471 16.2039 15.0406 15.9631 15.0406H10.7487C9.22499 15.0406 9.22499 15.7511 9.22499 16.134C9.22499 16.3748 9.03157 16.5682 8.79078 16.5682Z" fill="white"/>
<path d="M8.79078 15.7786C8.54999 15.7786 8.35657 15.5852 8.35657 15.3444C8.35657 14.4681 8.1592 13.422 7.22367 13.422H3.26841C3.02762 13.422 2.8342 13.2286 2.8342 12.9878V6.62464C2.8342 6.38385 3.02762 6.19043 3.26841 6.19043H4.29867C4.53946 6.19043 4.73288 6.38385 4.73288 6.62464C4.73288 6.86543 4.53946 7.05885 4.29867 7.05885H3.70262V12.5496H7.22367C8.47499 12.5496 9.22499 13.5917 9.22499 15.3404C9.22499 15.5812 9.03157 15.7746 8.79078 15.7746V15.7786Z" fill="white"/>
<path d="M8.79078 8.44836C8.65657 8.44836 8.52631 8.3773 8.45525 8.26283C8.41578 8.19967 7.48026 6.67993 7.48026 4.78125C7.48026 2.88257 8.41578 1.36283 8.45525 1.29967C8.60131 1.06678 8.98026 1.06678 9.12631 1.29967C9.16578 1.36283 10.1013 2.88257 10.1013 4.78125C10.1013 6.67993 9.16578 8.19967 9.12631 8.26283C9.05525 8.3773 8.92894 8.44836 8.79078 8.44836ZM8.79078 2.38914C8.54999 2.95362 8.26973 3.82204 8.26973 4.78125C8.26973 5.74046 8.54999 6.60493 8.79078 7.16941C9.03157 6.60493 9.31183 5.74046 9.31183 4.78125C9.31183 3.82204 9.03157 2.95362 8.79473 2.38914H8.79078Z" fill="white"/>
<path d="M8.69999 8.33788C8.63683 8.33788 8.57762 8.32209 8.51841 8.29446C8.19867 8.12867 7.35394 7.74577 6.38683 7.74577C6.16973 7.74577 5.9921 7.56814 5.9921 7.35104C5.9921 7.13393 6.16973 6.9563 6.38683 6.9563C7.48815 6.9563 8.42367 7.35498 8.88157 7.59577C9.07499 7.69446 9.14999 7.93525 9.05131 8.12867C8.98025 8.26288 8.8421 8.34183 8.69999 8.34183V8.33788Z" fill="white"/>
<path d="M10.1171 7.87605C9.97895 7.87605 9.84474 7.80105 9.76974 7.67079C9.66316 7.48131 9.73421 7.24052 9.92368 7.13394C10.1921 6.98789 10.7053 6.67605 11.1355 6.24184C11.7118 5.66552 12.0789 4.97868 12.2921 4.47342C11.7868 4.68657 11.1 5.04973 10.5237 5.63C10.2474 5.90631 10.0145 6.18658 9.85263 6.43526C9.73421 6.61684 9.48947 6.66815 9.30789 6.54973C9.12631 6.43131 9.075 6.18658 9.19342 6.005C9.38684 5.71289 9.65526 5.38921 9.9671 5.07342C11.1908 3.84973 12.7737 3.47079 12.8408 3.455C12.975 3.42342 13.1132 3.46289 13.2079 3.56157C13.3026 3.65631 13.3421 3.79842 13.3145 3.92868C13.2987 3.99579 12.9197 5.57868 11.6961 6.80236C11.1947 7.30368 10.6105 7.65894 10.3066 7.82868C10.2474 7.86026 10.1803 7.87605 10.1171 7.87605Z" fill="white"/>
<path d="M7.46053 7.87608C7.39737 7.87608 7.33027 7.86029 7.27106 7.82871C6.96711 7.66292 6.3829 7.30371 5.88158 6.8024C4.6579 5.57871 4.27895 3.99582 4.26316 3.92871C4.23158 3.7945 4.27106 3.65634 4.36974 3.56161C4.46448 3.46687 4.60658 3.42345 4.73685 3.45503C4.80395 3.47082 6.38685 3.84582 7.61053 5.07345C7.92632 5.38529 8.19079 5.70898 8.38421 6.00108C8.50264 6.18266 8.45132 6.4274 8.26974 6.54582C8.08816 6.66424 7.84343 6.61292 7.725 6.43135C7.55921 6.18266 7.33027 5.9024 7.05 5.62608C6.47369 5.04977 5.78685 4.68266 5.28158 4.4695C5.49474 4.97477 5.8579 5.66161 6.43816 6.23792C6.87237 6.67214 7.38553 6.98398 7.65 7.13003C7.83948 7.23661 7.91053 7.4774 7.80395 7.66687C7.7329 7.79713 7.59869 7.87214 7.45658 7.87214L7.46053 7.87608Z" fill="white"/>
<path d="M8.88554 8.33397C8.74344 8.33397 8.60528 8.25502 8.53423 8.12081C8.43554 7.92739 8.51054 7.69055 8.70397 7.58792C9.16186 7.35108 10.0934 6.95239 11.1948 6.95239C11.4119 6.95239 11.5895 7.13002 11.5895 7.34713C11.5895 7.56423 11.4119 7.74187 11.1948 7.74187C10.2276 7.74187 9.38686 8.12476 9.06712 8.2866C9.00791 8.31818 8.9487 8.33002 8.88554 8.33002V8.33397Z" fill="white"/>
<path d="M8.76318 14.1998C8.54607 14.1998 8.36844 14.0221 8.36844 13.805V8.19186C8.36844 7.97475 8.54607 7.79712 8.76318 7.79712C8.98028 7.79712 9.15791 7.97475 9.15791 8.19186V13.805C9.15791 14.0221 8.98028 14.1998 8.76318 14.1998Z" fill="white"/>
<path d="M8.79078 15.7785C8.54999 15.7785 8.35657 15.5851 8.35657 15.3443C8.35657 13.5957 9.10262 12.5535 10.3579 12.5535H13.8789V7.06276H13.2829C13.0421 7.06276 12.8487 6.86934 12.8487 6.62855C12.8487 6.38776 13.0421 6.19434 13.2829 6.19434H14.3131C14.5539 6.19434 14.7474 6.38776 14.7474 6.62855V12.9878C14.7474 13.2285 14.5539 13.422 14.3131 13.422H10.3579C9.42236 13.422 9.22499 14.468 9.22499 15.3443C9.22499 15.5851 9.03157 15.7785 8.79078 15.7785Z" fill="white"/>
<path d="M7.10921 9.92478H4.95394C4.83158 9.92478 4.72894 9.88136 4.64605 9.79846C4.56316 9.71557 4.52368 9.61293 4.52368 9.49057C4.52368 9.3682 4.5671 9.26557 4.65 9.18267C4.73289 9.09978 4.83552 9.0603 4.95789 9.0603H7.11316C7.23552 9.0603 7.33815 9.10372 7.42105 9.18662C7.50394 9.26951 7.54342 9.37215 7.54342 9.49451C7.54342 9.61688 7.5 9.71951 7.4171 9.80241C7.33421 9.8853 7.23158 9.92478 7.10921 9.92478Z" fill="white"/>
<path d="M7.10921 11.3852H4.95394C4.83158 11.3852 4.72894 11.3418 4.64605 11.2589C4.56316 11.176 4.52368 11.0734 4.52368 10.951C4.52368 10.8286 4.5671 10.726 4.65 10.6431C4.73289 10.5602 4.83552 10.5208 4.95789 10.5208H7.11316C7.23552 10.5208 7.33815 10.5642 7.42105 10.6471C7.50394 10.73 7.54342 10.8326 7.54342 10.955C7.54342 11.0773 7.5 11.18 7.4171 11.2629C7.33421 11.3458 7.23158 11.3852 7.10921 11.3852Z" fill="white"/>
<path d="M12.6276 9.92478H10.4724C10.35 9.92478 10.2474 9.88136 10.1645 9.79846C10.0816 9.71557 10.0421 9.61293 10.0421 9.49057C10.0421 9.3682 10.0855 9.26557 10.1684 9.18267C10.2513 9.09978 10.354 9.0603 10.4763 9.0603H12.6316C12.754 9.0603 12.8566 9.10372 12.9395 9.18662C13.0224 9.26951 13.0619 9.37215 13.0619 9.49451C13.0619 9.61688 13.0184 9.71951 12.9355 9.80241C12.8526 9.8853 12.75 9.92478 12.6276 9.92478Z" fill="white"/>
<path d="M12.6276 11.3852H10.4724C10.35 11.3852 10.2474 11.3418 10.1645 11.2589C10.0816 11.176 10.0421 11.0734 10.0421 10.951C10.0421 10.8286 10.0855 10.726 10.1684 10.6431C10.2513 10.5602 10.354 10.5208 10.4763 10.5208H12.6316C12.754 10.5208 12.8566 10.5642 12.9395 10.6471C13.0224 10.73 13.0619 10.8326 13.0619 10.955C13.0619 11.0773 13.0184 11.18 12.9355 11.2629C12.8526 11.3458 12.75 11.3852 12.6276 11.3852Z" fill="white"/>
</svg>
