<svg width="18" height="18" viewBox="0 0 18 18" fill="none" xmlns="http://www.w3.org/2000/svg">
<path fill-rule="evenodd" clip-rule="evenodd" d="M4.29471 2.3211C4.3934 2.22636 4.51577 2.17505 4.66182 2.17505C4.80787 2.17505 4.92629 2.22242 5.02498 2.3211C5.12366 2.41979 5.16708 2.54215 5.16708 2.68821V10.3162C5.00675 10.2589 4.83399 10.2277 4.65395 10.2277C4.47536 10.2277 4.30395 10.2584 4.14471 10.3149V2.68821C4.14471 2.53821 4.19603 2.41979 4.29471 2.3211ZM4.14471 13.1879V15.679C4.14471 15.8251 4.19208 15.9474 4.28682 16.0461C4.38156 16.1448 4.50392 16.1922 4.64998 16.1922C4.79603 16.1922 4.92235 16.1408 5.01708 16.0461C5.11577 15.9474 5.16708 15.8251 5.16708 15.679V13.1865C5.00675 13.2438 4.83399 13.275 4.65395 13.275C4.47536 13.275 4.30395 13.2443 4.14471 13.1879Z" fill="white"/>
<path d="M4.65396 9.77771C3.56449 9.77771 2.67633 10.6659 2.67633 11.7553C2.67633 12.8448 3.56449 13.733 4.65396 13.733C5.74344 13.733 6.63159 12.8448 6.63159 11.7553C6.63159 10.6659 5.74344 9.77771 4.65396 9.77771ZM4.65396 12.8251C4.06186 12.8251 3.58423 12.3435 3.58423 11.7553C3.58423 11.1672 4.0658 10.6856 4.65396 10.6856C5.24212 10.6856 5.7237 11.1672 5.7237 11.7553C5.7237 12.3435 5.24212 12.8251 4.65396 12.8251Z" fill="white"/>
<path fill-rule="evenodd" clip-rule="evenodd" d="M8.58551 2.3211C8.68419 2.22242 8.80261 2.17505 8.95261 2.17505H8.95656C9.10261 2.17505 9.22103 2.22242 9.31972 2.3211C9.4184 2.41979 9.46577 2.54215 9.46577 2.68821V5.63214C9.30432 5.5739 9.13021 5.54215 8.94868 5.54215C8.7701 5.54215 8.59869 5.57288 8.43945 5.62933V2.68821C8.43945 2.54215 8.48682 2.41979 8.58551 2.3211ZM8.43945 8.50235V15.679C8.43945 15.8251 8.48682 15.9474 8.58551 16.0461C8.68419 16.1448 8.80261 16.1922 8.94866 16.1922C9.09472 16.1922 9.21708 16.1408 9.31577 16.0461C9.41445 15.9474 9.46577 15.829 9.46577 15.679V8.49954C9.30432 8.55778 9.13021 8.58952 8.94868 8.58952C8.7701 8.58952 8.59869 8.5588 8.43945 8.50235Z" fill="white"/>
<path d="M8.9487 5.09216C7.85923 5.09216 6.97107 5.98032 6.97107 7.06979C6.97107 8.15927 7.85923 9.04743 8.9487 9.04743C10.0382 9.04743 10.9263 8.15927 10.9263 7.06979C10.9263 5.98032 10.0382 5.09216 8.9487 5.09216ZM8.9487 8.13953C8.3566 8.13953 7.87896 7.65795 7.87896 7.06979C7.87896 6.48164 8.36054 6.00006 8.9487 6.00006C9.53686 6.00006 10.0184 6.48164 10.0184 7.06979C10.0184 7.65795 9.53686 8.13953 8.9487 8.13953Z" fill="white"/>
<path fill-rule="evenodd" clip-rule="evenodd" d="M12.8802 2.3211C12.9789 2.22242 13.0973 2.17505 13.2473 2.17505H13.2513C13.3974 2.17505 13.5158 2.22242 13.6145 2.3211C13.7131 2.41979 13.7605 2.54215 13.7605 2.68821V8.79399C13.5991 8.73574 13.4249 8.704 13.2434 8.704C13.0648 8.704 12.8934 8.73472 12.7342 8.79116V2.68821C12.7342 2.54215 12.7816 2.41979 12.8802 2.3211ZM12.7342 11.6642V15.679C12.7342 15.8251 12.7816 15.9474 12.8802 16.0461C12.9789 16.1448 13.0973 16.1922 13.2434 16.1922C13.3895 16.1922 13.5118 16.1408 13.6105 16.0461C13.7092 15.9474 13.7605 15.8251 13.7605 15.679V11.6614C13.5991 11.7196 13.4249 11.7514 13.2434 11.7514C13.0648 11.7514 12.8934 11.7206 12.7342 11.6642Z" fill="white"/>
<path d="M13.2434 8.25403C12.154 8.25403 11.2658 9.14219 11.2658 10.2317C11.2658 11.3211 12.154 12.2093 13.2434 12.2093C14.3329 12.2093 15.2211 11.3211 15.2211 10.2317C15.2211 9.14219 14.3329 8.25403 13.2434 8.25403ZM13.2434 11.3014C12.6513 11.3014 12.1737 10.8198 12.1737 10.2317C12.1737 9.6435 12.6553 9.16192 13.2434 9.16192C13.8316 9.16192 14.3132 9.6435 14.3132 10.2317C14.3132 10.8198 13.8316 11.3014 13.2434 11.3014Z" fill="white"/>
</svg>
