<svg width="18" height="18" viewBox="0 0 18 18" fill="none" xmlns="http://www.w3.org/2000/svg">
<path d="M13.4921 3.01978C13.8197 3.01978 14.1 3.1382 14.3329 3.37109C14.5658 3.60399 14.6842 3.88425 14.6842 4.21188V9.47372C14.6842 9.61188 14.6408 9.72636 14.55 9.81714C14.4592 9.90793 14.3447 9.95135 14.2066 9.95135C14.0684 9.95135 13.9539 9.90793 13.8632 9.81714C13.7724 9.72636 13.7289 9.61188 13.7289 9.47372V4.21188C13.7289 4.15267 13.7053 4.10135 13.6539 4.05004C13.6066 4.00267 13.5513 3.97504 13.4921 3.97504H2.92105C2.86184 3.97504 2.81052 3.99872 2.75921 4.05004C2.71184 4.09741 2.68421 4.15267 2.68421 4.21188V14.7869C2.68421 14.8461 2.70789 14.8974 2.75921 14.9487C2.80657 14.9961 2.86184 15.0237 2.92105 15.0237H11.6171C11.7553 15.0237 11.8697 15.0671 11.9605 15.1579C12.0513 15.2487 12.0947 15.3632 12.0947 15.5014C12.0947 15.6395 12.0513 15.754 11.9605 15.8448C11.8697 15.9356 11.7553 15.979 11.6171 15.979H2.92105C2.59342 15.979 2.31315 15.8606 2.08026 15.6277C1.84736 15.3948 1.72894 15.1145 1.72894 14.7869V4.21188C1.72894 3.88425 1.84736 3.60399 2.08026 3.37109C2.31315 3.1382 2.59342 3.01978 2.92105 3.01978H13.496H13.4921Z" fill="white"/>
<path d="M2.20657 13.3619C2.20657 13.3619 2.35657 12.6672 3.03947 12.6672C4.21184 12.6672 4.52368 11.6053 4.59473 11.2145C5.11184 8.36455 4.86315 5.33691 5.5421 5.33691C6.22105 5.33691 5.92894 10.8909 6.62763 10.8909C7.03815 10.8909 6.93157 10.5711 7.49605 9.45007C8.12368 8.2027 8.70789 7.66981 9.18947 7.66981C9.88815 7.66981 9.94342 8.6606 10.571 8.6606C11.5342 8.6606 11.4118 6.96323 11.9408 6.96323C12.5289 6.96323 12.1224 10.6501 13.2632 11.9606C14.1197 12.9474 14.4671 12.5724 14.9053 12.8961C15.2526 13.1567 15.2526 13.3659 15.2526 13.3659H2.20657V13.3619Z" fill="white"/>
</svg>
