<svg width="18" height="18" viewBox="0 0 18 18" fill="none" xmlns="http://www.w3.org/2000/svg">
<path d="M0.971039 14.1315C0.971039 14.1315 1.15262 13.2749 1.99735 13.2749C3.44209 13.2749 3.82499 11.9683 3.91183 11.4867C4.5513 7.97754 4.24341 4.25122 5.08025 4.25122C5.91709 4.25122 5.55393 11.0881 6.41446 11.0881C6.92367 11.0881 6.78946 10.6973 7.4842 9.31175C8.25788 7.77622 8.9763 7.12096 9.56841 7.12096C10.4289 7.12096 10.5 8.33675 11.2697 8.33675C12.4539 8.33675 12.3079 6.24464 12.9552 6.24464C13.6816 6.24464 13.1802 10.7841 14.5816 12.3946C15.6355 13.6104 16.0618 13.1446 16.6026 13.5473C17.0289 13.867 17.0289 14.1275 17.0289 14.1275H0.971039V14.1315Z" fill="white"/>
</svg>
