<svg width="18" height="18" viewBox="0 0 18 18" fill="none" xmlns="http://www.w3.org/2000/svg">
<path d="M10.3087 11.8353C10.1385 11.8353 9.99842 11.7802 9.88331 11.6651C9.7682 11.55 9.71315 11.4099 9.71315 11.2397C9.71315 11.0696 9.7682 10.9294 9.88331 10.8193C9.99842 10.7092 10.1385 10.6492 10.3087 10.6492H16.0191C16.1892 10.6492 16.3294 10.7042 16.4445 10.8193C16.5596 10.9344 16.6146 11.0746 16.6146 11.2447C16.6146 11.4149 16.5596 11.555 16.4445 11.6651C16.3294 11.7752 16.1892 11.8353 16.0191 11.8353H10.3087Z" fill="white"/>
<path d="M12.5708 5.98471H10.3087C10.1385 5.98471 9.99842 5.92966 9.88331 5.81455C9.7682 5.69944 9.71315 5.55931 9.71315 5.38915C9.71315 5.21899 9.7682 5.07886 9.88331 4.96876C9.99842 4.85865 10.1385 4.7986 10.3087 4.7986H12.5708V2.53648C12.5708 2.36632 12.6259 2.22619 12.741 2.11108C12.8561 1.99597 12.9962 1.94092 13.1664 1.94092C13.3365 1.94092 13.4767 1.99597 13.5868 2.11108C13.6969 2.22619 13.7569 2.36632 13.7569 2.53648V4.7986H16.0191C16.1892 4.7986 16.3294 4.85365 16.4445 4.96876C16.5596 5.08386 16.6146 5.224 16.6146 5.39415C16.6146 5.56431 16.5596 5.70445 16.4445 5.81455C16.3294 5.92465 16.1892 5.98471 16.0191 5.98471H13.7569V8.34692C13.7569 8.51708 13.7019 8.65721 13.5868 8.77232C13.4717 8.88743 13.3315 8.94248 13.1614 8.94248C12.9912 8.94248 12.8511 8.88743 12.741 8.77232C12.6309 8.65721 12.5708 8.51708 12.5708 8.34692V5.98471Z" fill="white"/>
<path d="M8.49202 10.9944C8.13669 10.3838 7.64623 9.88333 7.04066 9.49797L7.02065 9.48796V3.00688C7.02065 2.44636 6.82546 1.96591 6.4401 1.58054C6.05474 1.19518 5.57429 1 5.01877 1H5.00876C4.45324 1 3.97279 1.19518 3.58743 1.58054C3.20206 1.96591 3.00688 2.44636 3.00688 3.00688V9.48295L2.98686 9.49296C2.37629 9.87832 1.89084 10.3788 1.5355 10.9894C1.18017 11.5999 1 12.2706 1 12.9862C1 14.0973 1.39537 15.0532 2.1711 15.8289C2.94683 16.6046 3.90272 17 5.00876 17C6.1148 17 7.07069 16.6046 7.84642 15.8289C8.62215 15.0532 9.01752 14.0973 9.01752 12.9862C9.01752 12.2706 8.83735 11.5949 8.48202 10.9894L8.49202 10.9944ZM7.06569 15.0582C6.50516 15.6187 5.81451 15.904 5.01376 15.904C4.21301 15.904 3.52236 15.6187 2.96184 15.0582C2.39631 14.4977 2.11104 13.802 2.11104 12.9962C2.11104 12.4708 2.23616 11.9753 2.47638 11.5149C2.97685 10.639 4.11792 10.0585 4.11792 10.0585V3.00688C4.11792 2.75665 4.203 2.54145 4.37817 2.37129C4.54833 2.20113 4.76353 2.11104 5.01376 2.11104C5.264 2.11104 5.47419 2.19612 5.64936 2.37129C5.81952 2.54145 5.9096 2.75665 5.9096 3.00688V10.0535C5.9096 10.0535 7.05067 10.634 7.55114 11.5099C7.79137 11.9653 7.91648 12.4657 7.91648 12.9912C7.91648 13.797 7.63122 14.4926 7.06569 15.0532V15.0582Z" fill="white"/>
<path d="M7.25088 13.0264C7.25088 14.2626 6.24994 15.2635 5.01378 15.2635C3.77763 15.2635 2.77669 14.2626 2.77669 13.0264C2.77669 11.7902 3.77763 10.6492 5.01378 10.6492C6.24994 10.6492 7.25088 11.7902 7.25088 13.0264Z" fill="white"/>
<path d="M5.01384 12.7261C4.7636 12.7261 4.56342 12.5259 4.56342 12.2757V6.76048C4.56342 6.51025 4.7636 6.31006 5.01384 6.31006C5.26407 6.31006 5.46426 6.51025 5.46426 6.76048V12.2757C5.46426 12.5259 5.26407 12.7261 5.01384 12.7261Z" fill="white"/>
</svg>
