<svg width="18" height="18" viewBox="0 0 18 18" fill="none" xmlns="http://www.w3.org/2000/svg">
<path fill-rule="evenodd" clip-rule="evenodd" d="M6.95133 5.4947L5.73948 6.70655L5.29343 6.26049C5.11185 6.07892 4.81975 6.07892 4.63817 6.26049C4.45659 6.44207 4.45659 6.73418 4.63817 6.91576L5.41185 7.68944C5.49869 7.77628 5.61712 7.82365 5.73948 7.82365C5.86185 7.82365 5.98027 7.77628 6.06712 7.68944L7.60659 6.14997C7.78817 5.96839 7.78817 5.67628 7.60659 5.4947C7.42501 5.31313 7.13291 5.31313 6.95133 5.4947Z" fill="white"/>
<path fill-rule="evenodd" clip-rule="evenodd" d="M6.95133 8.62886L5.73948 9.8407L5.29343 9.39465C5.11185 9.21307 4.81975 9.21307 4.63817 9.39465C4.45659 9.57623 4.45659 9.86833 4.63817 10.0499L5.41185 10.8236C5.50264 10.9144 5.62106 10.9578 5.73948 10.9578C5.8579 10.9578 5.97633 10.9144 6.06712 10.8236L7.60659 9.28412C7.78817 9.10254 7.78817 8.81044 7.60659 8.62886C7.42501 8.44728 7.13291 8.44728 6.95133 8.62886Z" fill="white"/>
<path fill-rule="evenodd" clip-rule="evenodd" d="M6.95133 11.7631L5.73948 12.975L5.29343 12.5289C5.11185 12.3473 4.81975 12.3473 4.63817 12.5289C4.45659 12.7105 4.45659 13.0026 4.63817 13.1842L5.41185 13.9579C5.50264 14.0487 5.62106 14.0921 5.73948 14.0921C5.8579 14.0921 5.97633 14.0487 6.06712 13.9579L7.60659 12.4184C7.78817 12.2368 7.78817 11.9447 7.60659 11.7631C7.42501 11.5816 7.13291 11.5816 6.95133 11.7631Z" fill="white"/>
<path fill-rule="evenodd" clip-rule="evenodd" d="M13.0184 6.12634H9.1816C8.92502 6.12634 8.71976 6.33161 8.71976 6.58818C8.71976 6.84476 8.92502 7.05003 9.1816 7.05003H13.0184C13.275 7.05003 13.4803 6.84082 13.4803 6.58818C13.4803 6.33555 13.275 6.12634 13.0184 6.12634Z" fill="white"/>
<path fill-rule="evenodd" clip-rule="evenodd" d="M13.0184 9.2644H9.1816C8.92502 9.2644 8.71976 9.47362 8.71976 9.72625C8.71976 9.97888 8.92502 10.1881 9.1816 10.1881H13.0184C13.275 10.1881 13.4803 9.98283 13.4803 9.72625C13.4803 9.46967 13.275 9.2644 13.0184 9.2644Z" fill="white"/>
<path fill-rule="evenodd" clip-rule="evenodd" d="M13.0184 12.3987H9.1816C8.92502 12.3987 8.71976 12.6079 8.71976 12.8605C8.71976 13.1132 8.92502 13.3224 9.1816 13.3224H13.0184C13.275 13.3224 13.4803 13.1132 13.4803 12.8605C13.4803 12.6079 13.275 12.3987 13.0184 12.3987Z" fill="white"/>
<path d="M6.71841 3.85655H11.2658C11.546 3.85655 11.775 3.6276 11.775 3.34734V2.4355C11.775 2.15524 11.546 1.92629 11.2658 1.92629H10.3303C10.121 1.37366 9.59209 0.998657 8.99209 0.998657C8.39209 0.998657 7.86315 1.37366 7.65393 1.92629H6.71841C6.43815 1.92629 6.2092 2.15524 6.2092 2.4355V3.34734C6.2092 3.6276 6.43815 3.85655 6.71841 3.85655ZM8.99209 1.82366C9.32762 1.82366 9.59999 2.09603 9.59999 2.43155C9.59999 2.76708 9.32762 3.03945 8.99209 3.03945C8.65657 3.03945 8.3842 2.76708 8.3842 2.43155C8.3842 2.09603 8.65657 1.82366 8.99209 1.82366Z" fill="white"/>
<path d="M15.2961 3.42232C15.0553 3.18153 14.7671 3.06311 14.4316 3.06311H3.55263C3.21711 3.06311 2.92895 3.18153 2.68816 3.42232C2.44737 3.66311 2.32895 3.95127 2.32895 4.28679V15.1618C2.32895 15.4973 2.44737 15.7855 2.68816 16.0263C2.92895 16.2671 3.21711 16.3855 3.55263 16.3855H13.1329C13.275 16.3855 13.3934 16.3381 13.4842 16.2473C13.575 16.1565 13.6224 16.0381 13.6224 15.896C13.6224 15.7539 13.575 15.6355 13.4842 15.5447C13.3895 15.45 13.275 15.4065 13.1329 15.4065H3.55263C3.49342 15.4065 3.43816 15.3828 3.38684 15.3315C3.33553 15.2802 3.31184 15.225 3.31184 15.1657V4.28679C3.31184 4.22758 3.33553 4.17232 3.38684 4.121C3.43816 4.06969 3.49342 4.04601 3.55263 4.04601H14.4276C14.4868 4.04601 14.5421 4.06969 14.5934 4.121C14.6447 4.17232 14.6684 4.22758 14.6684 4.28679V15.1618C14.6684 15.221 14.6447 15.2763 14.5934 15.3276C14.5421 15.3789 14.4868 15.4026 14.4276 15.4026H11.8697C11.7276 15.4026 11.6092 15.45 11.5184 15.5407C11.4237 15.6355 11.3803 15.75 11.3803 15.8921C11.3803 16.0342 11.4276 16.1526 11.5184 16.2434C11.6092 16.3342 11.7276 16.3815 11.8697 16.3815H14.4276C14.7632 16.3815 15.0513 16.2631 15.2921 16.0223C15.5329 15.7815 15.6513 15.4934 15.6513 15.1578V4.28679C15.6513 3.95127 15.5329 3.66311 15.2921 3.42232H15.2961Z" fill="white"/>
</svg>
