<svg width="28" height="28" viewBox="0 0 28 28" fill="none" xmlns="http://www.w3.org/2000/svg">
<path d="M14.2316 27.3053C12.4 27.3053 10.6807 26.9544 9.05966 26.2526C7.4386 25.5509 6.02808 24.5965 4.81404 23.3825C3.60001 22.1684 2.64562 20.7579 1.94387 19.1369C1.24211 17.5228 0.891235 15.7965 0.891235 13.9649C0.891235 12.1193 1.24211 10.386 1.94387 8.76493C2.64562 7.14387 3.60001 5.73335 4.81404 4.53335C6.02808 3.33335 7.4386 2.38598 9.05966 1.68422C10.6737 0.982469 12.4 0.631592 14.2316 0.631592C16.0632 0.631592 17.8105 0.982469 19.4316 1.68422C21.0526 2.38598 22.4632 3.33335 23.6632 4.53335C24.8632 5.73335 25.8105 7.14387 26.5123 8.76493C27.214 10.386 27.5649 12.1193 27.5649 13.9649C27.5649 15.8105 27.214 17.5158 26.5123 19.1369C25.8105 20.7579 24.8632 22.1684 23.6632 23.3825C22.4632 24.5965 21.0526 25.5509 19.4316 26.2526C17.8105 26.9544 16.0772 27.3053 14.2316 27.3053ZM14.2316 25.7123C17.5018 25.7123 20.2737 24.5684 22.5544 22.2807C24.8351 19.993 25.9719 17.2211 25.9719 13.9719C25.9719 10.7228 24.8351 7.92984 22.5544 5.64914C20.2737 3.36843 17.5018 2.23159 14.2316 2.23159C10.9614 2.23159 8.21053 3.36843 5.92281 5.64914C3.6351 7.92984 2.49124 10.7018 2.49124 13.9719C2.49124 17.2421 3.6351 19.993 5.92281 22.2807C8.21053 24.5684 10.9825 25.7123 14.2316 25.7123Z" fill="white"/>
</svg>
